<?xml version="1.0" encoding="UTF-8" standalone="no"?>
<!-- Created with Inkscape (http://www.inkscape.org/) -->

<svg
   width="136.50331mm"
   height="71.501953mm"
   viewBox="0 0 136.50331 71.501953"
   version="1.1"
   id="svg1"
   inkscape:version="1.4 (86a8ad7, 2024-10-11)"
   sodipodi:docname="Fig 6_25 TFG.svg"
   xmlns:inkscape="http://www.inkscape.org/namespaces/inkscape"
   xmlns:sodipodi="http://sodipodi.sourceforge.net/DTD/sodipodi-0.dtd"
   xmlns="http://www.w3.org/2000/svg"
   xmlns:svg="http://www.w3.org/2000/svg">
  <sodipodi:namedview
     id="namedview1"
     pagecolor="#ffffff"
     bordercolor="#000000"
     borderopacity="0.25"
     inkscape:showpageshadow="2"
     inkscape:pageopacity="0.0"
     inkscape:pagecheckerboard="0"
     inkscape:deskcolor="#d1d1d1"
     inkscape:document-units="mm"
     inkscape:zoom="0.76284303"
     inkscape:cx="-5.8989856"
     inkscape:cy="454.22189"
     inkscape:window-width="2560"
     inkscape:window-height="1369"
     inkscape:window-x="-8"
     inkscape:window-y="-8"
     inkscape:window-maximized="1"
     inkscape:current-layer="layer1" />
  <defs
     id="defs1" />
  <g
     inkscape:label="Capa 1"
     inkscape:groupmode="layer"
     id="layer1"
     transform="translate(-47.169922,-107.04688)">
    <g
       id="g2">
      <path
         style="-inkscape-font-specification:'Arial Bold';stroke-width:9.82766e-09"
         d="m 104.96442,117.59094 1.86586,-2.84913 -1.69083,-2.61071 h 1.28862 l 1.09495,1.75413 1.07257,-1.75413 h 1.27743 l -1.69827,2.65167 1.86586,2.80817 h -1.32958 l -1.21039,-1.88825 -1.21409,1.88825 z m 10.56585,0 h -1.19926 l -0.47651,-1.24022 h -2.18242 l -0.45055,1.24022 h -1.16944 l 2.12657,-5.45984 h 1.16568 z m -2.02976,-2.16014 -0.75233,-2.02602 -0.7374,2.02602 z m 2.6107,-3.2997 h 2.01488 q 0.68155,0 1.03905,0.10442 0.48056,0.14134 0.82307,0.50306 0.34268,0.36114 0.52151,0.88635 0.17884,0.52152 0.17884,1.28862 0,0.67411 -0.16787,1.16199 -0.2048,0.59588 -0.58469,0.96458 -0.28672,0.27922 -0.77466,0.43556 -0.36518,0.11538 -0.97577,0.11538 h -2.07442 z m 1.1024,0.92362 v 3.6163 h 0.82306 q 0.46152,0 0.66667,-0.0519 0.26825,-0.0669 0.44306,-0.2273 0.17883,-0.16038 0.29075,-0.52498 0.11192,-0.36864 0.11192,-1.00185 0,-0.63314 -0.11192,-0.97207 -0.11192,-0.33864 -0.31268,-0.52902 -0.20134,-0.1898 -0.50998,-0.25672 -0.23076,-0.0519 -0.90498,-0.0519 z m 7.903,2.52878 1.06883,0.33864 q -0.24576,0.89385 -0.81932,1.32958 -0.56997,0.4321 -1.44877,0.4321 -1.08751,0 -1.78763,-0.74108 -0.70019,-0.7449 -0.70019,-2.03352 0,-1.36304 0.70388,-2.11537 0.70393,-0.75603 1.85098,-0.75603 1.00184,0 1.62755,0.59213 0.37268,0.35018 0.55844,1.00559 l -1.09127,0.26076 q -0.0969,-0.4246 -0.40613,-0.67036 -0.30518,-0.24575 -0.74484,-0.24575 -0.60707,0 -0.98696,0.43555 -0.37614,0.43556 -0.37614,1.4115 0,1.03537 0.37268,1.47485 0.37268,0.4396 0.96833,0.4396 0.43959,0 0.75602,-0.27922 0.31672,-0.27922 0.4546,-0.87897 z"
         id="text1-0"
         aria-label="XADC" />
      <path
         id="path15"
         style="color:#000000;font-style:normal;font-variant:normal;font-weight:normal;font-stretch:normal;font-size:medium;line-height:normal;font-family:sans-serif;font-variant-ligatures:normal;font-variant-position:normal;font-variant-caps:normal;font-variant-numeric:normal;font-variant-alternates:normal;font-variant-east-asian:normal;font-feature-settings:normal;font-variation-settings:normal;text-indent:0;text-align:start;text-decoration-line:none;text-decoration-style:solid;text-decoration-color:#000000;letter-spacing:normal;word-spacing:normal;text-transform:none;writing-mode:lr-tb;direction:ltr;text-orientation:mixed;dominant-baseline:auto;baseline-shift:baseline;text-anchor:start;white-space:normal;shape-padding:0;shape-margin:0;inline-size:0;clip-rule:nonzero;display:inline;overflow:visible;visibility:visible;isolation:auto;mix-blend-mode:normal;color-interpolation:sRGB;color-interpolation-filters:linearRGB;solid-color:#000000;solid-opacity:1;vector-effect:none;fill:#000000;fill-opacity:1;fill-rule:nonzero;stroke:none;stroke-width:5.769;stroke-linecap:butt;stroke-linejoin:miter;stroke-miterlimit:4;stroke-dasharray:none;stroke-dashoffset:0;stroke-opacity:1;-inkscape-stroke:none;color-rendering:auto;image-rendering:auto;shape-rendering:auto;text-rendering:auto;enable-background:accumulate;stop-color:#000000"
         d="m 80.597206,142.4888 a 0.90414372,0.90414372 0 0 1 -0.904117,0.90417 0.90414372,0.90414372 0 0 1 -0.904174,-0.90417 0.90414372,0.90414372 0 0 1 0.904174,-0.90412 0.90414372,0.90414372 0 0 1 0.904117,0.90412 z" />
      <path
         id="path15-1"
         style="color:#000000;font-style:normal;font-variant:normal;font-weight:normal;font-stretch:normal;font-size:medium;line-height:normal;font-family:sans-serif;font-variant-ligatures:normal;font-variant-position:normal;font-variant-caps:normal;font-variant-numeric:normal;font-variant-alternates:normal;font-variant-east-asian:normal;font-feature-settings:normal;font-variation-settings:normal;text-indent:0;text-align:start;text-decoration-line:none;text-decoration-style:solid;text-decoration-color:#000000;letter-spacing:normal;word-spacing:normal;text-transform:none;writing-mode:lr-tb;direction:ltr;text-orientation:mixed;dominant-baseline:auto;baseline-shift:baseline;text-anchor:start;white-space:normal;shape-padding:0;shape-margin:0;inline-size:0;clip-rule:nonzero;display:inline;overflow:visible;visibility:visible;isolation:auto;mix-blend-mode:normal;color-interpolation:sRGB;color-interpolation-filters:linearRGB;solid-color:#000000;solid-opacity:1;vector-effect:none;fill:#000000;fill-opacity:1;fill-rule:nonzero;stroke:none;stroke-width:5.769;stroke-linecap:butt;stroke-linejoin:miter;stroke-miterlimit:4;stroke-dasharray:none;stroke-dashoffset:0;stroke-opacity:1;-inkscape-stroke:none;color-rendering:auto;image-rendering:auto;shape-rendering:auto;text-rendering:auto;enable-background:accumulate;stop-color:#000000"
         d="m 80.597206,146.1918 a 0.90414372,0.90414372 0 0 1 -0.904117,0.90418 0.90414372,0.90414372 0 0 1 -0.904174,-0.90418 0.90414372,0.90414372 0 0 1 0.904174,-0.90412 0.90414372,0.90414372 0 0 1 0.904117,0.90412 z" />
      <path
         id="path15-4"
         style="color:#000000;font-style:normal;font-variant:normal;font-weight:normal;font-stretch:normal;font-size:medium;line-height:normal;font-family:sans-serif;font-variant-ligatures:normal;font-variant-position:normal;font-variant-caps:normal;font-variant-numeric:normal;font-variant-alternates:normal;font-variant-east-asian:normal;font-feature-settings:normal;font-variation-settings:normal;text-indent:0;text-align:start;text-decoration-line:none;text-decoration-style:solid;text-decoration-color:#000000;letter-spacing:normal;word-spacing:normal;text-transform:none;writing-mode:lr-tb;direction:ltr;text-orientation:mixed;dominant-baseline:auto;baseline-shift:baseline;text-anchor:start;white-space:normal;shape-padding:0;shape-margin:0;inline-size:0;clip-rule:nonzero;display:inline;overflow:visible;visibility:visible;isolation:auto;mix-blend-mode:normal;color-interpolation:sRGB;color-interpolation-filters:linearRGB;solid-color:#000000;solid-opacity:1;vector-effect:none;fill:#000000;fill-opacity:1;fill-rule:nonzero;stroke:none;stroke-width:5.769;stroke-linecap:butt;stroke-linejoin:miter;stroke-miterlimit:4;stroke-dasharray:none;stroke-dashoffset:0;stroke-opacity:1;-inkscape-stroke:none;color-rendering:auto;image-rendering:auto;shape-rendering:auto;text-rendering:auto;enable-background:accumulate;stop-color:#000000"
         d="m 80.597206,149.89469 a 0.90414372,0.90414372 0 0 1 -0.904117,0.90417 0.90414372,0.90414372 0 0 1 -0.904174,-0.90417 0.90414372,0.90414372 0 0 1 0.904174,-0.90412 0.90414372,0.90414372 0 0 1 0.904117,0.90412 z" />
      <path
         id="path15-8"
         style="color:#000000;font-style:normal;font-variant:normal;font-weight:normal;font-stretch:normal;font-size:medium;line-height:normal;font-family:sans-serif;font-variant-ligatures:normal;font-variant-position:normal;font-variant-caps:normal;font-variant-numeric:normal;font-variant-alternates:normal;font-variant-east-asian:normal;font-feature-settings:normal;font-variation-settings:normal;text-indent:0;text-align:start;text-decoration-line:none;text-decoration-style:solid;text-decoration-color:#000000;letter-spacing:normal;word-spacing:normal;text-transform:none;writing-mode:lr-tb;direction:ltr;text-orientation:mixed;dominant-baseline:auto;baseline-shift:baseline;text-anchor:start;white-space:normal;shape-padding:0;shape-margin:0;inline-size:0;clip-rule:nonzero;display:inline;overflow:visible;visibility:visible;isolation:auto;mix-blend-mode:normal;color-interpolation:sRGB;color-interpolation-filters:linearRGB;solid-color:#000000;solid-opacity:1;vector-effect:none;fill:#000000;fill-opacity:1;fill-rule:nonzero;stroke:none;stroke-width:5.769;stroke-linecap:butt;stroke-linejoin:miter;stroke-miterlimit:4;stroke-dasharray:none;stroke-dashoffset:0;stroke-opacity:1;-inkscape-stroke:none;color-rendering:auto;image-rendering:auto;shape-rendering:auto;text-rendering:auto;enable-background:accumulate;stop-color:#000000"
         d="m 148.80473,152.07797 a 0.90414372,0.90414372 0 0 1 -0.90417,0.90411 0.90414372,0.90414372 0 0 1 -0.90412,-0.90411 0.90414372,0.90414372 0 0 1 0.90412,-0.90412 0.90414372,0.90414372 0 0 1 0.90417,0.90412 z" />
      <path
         id="path15-1-8"
         style="color:#000000;font-style:normal;font-variant:normal;font-weight:normal;font-stretch:normal;font-size:medium;line-height:normal;font-family:sans-serif;font-variant-ligatures:normal;font-variant-position:normal;font-variant-caps:normal;font-variant-numeric:normal;font-variant-alternates:normal;font-variant-east-asian:normal;font-feature-settings:normal;font-variation-settings:normal;text-indent:0;text-align:start;text-decoration-line:none;text-decoration-style:solid;text-decoration-color:#000000;letter-spacing:normal;word-spacing:normal;text-transform:none;writing-mode:lr-tb;direction:ltr;text-orientation:mixed;dominant-baseline:auto;baseline-shift:baseline;text-anchor:start;white-space:normal;shape-padding:0;shape-margin:0;inline-size:0;clip-rule:nonzero;display:inline;overflow:visible;visibility:visible;isolation:auto;mix-blend-mode:normal;color-interpolation:sRGB;color-interpolation-filters:linearRGB;solid-color:#000000;solid-opacity:1;vector-effect:none;fill:#000000;fill-opacity:1;fill-rule:nonzero;stroke:none;stroke-width:5.769;stroke-linecap:butt;stroke-linejoin:miter;stroke-miterlimit:4;stroke-dasharray:none;stroke-dashoffset:0;stroke-opacity:1;-inkscape-stroke:none;color-rendering:auto;image-rendering:auto;shape-rendering:auto;text-rendering:auto;enable-background:accumulate;stop-color:#000000"
         d="m 148.80473,155.78085 a 0.90414372,0.90414372 0 0 1 -0.90417,0.90418 0.90414372,0.90414372 0 0 1 -0.90412,-0.90418 0.90414372,0.90414372 0 0 1 0.90412,-0.90411 0.90414372,0.90414372 0 0 1 0.90417,0.90411 z" />
      <path
         id="path15-4-0"
         style="color:#000000;font-style:normal;font-variant:normal;font-weight:normal;font-stretch:normal;font-size:medium;line-height:normal;font-family:sans-serif;font-variant-ligatures:normal;font-variant-position:normal;font-variant-caps:normal;font-variant-numeric:normal;font-variant-alternates:normal;font-variant-east-asian:normal;font-feature-settings:normal;font-variation-settings:normal;text-indent:0;text-align:start;text-decoration-line:none;text-decoration-style:solid;text-decoration-color:#000000;letter-spacing:normal;word-spacing:normal;text-transform:none;writing-mode:lr-tb;direction:ltr;text-orientation:mixed;dominant-baseline:auto;baseline-shift:baseline;text-anchor:start;white-space:normal;shape-padding:0;shape-margin:0;inline-size:0;clip-rule:nonzero;display:inline;overflow:visible;visibility:visible;isolation:auto;mix-blend-mode:normal;color-interpolation:sRGB;color-interpolation-filters:linearRGB;solid-color:#000000;solid-opacity:1;vector-effect:none;fill:#000000;fill-opacity:1;fill-rule:nonzero;stroke:none;stroke-width:5.769;stroke-linecap:butt;stroke-linejoin:miter;stroke-miterlimit:4;stroke-dasharray:none;stroke-dashoffset:0;stroke-opacity:1;-inkscape-stroke:none;color-rendering:auto;image-rendering:auto;shape-rendering:auto;text-rendering:auto;enable-background:accumulate;stop-color:#000000"
         d="m 148.80473,159.48374 a 0.90414372,0.90414372 0 0 1 -0.90417,0.90418 0.90414372,0.90414372 0 0 1 -0.90412,-0.90418 0.90414372,0.90414372 0 0 1 0.90412,-0.90412 0.90414372,0.90414372 0 0 1 0.90417,0.90412 z" />
      <g
         id="path235-09"
         transform="matrix(0,5.7689958,-5.7689958,0,1222.7075,-638.17251)">
        <path
           style="fill:#070000"
           d="m 133.79293,201.38804 h 0.50132 l -0.25066,-0.48762 z"
           id="path300" />
        <path
           d="m 134.04297,200.80664 -0.32031,0.62305 h 0.64062 z m 0,0.1875 0.18164,0.35156 h -0.36133 z"
           id="path301" />
      </g>
      <path
         d="m 47.169922,134.87109 v 0.5 h 14.220703 v -0.5 z"
         id="path1" />
      <g
         id="path235-09-1"
         transform="matrix(0,5.7689958,-5.7689958,0,1342.1259,-638.01831)">
        <path
           style="fill:#070000"
           d="m 133.79293,201.38804 h 0.50132 l -0.25066,-0.48762 z"
           id="path300-5" />
        <path
           d="m 134.04297,200.80664 -0.32031,0.62305 h 0.64062 z m 0,0.1875 0.18164,0.35156 h -0.36133 z"
           id="path301-0" />
      </g>
      <path
         d="m 166.58789,135.02539 v 0.5 h 14.2207 v -0.5 z"
         id="path1-3" />
      <g
         id="path235-09-2"
         transform="matrix(0,5.7689958,-5.7689958,0,1342.1259,-629.09318)">
        <path
           style="fill:#070000"
           d="m 133.79293,201.38804 h 0.50132 l -0.25066,-0.48762 z"
           id="path300-9" />
        <path
           d="m 134.04297,200.80664 -0.32031,0.62305 h 0.64062 z m 0,0.1875 0.18164,0.35156 h -0.36133 z"
           id="path301-3" />
      </g>
      <path
         d="m 166.58789,143.94922 v 0.5 h 14.2207 v -0.5 z"
         id="path1-4" />
      <path
         style="-inkscape-font-specification:Consolas;stroke-width:0.5"
         d="m 66.719983,135.22555 q 0,-0.35278 0.09646,-0.62563 0.09646,-0.2756 0.272851,-0.46302 0.179145,-0.19017 0.427191,-0.28663 0.250803,-0.0992 0.556728,-0.0992 0.132291,0 0.25907,0.0165 0.129536,0.0165 0.253559,0.0524 v -1.16306 h 0.482313 v 3.89433 h -0.429947 l -0.01654,-0.52365 q -0.201193,0.29214 -0.435459,0.4327 -0.234267,0.14056 -0.507118,0.14056 -0.237023,0 -0.418923,-0.0992 -0.179145,-0.0992 -0.300413,-0.27836 -0.118511,-0.1819 -0.179144,-0.43546 -0.06063,-0.25356 -0.06063,-0.56224 z m 0.490581,-0.0303 q 0,0.5016 0.146072,0.74965 0.148828,0.24529 0.418923,0.24529 0.181901,0 0.383095,-0.16261 0.203949,-0.16261 0.427191,-0.48231 v -1.28433 q -0.118511,-0.0551 -0.261827,-0.0827 -0.143316,-0.0303 -0.283875,-0.0303 -0.391363,0 -0.611849,0.25356 -0.21773,0.25355 -0.21773,0.79375 z m 4.530986,1.35598 -0.01102,-0.37207 q -0.225998,0.22325 -0.460264,0.32246 -0.231511,0.0992 -0.487825,0.0992 -0.237023,0 -0.405143,-0.0606 -0.168121,-0.0606 -0.278364,-0.16537 -0.107487,-0.10748 -0.159852,-0.2508 -0.04961,-0.14331 -0.04961,-0.31143 0,-0.41617 0.308681,-0.65044 0.311436,-0.23702 0.917773,-0.23702 h 0.573263 v -0.24253 q 0,-0.2453 -0.157096,-0.39137 -0.157096,-0.14883 -0.479557,-0.14883 -0.234266,0 -0.463021,0.0524 -0.225998,0.0524 -0.468532,0.14883 v -0.43271 q 0.09095,-0.0331 0.201193,-0.0634 0.112999,-0.0331 0.237023,-0.0579 0.124023,-0.0248 0.259071,-0.0386 0.135047,-0.0165 0.272851,-0.0165 0.250803,0 0.451996,0.0551 0.201193,0.0551 0.338997,0.16812 0.14056,0.113 0.214974,0.28387 0.07441,0.17088 0.07441,0.40239 v 1.9072 z m -0.05237,-1.25952 h -0.609092 q -0.179145,0 -0.308681,0.0358 -0.129535,0.0358 -0.212217,0.10197 -0.08268,0.0662 -0.124024,0.15985 -0.03858,0.0909 -0.03858,0.20671 0,0.0799 0.02481,0.15434 0.0248,0.0717 0.07993,0.12954 0.05512,0.0551 0.143316,0.0882 0.08819,0.0331 0.214974,0.0331 0.165364,0 0.377582,-0.0992 0.214974,-0.10197 0.451996,-0.3197 z m 1.237477,-0.0661 q 0,-0.35278 0.09646,-0.62563 0.09646,-0.2756 0.272851,-0.46302 0.179145,-0.19017 0.427192,-0.28663 0.250803,-0.0992 0.556727,-0.0992 0.132291,0 0.259071,0.0165 0.129535,0.0165 0.253559,0.0524 v -1.16306 h 0.482313 v 3.89433 h -0.42994 l -0.01654,-0.52365 q -0.201194,0.29214 -0.43546,0.4327 -0.234266,0.14056 -0.507118,0.14056 -0.237022,0 -0.418923,-0.0992 -0.179145,-0.0992 -0.300412,-0.27836 -0.118511,-0.1819 -0.179145,-0.43546 -0.06063,-0.25356 -0.06063,-0.56224 z m 0.490582,-0.0303 q 0,0.5016 0.146072,0.74965 0.148828,0.24529 0.418923,0.24529 0.181901,0 0.383094,-0.16261 0.20395,-0.16261 0.427192,-0.48231 V 134.261 q -0.118512,-0.0551 -0.261827,-0.0827 -0.143316,-0.0303 -0.283876,-0.0303 -0.391363,0 -0.611849,0.25356 -0.217729,0.25355 -0.217729,0.79375 z m 2.612758,0.0303 q 0,-0.35278 0.09646,-0.62563 0.09646,-0.2756 0.272852,-0.46302 0.179144,-0.19017 0.427191,-0.28663 0.250803,-0.0992 0.556727,-0.0992 0.132292,0 0.259071,0.0165 0.129536,0.0165 0.253559,0.0524 v -1.16306 h 0.482313 v 3.89433 h -0.429948 l -0.01654,-0.52365 q -0.201194,0.29214 -0.43546,0.4327 -0.234266,0.14056 -0.507118,0.14056 -0.237022,0 -0.418923,-0.0992 -0.179145,-0.0992 -0.300412,-0.27836 -0.118511,-0.1819 -0.179145,-0.43546 -0.06063,-0.25356 -0.06063,-0.56224 z m 0.490581,-0.0303 q 0,0.5016 0.146072,0.74965 0.148828,0.24529 0.418923,0.24529 0.181901,0 0.383094,-0.16261 0.20395,-0.16261 0.427192,-0.48231 V 134.261 q -0.118511,-0.0551 -0.261827,-0.0827 -0.143316,-0.0303 -0.283876,-0.0303 -0.391362,0 -0.611848,0.25356 -0.21773,0.25355 -0.21773,0.79375 z m 2.866318,-1.41111 h 0.438215 l 0.01378,0.50987 q 0.24529,-0.2949 0.482313,-0.42719 0.239778,-0.13229 0.482313,-0.13229 0.429947,0 0.650433,0.27836 0.223242,0.27836 0.206706,0.82682 h -0.485069 q 0.0083,-0.3638 -0.107487,-0.52641 -0.112999,-0.16536 -0.333485,-0.16536 -0.09646,0 -0.195681,0.0358 -0.09646,0.0331 -0.201194,0.11024 -0.101975,0.0744 -0.21773,0.19292 -0.115755,0.11852 -0.248046,0.28664 v 1.77766 h -0.485069 z m 5.652708,3.89708 H 81.93627 v -0.39687 h 3.103339 z m 1.383548,-3.50021 h -0.818554 v -0.39687 h 1.303623 v 2.36746 h 0.824067 v 0.39963 h -2.21864 v -0.39963 h 0.909504 z m 0.168121,-1.55718 q 0.07993,0 0.148828,0.0303 0.0689,0.0276 0.118511,0.0799 0.05237,0.0524 0.07993,0.12127 0.03032,0.0661 0.03032,0.14607 0,0.0772 -0.03032,0.14607 -0.02756,0.0689 -0.07993,0.12127 -0.04961,0.0524 -0.118511,0.0827 -0.0689,0.0276 -0.148828,0.0276 -0.07993,0 -0.148828,-0.0276 -0.0689,-0.0303 -0.121267,-0.0827 -0.04961,-0.0524 -0.07993,-0.12127 -0.02756,-0.0689 -0.02756,-0.14607 0,-0.0799 0.02756,-0.14607 0.03032,-0.0689 0.07993,-0.12127 0.05236,-0.0524 0.121267,-0.0799 0.0689,-0.0303 0.148828,-0.0303 z m 1.992642,1.16031 h 0.427192 l 0.01929,0.44648 q 0.121267,-0.14332 0.234266,-0.23702 0.112999,-0.0965 0.220486,-0.15434 0.110243,-0.0579 0.223242,-0.0799 0.112999,-0.0248 0.234267,-0.0248 0.427191,0 0.644921,0.25355 0.220486,0.25081 0.220486,0.75793 v 1.80522 h -0.479557 v -1.76664 q 0,-0.32522 -0.121267,-0.47956 -0.121267,-0.15709 -0.361046,-0.15709 -0.08819,0 -0.173633,0.0276 -0.08268,0.0248 -0.173632,0.0909 -0.09095,0.0634 -0.198438,0.17363 -0.10473,0.11024 -0.237022,0.27561 v 1.83554 h -0.47955 z m 8.075299,3.89708 h -1.358745 v -5.12078 h 1.358745 v 0.38585 h -0.901237 v 4.34908 h 0.901237 z m 3.615976,-2.271 q 0,0.24805 -0.0909,0.46578 -0.0882,0.21773 -0.253566,0.38033 -0.165364,0.15986 -0.39963,0.25356 -0.231511,0.0909 -0.515386,0.0909 -0.297656,0 -0.52641,-0.0937 -0.228755,-0.0965 -0.383095,-0.29215 -0.15434,-0.19843 -0.234266,-0.49885 -0.07993,-0.30041 -0.07993,-0.71106 0,-0.27561 0.03583,-0.53468 0.03583,-0.25907 0.118511,-0.48783 0.08268,-0.22875 0.220486,-0.41892 0.137804,-0.19017 0.341753,-0.32522 0.206706,-0.1378 0.485069,-0.21222 0.278364,-0.0772 0.644922,-0.0772 h 0.355533 v 0.41893 h -0.38585 q -0.322461,0 -0.559483,0.0772 -0.237023,0.0772 -0.396875,0.21773 -0.159852,0.14056 -0.245291,0.339 -0.08544,0.19843 -0.107487,0.44372 l -0.01102,0.113 q 0.173633,-0.10197 0.399631,-0.16261 0.228754,-0.0634 0.493337,-0.0634 0.272852,0 0.476801,0.0799 0.206706,0.0799 0.341753,0.22324 0.137803,0.14056 0.206713,0.339 0.0689,0.19844 0.0689,0.43546 z m -0.501612,0.0303 q 0,-0.16537 -0.04134,-0.29766 -0.03858,-0.13505 -0.124023,-0.226 -0.08544,-0.0937 -0.21773,-0.14331 -0.129536,-0.0524 -0.311437,-0.0524 -0.10473,0 -0.212217,0.0193 -0.107487,0.0193 -0.212218,0.0551 -0.101975,0.0331 -0.195681,0.0772 -0.09371,0.0441 -0.170877,0.0937 0,0.35553 0.04961,0.59531 0.04961,0.23703 0.146072,0.38034 0.09922,0.14332 0.242535,0.20395 0.143316,0.0606 0.330729,0.0606 0.157096,0 0.286632,-0.0496 0.132291,-0.0524 0.225998,-0.15159 0.09646,-0.0992 0.148828,-0.23978 0.05512,-0.14331 0.05512,-0.32521 z m 2.334402,-1.70601 q 0.0854,0 0.16261,0.0358 0.0772,0.0331 0.13504,0.091 0.0579,0.0579 0.091,0.13504 0.0358,0.0772 0.0358,0.16261 0,0.0882 -0.0358,0.16537 -0.0331,0.0744 -0.091,0.13229 -0.0579,0.0579 -0.13504,0.0909 -0.0772,0.0331 -0.16261,0.0331 -0.0882,0 -0.16537,-0.0331 -0.0744,-0.0331 -0.13229,-0.0909 -0.0579,-0.0579 -0.091,-0.13229 -0.0331,-0.0772 -0.0331,-0.16537 0,-0.0854 0.0331,-0.16261 0.0331,-0.0772 0.091,-0.13504 0.0579,-0.0579 0.13229,-0.091 0.0772,-0.0358 0.16537,-0.0358 z m 0,2.0202 q 0.0854,0 0.16261,0.0358 0.0772,0.0331 0.13504,0.0909 0.0579,0.0579 0.091,0.13505 0.0358,0.0772 0.0358,0.1626 0,0.0882 -0.0358,0.16537 -0.0331,0.0744 -0.091,0.13229 -0.0579,0.0579 -0.13504,0.0909 -0.0772,0.0331 -0.16261,0.0331 -0.0882,0 -0.16537,-0.0331 -0.0744,-0.0331 -0.13229,-0.0909 -0.0579,-0.0579 -0.091,-0.13229 -0.0331,-0.0772 -0.0331,-0.16537 0,-0.0854 0.0331,-0.1626 0.0331,-0.0772 0.091,-0.13505 0.0579,-0.0579 0.13229,-0.0909 0.0772,-0.0358 0.16537,-0.0358 z m 4.41247,-1.00321 q 0,0.41341 -0.0827,0.75516 -0.0827,0.339 -0.2508,0.58429 -0.16813,0.24253 -0.41893,0.37758 -0.24804,0.13229 -0.58429,0.13229 -0.28938,0 -0.52641,-0.10748 -0.23702,-0.11025 -0.40514,-0.33624 -0.16812,-0.226 -0.25907,-0.57602 -0.0909,-0.35003 -0.0909,-0.82958 0,-0.41341 0.0827,-0.75517 0.0854,-0.34175 0.2508,-0.58428 0.16813,-0.2453 0.41893,-0.37759 0.2508,-0.13504 0.58429,-0.13504 0.28938,0 0.52641,0.11024 0.23702,0.10749 0.40514,0.33624 0.16812,0.226 0.25907,0.57602 0.0909,0.35002 0.0909,0.82958 z m -0.48507,0.0165 q 0,-0.0937 -0.008,-0.18465 -0.006,-0.0937 -0.0138,-0.1819 l -1.52411,1.13274 q 0.0413,0.14332 0.10473,0.26459 0.0634,0.12126 0.15159,0.20946 0.0909,0.0854 0.20395,0.13504 0.11575,0.0469 0.26182,0.0469 0.18742,0 0.339,-0.0909 0.15434,-0.0909 0.26183,-0.2701 0.10749,-0.17914 0.16536,-0.44373 0.0579,-0.26733 0.0579,-0.61736 z m -1.64813,-0.0331 q 0,0.0854 0,0.17088 0.003,0.0854 0.011,0.16536 l 1.52411,-1.12723 q -0.0413,-0.14056 -0.10473,-0.25632 -0.0634,-0.11575 -0.15158,-0.19843 -0.0882,-0.0854 -0.2012,-0.1323 -0.113,-0.0469 -0.25356,-0.0469 -0.18741,0 -0.34175,0.0909 -0.15158,0.091 -0.25907,0.27285 -0.10749,0.17915 -0.16536,0.44649 -0.0579,0.26458 -0.0579,0.6146 z m 4.52823,2.94624 h -1.35875 v -0.38585 h 0.89573 v -4.34908 h -0.89573 v -0.38585 h 1.35875 z"
         id="text1"
         aria-label="daddr_in [6:0]" />
      <path
         style="-inkscape-font-specification:Consolas;stroke-width:0.5"
         d="m 135.85379,135.32325 q 0,-0.35277 0.0965,-0.62562 0.0965,-0.27561 0.27285,-0.46303 0.17915,-0.19016 0.42719,-0.28663 0.25081,-0.0992 0.55673,-0.0992 0.13229,0 0.25907,0.0165 0.12954,0.0165 0.25356,0.0524 v -1.16307 h 0.48231 v 3.89434 h -0.42994 l -0.0165,-0.52366 q -0.20119,0.29215 -0.43546,0.43271 -0.23427,0.14056 -0.50712,0.14056 -0.23702,0 -0.41892,-0.0992 -0.17915,-0.0992 -0.30041,-0.27837 -0.11852,-0.1819 -0.17915,-0.43546 -0.0606,-0.25356 -0.0606,-0.56224 z m 0.49058,-0.0303 q 0,0.5016 0.14607,0.74965 0.14883,0.24529 0.41892,0.24529 0.1819,0 0.3831,-0.16261 0.20395,-0.16261 0.42719,-0.48231 v -1.28433 q -0.11851,-0.0551 -0.26183,-0.0827 -0.14331,-0.0303 -0.28387,-0.0303 -0.39137,0 -0.61185,0.25356 -0.21773,0.25356 -0.21773,0.79375 z m 2.86632,-1.41111 h 0.43821 l 0.0138,0.50987 q 0.24529,-0.2949 0.48232,-0.42719 0.23977,-0.13229 0.48231,-0.13229 0.42995,0 0.65043,0.27836 0.22324,0.27836 0.20671,0.82682 h -0.48507 q 0.008,-0.3638 -0.10749,-0.52641 -0.113,-0.16536 -0.33348,-0.16536 -0.0965,0 -0.19569,0.0358 -0.0965,0.0331 -0.20119,0.11024 -0.10197,0.0744 -0.21773,0.19293 -0.11575,0.11851 -0.24805,0.28663 v 1.77767 h -0.48506 z m 2.84978,1.44142 q 0,-0.35277 0.0965,-0.62562 0.0965,-0.27561 0.27285,-0.46303 0.17915,-0.19016 0.42719,-0.28663 0.2508,-0.0992 0.55673,-0.0992 0.13229,0 0.25907,0.0165 0.12954,0.0165 0.25356,0.0524 v -1.16307 h 0.48231 v 3.89434 h -0.42995 l -0.0165,-0.52366 q -0.2012,0.29215 -0.43546,0.43271 -0.23427,0.14056 -0.50712,0.14056 -0.23702,0 -0.41892,-0.0992 -0.17915,-0.0992 -0.30041,-0.27837 -0.11852,-0.1819 -0.17915,-0.43546 -0.0606,-0.25356 -0.0606,-0.56224 z m 0.49058,-0.0303 q 0,0.5016 0.14607,0.74965 0.14883,0.24529 0.41892,0.24529 0.1819,0 0.3831,-0.16261 0.20395,-0.16261 0.42719,-0.48231 v -1.28433 q -0.11851,-0.0551 -0.26183,-0.0827 -0.14331,-0.0303 -0.28387,-0.0303 -0.39137,0 -0.61185,0.25356 -0.21773,0.25356 -0.21773,0.79375 z m 5.21449,-1.41111 -0.94258,2.47495 q -0.14607,0.37758 -0.30317,0.65044 -0.15434,0.27285 -0.33899,0.44648 -0.18466,0.17639 -0.40515,0.25907 -0.22048,0.0827 -0.49333,0.0827 -0.0717,0 -0.12954,-0.003 -0.0579,-0.003 -0.12678,-0.008 v -0.43546 q 0.0606,0.008 0.13229,0.0138 0.0717,0.008 0.15159,0.008 0.13229,0 0.24529,-0.0386 0.11575,-0.0386 0.21773,-0.12678 0.10197,-0.0854 0.19568,-0.22324 0.0937,-0.1378 0.1819,-0.33348 l -1.10519,-2.7671 h 0.54571 l 0.70004,1.83003 0.14056,0.42995 0.15985,-0.44097 0.64768,-1.81901 z m 3.30453,3.89709 h -3.10334 v -0.39688 h 3.10334 z m 2.84978,-2.53559 q 0,0.32246 -0.0909,0.59255 -0.0909,0.26734 -0.26182,0.46027 -0.17088,0.19017 -0.41617,0.29765 -0.24529,0.10474 -0.55673,0.10474 -0.29765,0 -0.53468,-0.091 -0.23426,-0.0937 -0.39963,-0.27285 -0.1626,-0.17914 -0.2508,-0.44372 -0.0854,-0.26459 -0.0854,-0.6091 0,-0.32246 0.0909,-0.58704 0.0909,-0.26734 0.26183,-0.45751 0.17088,-0.19292 0.41617,-0.29766 0.24529,-0.10748 0.55672,-0.10748 0.29766,0 0.53193,0.0937 0.23702,0.091 0.39963,0.2701 0.16536,0.17639 0.2508,0.44097 0.0882,0.26458 0.0882,0.60634 z m -0.49058,0.0221 q 0,-0.25632 -0.0579,-0.44649 -0.0551,-0.19292 -0.15986,-0.3197 -0.10473,-0.12954 -0.25631,-0.19293 -0.14883,-0.0661 -0.33349,-0.0661 -0.21497,0 -0.36931,0.0854 -0.15158,0.0827 -0.2508,0.22324 -0.0965,0.14056 -0.14332,0.32797 -0.0441,0.18466 -0.0441,0.38861 0,0.25631 0.0551,0.44924 0.0579,0.19292 0.1626,0.32246 0.10473,0.12678 0.25356,0.19292 0.14883,0.0634 0.33624,0.0634 0.21498,0 0.36656,-0.0827 0.15434,-0.0854 0.2508,-0.226 0.0992,-0.14056 0.14332,-0.32521 0.0469,-0.18742 0.0469,-0.39412 z m 3.40927,1.38355 h -0.42995 l -0.0165,-0.44649 q -0.12402,0.14332 -0.23702,0.23978 -0.11024,0.0937 -0.22049,0.15158 -0.11024,0.0579 -0.22324,0.0799 -0.11024,0.0248 -0.23426,0.0248 -0.4272,0 -0.64493,-0.25081 -0.21773,-0.2508 -0.21773,-0.75792 v -1.80798 h 0.47956 v 1.7694 q 0,0.63665 0.47956,0.63665 0.0882,0 0.17087,-0.0248 0.0854,-0.0276 0.17639,-0.091 0.0937,-0.0661 0.19844,-0.17638 0.10749,-0.11025 0.23978,-0.27837 v -1.83554 h 0.47956 z m 3.10885,-0.0386 q -0.16261,0.0413 -0.33624,0.0579 -0.17364,0.0193 -0.35278,0.0193 -0.5209,0 -0.77721,-0.23427 -0.25632,-0.23702 -0.25632,-0.72484 v -1.44419 h -0.77445 v -0.40238 h 0.77445 v -0.76068 l 0.47956,-0.12402 v 0.8847 h 1.24299 v 0.40238 h -1.24299 v 1.4056 q 0,0.29766 0.1571,0.44649 0.15985,0.14607 0.46853,0.14607 0.13229,0 0.28939,-0.0193 0.15709,-0.0221 0.32797,-0.0661 z"
         id="text1-9"
         aria-label="drdy_out" />
      <path
         style="-inkscape-font-specification:Consolas;stroke-width:0.5"
         d="m 120.85522,144.30488 q 0,-0.35278 0.0965,-0.62563 0.0965,-0.2756 0.27286,-0.46302 0.17914,-0.19017 0.42719,-0.28663 0.2508,-0.0992 0.55672,-0.0992 0.1323,0 0.25908,0.0165 0.12953,0.0165 0.25355,0.0524 v -1.16306 h 0.48232 v 3.89433 h -0.42995 l -0.0165,-0.52365 q -0.20119,0.29214 -0.43546,0.4327 -0.23426,0.14056 -0.50711,0.14056 -0.23703,0 -0.41893,-0.0992 -0.17914,-0.0992 -0.30041,-0.27836 -0.11851,-0.1819 -0.17914,-0.43546 -0.0606,-0.25356 -0.0606,-0.56224 z m 0.49058,-0.0303 q 0,0.5016 0.14607,0.74965 0.14883,0.24529 0.41893,0.24529 0.1819,0 0.38309,-0.16261 0.20395,-0.16261 0.42719,-0.48231 v -1.28433 q -0.11851,-0.0551 -0.26182,-0.0827 -0.14332,-0.0303 -0.28388,-0.0303 -0.39136,0 -0.61185,0.25356 -0.21773,0.25356 -0.21773,0.79375 z m 5.16213,-0.0496 q 0,0.32246 -0.091,0.59255 -0.0909,0.26734 -0.26183,0.46027 -0.17087,0.19017 -0.41616,0.29765 -0.2453,0.10473 -0.55673,0.10473 -0.29766,0 -0.53468,-0.0909 -0.23427,-0.0937 -0.39963,-0.27285 -0.16261,-0.17914 -0.2508,-0.44373 -0.0854,-0.26458 -0.0854,-0.60909 0,-0.32246 0.091,-0.58704 0.0909,-0.26734 0.26183,-0.45751 0.17087,-0.19293 0.41616,-0.29766 0.24529,-0.10748 0.55673,-0.10748 0.29766,0 0.53192,0.0937 0.23702,0.091 0.39963,0.2701 0.16537,0.17639 0.25081,0.44097 0.0882,0.26458 0.0882,0.60634 z m -0.49058,0.022 q 0,-0.25631 -0.0579,-0.44648 -0.0551,-0.19292 -0.15985,-0.3197 -0.10473,-0.12954 -0.25632,-0.19293 -0.14882,-0.0661 -0.33348,-0.0661 -0.21497,0 -0.36931,0.0854 -0.15159,0.0827 -0.25081,0.22325 -0.0965,0.14056 -0.14331,0.32797 -0.0441,0.18466 -0.0441,0.3886 0,0.25632 0.0551,0.44925 0.0579,0.19292 0.16261,0.32246 0.10473,0.12678 0.25356,0.19292 0.14883,0.0634 0.33624,0.0634 0.21497,0 0.36656,-0.0827 0.15434,-0.0854 0.2508,-0.226 0.0992,-0.14056 0.14332,-0.32522 0.0468,-0.18741 0.0468,-0.39412 z m 3.84748,2.51354 h -3.10334 v -0.39687 h 3.10334 z m 2.84978,-2.53558 q 0,0.32246 -0.0909,0.59255 -0.0909,0.26734 -0.26183,0.46027 -0.17088,0.19017 -0.41617,0.29765 -0.24529,0.10473 -0.55672,0.10473 -0.29766,0 -0.53468,-0.0909 -0.23427,-0.0937 -0.39963,-0.27285 -0.16261,-0.17914 -0.2508,-0.44373 -0.0854,-0.26458 -0.0854,-0.60909 0,-0.32246 0.0909,-0.58704 0.0909,-0.26734 0.26182,-0.45751 0.17088,-0.19293 0.41617,-0.29766 0.24529,-0.10748 0.55673,-0.10748 0.29765,0 0.53192,0.0937 0.23702,0.091 0.39963,0.2701 0.16537,0.17639 0.2508,0.44097 0.0882,0.26458 0.0882,0.60634 z m -0.49058,0.022 q 0,-0.25631 -0.0579,-0.44648 -0.0551,-0.19292 -0.15985,-0.3197 -0.10473,-0.12954 -0.25632,-0.19293 -0.14883,-0.0661 -0.33348,-0.0661 -0.21498,0 -0.36932,0.0854 -0.15158,0.0827 -0.2508,0.22325 -0.0965,0.14056 -0.14331,0.32797 -0.0441,0.18466 -0.0441,0.3886 0,0.25632 0.0551,0.44925 0.0579,0.19292 0.16261,0.32246 0.10473,0.12678 0.25356,0.19292 0.14882,0.0634 0.33624,0.0634 0.21497,0 0.36656,-0.0827 0.15434,-0.0854 0.2508,-0.226 0.0992,-0.14056 0.14331,-0.32522 0.0469,-0.18741 0.0469,-0.39412 z m 3.40926,1.38355 h -0.42995 l -0.0165,-0.44648 q -0.12403,0.14332 -0.23702,0.23978 -0.11025,0.0937 -0.22049,0.15158 -0.11024,0.0579 -0.22324,0.0799 -0.11025,0.0248 -0.23427,0.0248 -0.42719,0 -0.64492,-0.2508 -0.21773,-0.2508 -0.21773,-0.75792 v -1.80798 h 0.47956 v 1.7694 q 0,0.63665 0.47955,0.63665 0.0882,0 0.17088,-0.0248 0.0854,-0.0276 0.17639,-0.0909 0.0937,-0.0661 0.19844,-0.17639 0.10748,-0.11024 0.23978,-0.27836 v -1.83554 h 0.47955 z m 3.10885,-0.0386 q -0.1626,0.0413 -0.33624,0.0579 -0.17363,0.0193 -0.35277,0.0193 -0.5209,0 -0.77722,-0.23427 -0.25631,-0.23702 -0.25631,-0.72484 v -1.44419 h -0.77446 v -0.40238 h 0.77446 v -0.76068 l 0.47955,-0.12402 v 0.8847 h 1.24299 v 0.40238 h -1.24299 v 1.4056 q 0,0.29766 0.1571,0.44648 0.15985,0.14608 0.46853,0.14608 0.1323,0 0.28939,-0.0193 0.1571,-0.022 0.32797,-0.0661 z m 5.84564,1.16857 h -1.35875 v -5.12078 h 1.35875 v 0.38585 h -0.90124 v 4.34908 h 0.90124 z m 3.54155,-1.12999 h -2.26273 v -0.44648 h 0.92604 v -2.62929 l -0.86265,0.46853 -0.17639,-0.4079 1.14652,-0.60358 h 0.42444 v 3.17224 h 0.80477 z m 3.04271,-1.15203 q 0,0.26733 -0.11576,0.48782 -0.11575,0.22049 -0.3197,0.38034 -0.20119,0.15709 -0.4768,0.24529 -0.27561,0.0882 -0.59531,0.0882 -0.0799,0 -0.17364,-0.006 -0.0909,-0.003 -0.1819,-0.011 -0.0909,-0.006 -0.17914,-0.0138 -0.0854,-0.008 -0.15434,-0.0193 v -0.43546 q 0.14883,0.0358 0.339,0.0524 0.19292,0.0165 0.3886,0.0165 0.22049,0 0.39688,-0.0524 0.17639,-0.0524 0.30041,-0.14883 0.12402,-0.0992 0.19017,-0.23702 0.0661,-0.14056 0.0661,-0.31419 0,-0.33624 -0.24253,-0.48783 -0.23978,-0.15434 -0.69178,-0.15434 h -0.6835 v -1.84105 h 1.94027 v 0.41892 h -1.48828 v 1.01148 h 0.3142 q 0.25907,0 0.50436,0.0469 0.24529,0.0469 0.43546,0.16537 0.19292,0.11575 0.30868,0.31419 0.11851,0.19568 0.11851,0.49334 z m 1.96784,-1.66467 q 0.0854,0 0.16261,0.0358 0.0772,0.0331 0.13504,0.0909 0.0579,0.0579 0.0909,0.13504 0.0358,0.0772 0.0358,0.16261 0,0.0882 -0.0358,0.16537 -0.0331,0.0744 -0.0909,0.13229 -0.0579,0.0579 -0.13504,0.0909 -0.0772,0.0331 -0.16261,0.0331 -0.0882,0 -0.16537,-0.0331 -0.0744,-0.0331 -0.13229,-0.0909 -0.0579,-0.0579 -0.0909,-0.13229 -0.0331,-0.0772 -0.0331,-0.16537 0,-0.0854 0.0331,-0.16261 0.0331,-0.0772 0.0909,-0.13504 0.0579,-0.0579 0.13229,-0.0909 0.0772,-0.0358 0.16537,-0.0358 z m 0,2.0202 q 0.0854,0 0.16261,0.0358 0.0772,0.0331 0.13504,0.0909 0.0579,0.0579 0.0909,0.13505 0.0358,0.0772 0.0358,0.1626 0,0.0882 -0.0358,0.16537 -0.0331,0.0744 -0.0909,0.13229 -0.0579,0.0579 -0.13504,0.0909 -0.0772,0.0331 -0.16261,0.0331 -0.0882,0 -0.16537,-0.0331 -0.0744,-0.0331 -0.13229,-0.0909 -0.0579,-0.0579 -0.0909,-0.13229 -0.0331,-0.0772 -0.0331,-0.16537 0,-0.0854 0.0331,-0.1626 0.0331,-0.0772 0.0909,-0.13505 0.0579,-0.0579 0.13229,-0.0909 0.0772,-0.0358 0.16537,-0.0358 z m 4.41247,-1.00321 q 0,0.41341 -0.0827,0.75516 -0.0827,0.339 -0.2508,0.58429 -0.16812,0.24253 -0.41893,0.37758 -0.24804,0.13229 -0.58428,0.13229 -0.28939,0 -0.52641,-0.10748 -0.23703,-0.11025 -0.40515,-0.33624 -0.16812,-0.226 -0.25907,-0.57602 -0.0909,-0.35003 -0.0909,-0.82958 0,-0.41341 0.0827,-0.75517 0.0854,-0.34175 0.25081,-0.58428 0.16812,-0.2453 0.41892,-0.37759 0.2508,-0.13504 0.58429,-0.13504 0.28939,0 0.52641,0.11024 0.23702,0.10749 0.40514,0.33624 0.16812,0.226 0.25907,0.57602 0.0909,0.35002 0.0909,0.82958 z m -0.48507,0.0165 q 0,-0.0937 -0.008,-0.18465 -0.006,-0.0937 -0.0138,-0.1819 l -1.5241,1.13274 q 0.0413,0.14332 0.10473,0.26459 0.0634,0.12126 0.15158,0.20946 0.0909,0.0854 0.20395,0.13505 0.11576,0.0469 0.26183,0.0469 0.18741,0 0.33899,-0.0909 0.15434,-0.0909 0.26183,-0.2701 0.10749,-0.17914 0.16537,-0.44373 0.0579,-0.26733 0.0579,-0.61736 z m -1.64813,-0.0331 q 0,0.0854 0,0.17088 0.003,0.0854 0.011,0.16536 l 1.5241,-1.12723 q -0.0413,-0.14056 -0.10473,-0.25632 -0.0634,-0.11575 -0.15158,-0.19843 -0.0882,-0.0854 -0.20119,-0.1323 -0.113,-0.0469 -0.25356,-0.0469 -0.18742,0 -0.34176,0.0909 -0.15158,0.091 -0.25907,0.27285 -0.10748,0.17915 -0.16536,0.44649 -0.0579,0.26458 -0.0579,0.6146 z m 4.52823,2.94624 h -1.35875 v -0.38585 h 0.89573 v -4.34908 h -0.89573 v -0.38585 h 1.35875 z"
         id="text1-8"
         aria-label="do_out [15:0]" />
      <path
         d="m 64.251953,107.04688 v 71.50195 H 166.89844 v -71.50195 z m 0.5,0.5 H 166.39844 v 70.50195 H 64.751953 Z"
         id="rect1" />
    </g>
  </g>
</svg>
