<?xml version="1.0" encoding="UTF-8" standalone="no"?>
<!-- Created with Inkscape (http://www.inkscape.org/) -->

<svg
   width="144.3817mm"
   height="71.5mm"
   viewBox="0 0 144.3817 71.5"
   version="1.1"
   id="svg1"
   inkscape:version="1.4 (86a8ad7, 2024-10-11)"
   sodipodi:docname="Fig 6_28 TFG.svg"
   xmlns:inkscape="http://www.inkscape.org/namespaces/inkscape"
   xmlns:sodipodi="http://sodipodi.sourceforge.net/DTD/sodipodi-0.dtd"
   xmlns="http://www.w3.org/2000/svg"
   xmlns:svg="http://www.w3.org/2000/svg">
  <sodipodi:namedview
     id="namedview1"
     pagecolor="#ffffff"
     bordercolor="#000000"
     borderopacity="0.25"
     inkscape:showpageshadow="2"
     inkscape:pageopacity="0.0"
     inkscape:pagecheckerboard="0"
     inkscape:deskcolor="#d1d1d1"
     inkscape:document-units="mm"
     inkscape:zoom="0.26970574"
     inkscape:cx="593.23914"
     inkscape:cy="1141.9853"
     inkscape:window-width="1278"
     inkscape:window-height="1360"
     inkscape:window-x="1273"
     inkscape:window-y="0"
     inkscape:window-maximized="0"
     inkscape:current-layer="layer1" />
  <defs
     id="defs1" />
  <g
     inkscape:label="Capa 1"
     inkscape:groupmode="layer"
     id="layer1"
     transform="translate(-36.777344,-112.71289)">
    <g
       id="g4">
      <g
         id="path235-09"
         transform="matrix(0,5.7689958,-5.7689958,0,1212.3145,-632.5077)">
        <path
           style="fill:#070000"
           d="m 133.79293,201.38804 h 0.50132 l -0.25066,-0.48762 z"
           id="path300" />
        <path
           d="m 134.04297,200.80664 -0.32031,0.62305 h 0.64062 z m 0,0.1875 0.18164,0.35156 h -0.36133 z"
           id="path301" />
      </g>
      <path
         d="m 36.777344,140.53516 v 0.5 h 14.220703 v -0.5 z"
         id="path1" />
      <g
         id="path235-09-4"
         transform="matrix(0,5.7689958,-5.7689958,0,1212.3145,-623.65991)">
        <path
           style="fill:#070000"
           d="m 133.79293,201.38804 h 0.50132 l -0.25066,-0.48762 z"
           id="path300-1" />
        <path
           d="m 134.04297,200.80664 -0.32031,0.62305 h 0.64062 z m 0,0.1875 0.18164,0.35156 h -0.36133 z"
           id="path301-1" />
      </g>
      <path
         d="m 36.777344,149.38281 v 0.5 h 14.220703 v -0.5 z"
         id="path1-5" />
      <g
         id="path235-09-0"
         transform="matrix(0,5.7689958,-5.7689958,0,1212.3145,-614.81213)">
        <path
           style="fill:#070000"
           d="m 133.79293,201.38804 h 0.50132 l -0.25066,-0.48762 z"
           id="path300-6" />
        <path
           d="m 134.04297,200.80664 -0.32031,0.62305 h 0.64062 z m 0,0.1875 0.18164,0.35156 h -0.36133 z"
           id="path301-4" />
      </g>
      <path
         d="m 36.777344,158.23047 v 0.5 h 14.220703 v -0.5 z"
         id="path1-53" />
      <g
         id="path235-09-1"
         transform="matrix(0,5.7689958,-5.7689958,0,1339.6117,-632.3535)">
        <path
           style="fill:#070000"
           d="m 133.79293,201.38804 h 0.50132 l -0.25066,-0.48762 z"
           id="path300-5" />
        <path
           d="m 134.04297,200.80664 -0.32031,0.62305 h 0.64062 z m 0,0.1875 0.18164,0.35156 h -0.36133 z"
           id="path301-0" />
      </g>
      <path
         d="m 164.07422,140.68945 v 0.5 h 14.2207 v -0.5 z"
         id="path1-3" />
      <g
         id="path235-09-2"
         transform="matrix(0,5.7689958,-5.7689958,0,1339.6117,-623.42837)">
        <path
           style="fill:#070000"
           d="m 133.79293,201.38804 h 0.50132 l -0.25066,-0.48762 z"
           id="path300-9" />
        <path
           d="m 134.04297,200.80664 -0.32031,0.62305 h 0.64062 z m 0,0.1875 0.18164,0.35156 h -0.36133 z"
           id="path301-3" />
      </g>
      <path
         d="m 164.07422,149.61523 v 0.5 h 14.2207 v -0.5 z"
         id="path1-4" />
      <path
         style="-inkscape-font-specification:Consolas;stroke-width:0.5"
         d="m 58.697255,142.17745 q -0.162608,0.0413 -0.336241,0.0579 -0.173633,0.0193 -0.352778,0.0193 -0.520898,0 -0.777213,-0.23427 -0.256314,-0.23702 -0.256314,-0.72484 v -1.44419 h -0.774457 v -0.40238 h 0.774457 v -0.76068 l 0.479556,-0.12402 v 0.8847 h 1.24299 v 0.40238 h -1.24299 v 1.4056 q 0,0.29766 0.157097,0.44648 0.159852,0.14608 0.468532,0.14608 0.132292,0 0.289388,-0.0193 0.157096,-0.0221 0.327973,-0.0661 z m 3.210827,-1.49104 q 0,0.10198 -0.0028,0.17088 -0.0028,0.0689 -0.0083,0.12953 H 59.95395 q 0,0.42444 0.237022,0.65319 0.237023,0.226 0.683507,0.226 0.121267,0 0.242534,-0.008 0.121267,-0.011 0.234267,-0.0276 0.112999,-0.0165 0.214973,-0.0358 0.104731,-0.022 0.192926,-0.0469 v 0.39412 q -0.195682,0.0551 -0.443728,0.0882 -0.245291,0.0358 -0.509874,0.0358 -0.355534,0 -0.611849,-0.0965 -0.256315,-0.0965 -0.421679,-0.27836 -0.162608,-0.18466 -0.242535,-0.44924 -0.07717,-0.26734 -0.07717,-0.60358 0,-0.29215 0.08268,-0.55122 0.08544,-0.26183 0.24529,-0.45751 0.162609,-0.19843 0.396875,-0.31419 0.234266,-0.11575 0.531922,-0.11575 0.289388,0 0.51263,0.091 0.223242,0.0909 0.374826,0.25907 0.15434,0.16536 0.23151,0.40514 0.07993,0.23702 0.07993,0.53192 z m -0.49885,-0.0689 q 0.0083,-0.18466 -0.03583,-0.33624 -0.0441,-0.15434 -0.137804,-0.26458 -0.09095,-0.11025 -0.228754,-0.17088 -0.137803,-0.0634 -0.319704,-0.0634 -0.157097,0 -0.286632,0.0606 -0.129536,0.0606 -0.223242,0.17088 -0.09371,0.11024 -0.151584,0.26458 -0.05788,0.15434 -0.07166,0.339 z m 3.238387,1.59852 v -1.98713 q 0,-0.12953 -0.01102,-0.21221 -0.0083,-0.0827 -0.03032,-0.12954 -0.01929,-0.0496 -0.05237,-0.0689 -0.03032,-0.0193 -0.07717,-0.0193 -0.05512,0 -0.101975,0.0331 -0.04685,0.0331 -0.101975,0.10749 -0.05236,0.0744 -0.118511,0.19843 -0.06339,0.12127 -0.151584,0.30042 v 1.77766 h -0.438216 v -1.93476 q 0,-0.15158 -0.01102,-0.24529 -0.0083,-0.0937 -0.03032,-0.14607 -0.01929,-0.0524 -0.05237,-0.0717 -0.03307,-0.0193 -0.07993,-0.0193 -0.04961,0 -0.09371,0.0276 -0.0441,0.0276 -0.09922,0.0992 -0.05237,0.0717 -0.118511,0.19568 -0.06615,0.12402 -0.157096,0.31695 v 1.77766 h -0.440972 v -2.76709 h 0.366558 l 0.02205,0.52641 q 0.07166,-0.1571 0.137804,-0.26734 0.0689,-0.11025 0.14056,-0.17639 0.07166,-0.0689 0.151584,-0.0992 0.08268,-0.0331 0.181901,-0.0331 0.223242,0 0.338997,0.14607 0.115755,0.14607 0.115755,0.45199 0.06615,-0.14331 0.129536,-0.25355 0.06339,-0.113 0.135047,-0.18742 0.07441,-0.0772 0.162609,-0.11575 0.08819,-0.0413 0.203949,-0.0413 0.520898,0 0.520898,0.80201 v 2.01469 z m 3.494702,-1.43315 q 0,0.36931 -0.104731,0.64492 -0.101974,0.2756 -0.283875,0.45751 -0.181901,0.1819 -0.429948,0.27285 -0.248047,0.0909 -0.537434,0.0909 -0.132292,0 -0.264584,-0.0138 -0.129535,-0.0138 -0.264583,-0.0469 v 1.15755 h -0.479557 v -3.89708 h 0.427192 l 0.03032,0.46302 q 0.206705,-0.28388 0.440972,-0.39688 0.234266,-0.11575 0.507117,-0.11575 0.237023,0 0.416168,0.0992 0.179144,0.0992 0.300412,0.28112 0.121267,0.17915 0.181901,0.43546 0.06063,0.25356 0.06063,0.56776 z m -0.490581,0.022 q 0,-0.21773 -0.03307,-0.39963 -0.03032,-0.1819 -0.09922,-0.31143 -0.0689,-0.12954 -0.176388,-0.2012 -0.107487,-0.0744 -0.256315,-0.0744 -0.09095,0 -0.184657,0.0303 -0.09371,0.0276 -0.195682,0.0965 -0.09922,0.0661 -0.212217,0.17914 -0.110243,0.11025 -0.237023,0.27561 v 1.34221 q 0.132292,0.0551 0.278364,0.0882 0.146072,0.0303 0.286632,0.0303 0.388606,0 0.609092,-0.26183 0.220486,-0.26458 0.220486,-0.79375 z m 3.891577,2.5411 h -3.103339 v -0.39687 h 3.103339 z m 2.632052,-1.88515 q 0,0.14607 -0.04961,0.26183 -0.04961,0.11575 -0.135047,0.2067 -0.08544,0.0882 -0.198438,0.15159 -0.112999,0.0634 -0.242534,0.10473 -0.12678,0.0413 -0.261827,0.0606 -0.135048,0.0193 -0.264583,0.0193 -0.28112,0 -0.518142,-0.0248 -0.234267,-0.0248 -0.460265,-0.0799 v -0.44097 q 0.242535,0.0689 0.482313,0.10473 0.239779,0.0358 0.476801,0.0358 0.344509,0 0.509874,-0.0937 0.165364,-0.0937 0.165364,-0.26734 0,-0.0744 -0.02756,-0.13229 -0.02481,-0.0606 -0.09371,-0.113 -0.0689,-0.0551 -0.214974,-0.113 -0.143316,-0.0579 -0.394118,-0.13229 -0.187413,-0.0551 -0.347266,-0.12402 -0.157096,-0.0717 -0.272851,-0.16812 -0.115755,-0.0965 -0.181901,-0.226 -0.06615,-0.12953 -0.06615,-0.30592 0,-0.11576 0.05237,-0.25356 0.05512,-0.13781 0.184657,-0.25632 0.129535,-0.11851 0.350021,-0.19568 0.220486,-0.0799 0.551215,-0.0799 0.162608,0 0.361046,0.0193 0.198437,0.0165 0.413411,0.0606 v 0.42719 q -0.225998,-0.0551 -0.429948,-0.0799 -0.201193,-0.0276 -0.350021,-0.0276 -0.179145,0 -0.303168,0.0276 -0.121268,0.0276 -0.198438,0.0772 -0.07441,0.0468 -0.107487,0.113 -0.03307,0.0634 -0.03307,0.1378 0,0.0744 0.02756,0.13505 0.03032,0.0606 0.107487,0.11851 0.07993,0.0551 0.220486,0.113 0.14056,0.0551 0.366558,0.12127 0.245291,0.0716 0.413411,0.15158 0.168121,0.0772 0.272851,0.17363 0.104731,0.0965 0.148828,0.21773 0.04685,0.12127 0.04685,0.27561 z m 3.24941,-0.77446 q 0,0.10198 -0.0028,0.17088 -0.0028,0.0689 -0.0083,0.12953 h -1.943033 q 0,0.42444 0.237023,0.65319 0.237022,0.226 0.683506,0.226 0.121267,0 0.242535,-0.008 0.121267,-0.011 0.234266,-0.0276 0.112999,-0.0165 0.214974,-0.0358 0.104731,-0.022 0.192925,-0.0469 v 0.39412 q -0.195681,0.0551 -0.443728,0.0882 -0.245291,0.0358 -0.509874,0.0358 -0.355533,0 -0.611848,-0.0965 -0.256315,-0.0965 -0.42168,-0.27836 -0.162608,-0.18466 -0.242534,-0.44924 -0.07717,-0.26734 -0.07717,-0.60358 0,-0.29215 0.08268,-0.55122 0.08544,-0.26183 0.245291,-0.45751 0.162608,-0.19843 0.396874,-0.31419 0.234267,-0.11575 0.531923,-0.11575 0.289387,0 0.512629,0.091 0.223242,0.0909 0.374827,0.25907 0.15434,0.16536 0.23151,0.40514 0.07993,0.23702 0.07993,0.53192 z m -0.49885,-0.0689 q 0.0083,-0.18466 -0.03583,-0.33624 -0.0441,-0.15434 -0.137804,-0.26458 -0.09095,-0.11025 -0.228754,-0.17088 -0.137804,-0.0634 -0.319705,-0.0634 -0.157096,0 -0.286632,0.0606 -0.129535,0.0606 -0.223242,0.17088 -0.09371,0.11024 -0.151584,0.26458 -0.05788,0.15434 -0.07166,0.339 z m 2.207616,-1.90169 h -0.818554 v -0.39412 h 1.303624 v 3.4947 h 0.824066 v 0.39963 h -2.21864 v -0.39963 h 0.909504 z"
         id="text1"
         aria-label="temp_sel" />
      <path
         style="-inkscape-font-specification:Consolas;stroke-width:0.5"
         d="m 58.697255,151.25678 q -0.162608,0.0413 -0.336241,0.0579 -0.173633,0.0193 -0.352778,0.0193 -0.520898,0 -0.777213,-0.23427 -0.256314,-0.23702 -0.256314,-0.72484 v -1.44419 h -0.774457 v -0.40238 h 0.774457 v -0.76068 l 0.479556,-0.12402 v 0.8847 h 1.24299 v 0.40238 h -1.24299 v 1.4056 q 0,0.29766 0.157097,0.44648 0.159852,0.14608 0.468532,0.14608 0.132292,0 0.289388,-0.0193 0.157096,-0.022 0.327973,-0.0661 z m 3.210827,-1.49104 q 0,0.10198 -0.0028,0.17088 -0.0028,0.0689 -0.0083,0.12954 H 59.95395 q 0,0.42443 0.237022,0.65318 0.237023,0.226 0.683507,0.226 0.121267,0 0.242534,-0.008 0.121267,-0.011 0.234267,-0.0276 0.112999,-0.0165 0.214973,-0.0358 0.104731,-0.0221 0.192926,-0.0469 v 0.39412 q -0.195682,0.0551 -0.443728,0.0882 -0.245291,0.0358 -0.509874,0.0358 -0.355534,0 -0.611849,-0.0965 -0.256315,-0.0965 -0.421679,-0.27836 -0.162608,-0.18466 -0.242535,-0.44924 -0.07717,-0.26734 -0.07717,-0.60358 0,-0.29215 0.08268,-0.55122 0.08544,-0.26182 0.24529,-0.45751 0.162609,-0.19843 0.396875,-0.31419 0.234266,-0.11575 0.531922,-0.11575 0.289388,0 0.51263,0.091 0.223242,0.0909 0.374826,0.25907 0.15434,0.16536 0.23151,0.40514 0.07993,0.23702 0.07993,0.53192 z m -0.49885,-0.0689 q 0.0083,-0.18466 -0.03583,-0.33624 -0.0441,-0.15434 -0.137804,-0.26458 -0.09095,-0.11025 -0.228754,-0.17088 -0.137803,-0.0634 -0.319704,-0.0634 -0.157097,0 -0.286632,0.0606 -0.129536,0.0606 -0.223242,0.17088 -0.09371,0.11024 -0.151584,0.26458 -0.05788,0.15434 -0.07166,0.339 z m 3.238387,1.59852 v -1.98713 q 0,-0.12953 -0.01102,-0.21221 -0.0083,-0.0827 -0.03032,-0.12954 -0.01929,-0.0496 -0.05237,-0.0689 -0.03032,-0.0193 -0.07717,-0.0193 -0.05512,0 -0.101975,0.0331 -0.04685,0.0331 -0.101975,0.10749 -0.05236,0.0744 -0.118511,0.19843 -0.06339,0.12127 -0.151584,0.30042 v 1.77766 h -0.438216 v -1.93476 q 0,-0.15158 -0.01102,-0.24529 -0.0083,-0.0937 -0.03032,-0.14607 -0.01929,-0.0524 -0.05237,-0.0717 -0.03307,-0.0193 -0.07993,-0.0193 -0.04961,0 -0.09371,0.0276 -0.0441,0.0276 -0.09922,0.0992 -0.05237,0.0717 -0.118511,0.19568 -0.06615,0.12402 -0.157096,0.31695 v 1.77766 h -0.440972 v -2.76709 h 0.366558 l 0.02205,0.52641 q 0.07166,-0.1571 0.137804,-0.26734 0.0689,-0.11025 0.14056,-0.17639 0.07166,-0.0689 0.151584,-0.0992 0.08268,-0.0331 0.181901,-0.0331 0.223242,0 0.338997,0.14607 0.115755,0.14607 0.115755,0.45199 0.06615,-0.14331 0.129536,-0.25355 0.06339,-0.113 0.135047,-0.18742 0.07441,-0.0772 0.162609,-0.11575 0.08819,-0.0413 0.203949,-0.0413 0.520898,0 0.520898,0.80201 v 2.01469 z m 3.494702,-1.43315 q 0,0.36931 -0.104731,0.64492 -0.101974,0.2756 -0.283875,0.45751 -0.181901,0.1819 -0.429948,0.27285 -0.248047,0.0909 -0.537434,0.0909 -0.132292,0 -0.264584,-0.0138 -0.129535,-0.0138 -0.264583,-0.0469 v 1.15755 h -0.479557 v -3.89708 h 0.427192 l 0.03032,0.46302 q 0.206705,-0.28388 0.440972,-0.39688 0.234266,-0.11575 0.507117,-0.11575 0.237023,0 0.416168,0.0992 0.179144,0.0992 0.300412,0.28111 0.121267,0.17915 0.181901,0.43546 0.06063,0.25356 0.06063,0.56776 z m -0.490581,0.022 q 0,-0.21773 -0.03307,-0.39963 -0.03032,-0.1819 -0.09922,-0.31143 -0.0689,-0.12954 -0.176388,-0.2012 -0.107487,-0.0744 -0.256315,-0.0744 -0.09095,0 -0.184657,0.0303 -0.09371,0.0276 -0.195682,0.0965 -0.09922,0.0661 -0.212217,0.17914 -0.110243,0.11025 -0.237023,0.27561 v 1.34221 q 0.132292,0.0551 0.278364,0.0882 0.146072,0.0303 0.286632,0.0303 0.388606,0 0.609092,-0.26183 0.220486,-0.26458 0.220486,-0.79375 z m 3.891577,2.5411 h -3.103339 v -0.39687 h 3.103339 z m 2.218641,-1.12999 -0.01103,-0.37207 q -0.225998,0.22325 -0.460264,0.32247 -0.23151,0.0992 -0.487825,0.0992 -0.237023,0 -0.405143,-0.0606 -0.168121,-0.0606 -0.278364,-0.16536 -0.107487,-0.10749 -0.159852,-0.25081 -0.04961,-0.14331 -0.04961,-0.31143 0,-0.41617 0.30868,-0.65044 0.311436,-0.23702 0.917773,-0.23702 h 0.573263 v -0.24253 q 0,-0.24529 -0.157096,-0.39137 -0.157096,-0.14882 -0.479557,-0.14882 -0.234266,0 -0.46302,0.0524 -0.225999,0.0524 -0.468533,0.14883 v -0.4327 q 0.09095,-0.0331 0.201193,-0.0634 0.112999,-0.0331 0.237023,-0.0579 0.124023,-0.0248 0.259071,-0.0386 0.135047,-0.0165 0.272851,-0.0165 0.250803,0 0.451996,0.0551 0.201194,0.0551 0.338997,0.16812 0.14056,0.113 0.214974,0.28387 0.07441,0.17088 0.07441,0.40239 v 1.9072 z m -0.05237,-1.25952 H 73.1005 q -0.179145,0 -0.308681,0.0358 -0.129535,0.0358 -0.212217,0.10197 -0.08268,0.0661 -0.124024,0.15985 -0.03858,0.0909 -0.03858,0.20671 0,0.0799 0.02481,0.15434 0.02481,0.0717 0.07993,0.12954 0.05512,0.0551 0.143316,0.0882 0.08819,0.0331 0.214974,0.0331 0.165364,0 0.377582,-0.0992 0.214974,-0.10197 0.451996,-0.3197 z m 1.237476,-0.0661 q 0,-0.35277 0.09646,-0.62563 0.09646,-0.2756 0.272851,-0.46302 0.179145,-0.19017 0.427192,-0.28663 0.250802,-0.0992 0.556727,-0.0992 0.132291,0 0.259071,0.0165 0.129535,0.0165 0.253558,0.0524 v -1.16306 h 0.482313 v 3.89433 h -0.429947 l -0.01654,-0.52365 q -0.201193,0.29214 -0.435459,0.4327 -0.234267,0.14056 -0.507118,0.14056 -0.237022,0 -0.418923,-0.0992 -0.179145,-0.0992 -0.300412,-0.27837 -0.118512,-0.1819 -0.179145,-0.43546 -0.06063,-0.25356 -0.06063,-0.56224 z m 0.490581,-0.0303 q 0,0.5016 0.146072,0.74965 0.148828,0.24529 0.418924,0.24529 0.1819,0 0.383094,-0.16261 0.203949,-0.16261 0.427191,-0.48231 v -1.28433 q -0.118511,-0.0551 -0.261827,-0.0827 -0.143315,-0.0303 -0.283875,-0.0303 -0.391363,0 -0.611849,0.25356 -0.21773,0.25356 -0.21773,0.79375 z m 4.903057,1.25401 q -0.187413,0.0717 -0.38585,0.10473 -0.195682,0.0358 -0.405143,0.0358 -0.655946,0 -1.01148,-0.35553 -0.352777,-0.35554 -0.352777,-1.03904 0,-0.32798 0.101975,-0.59532 0.101974,-0.26734 0.286631,-0.4575 0.184657,-0.19017 0.440972,-0.29215 0.256315,-0.10473 0.564996,-0.10473 0.214973,0 0.402386,0.0303 0.187413,0.0303 0.35829,0.0992 v 0.4575 q -0.179145,-0.0937 -0.366558,-0.13504 -0.184657,-0.0441 -0.383094,-0.0441 -0.184657,0 -0.350022,0.0717 -0.162608,0.0689 -0.286631,0.20119 -0.124024,0.13229 -0.195682,0.32246 -0.07166,0.19017 -0.07166,0.42995 0,0.5016 0.242535,0.75241 0.245291,0.24804 0.677994,0.24804 0.195682,0 0.377582,-0.0441 0.184657,-0.0441 0.355534,-0.13229 z m 2.822221,1.23196 h -1.358745 v -5.12078 h 1.358745 v 0.38585 H 82.26169 v 4.34908 h 0.901237 z m 3.541556,-1.12999 h -2.262737 v -0.44648 h 0.926041 v -2.62929 l -0.862652,0.46853 -0.176388,-0.4079 1.146526,-0.60358 h 0.424436 v 3.17224 h 0.804774 z m 3.10334,0 h -2.262737 v -0.44648 h 0.926041 v -2.62929 l -0.862652,0.46853 -0.176388,-0.4079 1.146527,-0.60358 h 0.424435 v 3.17224 h 0.804774 z m 1.907204,-2.8167 q 0.08544,0 0.162608,0.0358 0.07717,0.0331 0.135048,0.0909 0.05788,0.0579 0.09095,0.13504 0.03583,0.0772 0.03583,0.16261 0,0.0882 -0.03583,0.16537 -0.03307,0.0744 -0.09095,0.13229 -0.05788,0.0579 -0.135048,0.0909 -0.07717,0.0331 -0.162608,0.0331 -0.0882,0 -0.165365,-0.0331 -0.07441,-0.0331 -0.132291,-0.0909 -0.05788,-0.0579 -0.09095,-0.13229 -0.03307,-0.0772 -0.03307,-0.16537 0,-0.0854 0.03307,-0.16261 0.03307,-0.0772 0.09095,-0.13504 0.05788,-0.0579 0.132291,-0.0909 0.07717,-0.0358 0.165365,-0.0358 z m 0,2.0202 q 0.08544,0 0.162608,0.0358 0.07717,0.0331 0.135048,0.0909 0.05788,0.0579 0.09095,0.13505 0.03583,0.0772 0.03583,0.1626 0,0.0882 -0.03583,0.16537 -0.03307,0.0744 -0.09095,0.13229 -0.05788,0.0579 -0.135048,0.091 -0.07717,0.0331 -0.162608,0.0331 -0.0882,0 -0.165365,-0.0331 -0.07441,-0.0331 -0.132291,-0.091 -0.05788,-0.0579 -0.09095,-0.13229 -0.03307,-0.0772 -0.03307,-0.16537 0,-0.0854 0.03307,-0.1626 0.03307,-0.0772 0.09095,-0.13505 0.05788,-0.0579 0.132291,-0.0909 0.07717,-0.0358 0.165365,-0.0358 z m 4.412471,-1.00321 q 0,0.41341 -0.08268,0.75516 -0.08268,0.339 -0.250803,0.58429 -0.16812,0.24253 -0.418923,0.37758 -0.248047,0.13229 -0.584288,0.13229 -0.289388,0 -0.52641,-0.10748 -0.237022,-0.11025 -0.405143,-0.33624 -0.16812,-0.226 -0.259071,-0.57602 -0.09095,-0.35003 -0.09095,-0.82958 0,-0.41341 0.08268,-0.75517 0.08544,-0.34175 0.250803,-0.58428 0.16812,-0.24529 0.418923,-0.37759 0.250803,-0.13504 0.584288,-0.13504 0.289387,0 0.52641,0.11024 0.237022,0.10749 0.405143,0.33624 0.16812,0.226 0.259071,0.57602 0.09095,0.35002 0.09095,0.82958 z m -0.485069,0.0165 q 0,-0.0937 -0.0083,-0.18465 -0.0055,-0.0937 -0.01378,-0.1819 l -1.52411,1.13274 q 0.04134,0.14332 0.104731,0.26459 0.06339,0.12126 0.151584,0.20946 0.09095,0.0854 0.20395,0.13505 0.115755,0.0469 0.261827,0.0469 0.187413,0 0.338997,-0.091 0.15434,-0.0909 0.261827,-0.2701 0.107487,-0.17914 0.165365,-0.44373 0.05788,-0.26733 0.05788,-0.61736 z m -1.648132,-0.0331 q 0,0.0854 0,0.17088 0.0028,0.0854 0.01102,0.16536 l 1.524109,-1.12723 q -0.04134,-0.14056 -0.104731,-0.25632 -0.06339,-0.11575 -0.151584,-0.19843 -0.08819,-0.0854 -0.201193,-0.1323 -0.112999,-0.0469 -0.253559,-0.0469 -0.187413,0 -0.341753,0.091 -0.151584,0.0909 -0.259071,0.27285 -0.107487,0.17915 -0.165365,0.44649 -0.05788,0.26458 -0.05788,0.6146 z m 4.52823,2.94624 h -1.358744 v -0.38585 h 0.895724 v -4.34908 h -0.895724 v -0.38585 h 1.358744 z"
         id="text1-3"
         aria-label="temp_adc[11:0]" />
      <path
         style="-inkscape-font-specification:Consolas;stroke-width:0.5"
         d="m 56.200253,159.04231 q 0,-0.35278 0.09646,-0.62563 0.09646,-0.27561 0.272851,-0.46302 0.179145,-0.19017 0.427192,-0.28663 0.250803,-0.0992 0.556727,-0.0992 0.132291,0 0.259071,0.0165 0.129535,0.0165 0.253559,0.0524 v -1.16306 h 0.482313 v 3.89433 h -0.429948 l -0.01654,-0.52365 q -0.201194,0.29214 -0.43546,0.4327 -0.234266,0.14056 -0.507118,0.14056 -0.237022,0 -0.418923,-0.0992 -0.179145,-0.0992 -0.300412,-0.27836 -0.118511,-0.1819 -0.179145,-0.43546 -0.06063,-0.25356 -0.06063,-0.56224 z m 0.490582,-0.0303 q 0,0.50161 0.146072,0.74965 0.148828,0.2453 0.418923,0.2453 0.181901,0 0.383094,-0.16261 0.20395,-0.16261 0.427192,-0.48232 v -1.28433 q -0.118511,-0.0551 -0.261827,-0.0827 -0.143316,-0.0303 -0.283876,-0.0303 -0.391363,0 -0.611848,0.25356 -0.21773,0.25356 -0.21773,0.79375 z m 2.866317,-1.41111 h 0.438216 l 0.01378,0.50988 q 0.245291,-0.2949 0.482313,-0.4272 0.239779,-0.13229 0.482313,-0.13229 0.429948,0 0.650434,0.27837 0.223242,0.27836 0.206705,0.82682 h -0.485069 q 0.0083,-0.3638 -0.107487,-0.52641 -0.112999,-0.16537 -0.333485,-0.16537 -0.09646,0 -0.195681,0.0358 -0.09646,0.0331 -0.201193,0.11025 -0.101975,0.0744 -0.21773,0.19292 -0.115755,0.11851 -0.248047,0.28663 v 1.77767 h -0.485069 z m 2.849781,1.44143 q 0,-0.35278 0.09646,-0.62563 0.09646,-0.27561 0.272852,-0.46302 0.179145,-0.19017 0.427191,-0.28663 0.250803,-0.0992 0.556727,-0.0992 0.132292,0 0.259071,0.0165 0.129536,0.0165 0.253559,0.0524 v -1.16306 h 0.482313 v 3.89433 H 64.32516 l -0.01654,-0.52365 q -0.201193,0.29214 -0.43546,0.4327 -0.234266,0.14056 -0.507117,0.14056 -0.237023,0 -0.418924,-0.0992 -0.179145,-0.0992 -0.300412,-0.27836 -0.118511,-0.1819 -0.179145,-0.43546 -0.06063,-0.25356 -0.06063,-0.56224 z m 0.490581,-0.0303 q 0,0.50161 0.146072,0.74965 0.148828,0.2453 0.418923,0.2453 0.181901,0 0.383095,-0.16261 0.203949,-0.16261 0.427191,-0.48232 v -1.28433 q -0.118511,-0.0551 -0.261827,-0.0827 -0.143316,-0.0303 -0.283876,-0.0303 -0.391362,0 -0.611848,0.25356 -0.21773,0.25356 -0.21773,0.79375 z m 5.214492,-1.41111 -0.942577,2.47496 q -0.146072,0.37758 -0.303168,0.65043 -0.154341,0.27285 -0.338998,0.44648 -0.184657,0.17639 -0.405143,0.25908 -0.220486,0.0827 -0.493337,0.0827 -0.07166,0 -0.129535,-0.003 -0.05788,-0.003 -0.12678,-0.008 v -0.43546 q 0.06063,0.008 0.132292,0.0138 0.07166,0.008 0.151584,0.008 0.132291,0 0.24529,-0.0386 0.115756,-0.0386 0.21773,-0.12678 0.101975,-0.0854 0.195682,-0.22324 0.09371,-0.13781 0.181901,-0.33349 l -1.105186,-2.7671 h 0.545702 l 0.700043,1.83004 0.14056,0.42994 0.159852,-0.44097 0.647678,-1.81901 z"
         id="text1-7"
         aria-label="drdy" />
      <path
         style="-inkscape-font-specification:Consolas;stroke-width:0.5"
         d="m 133.33955,140.98806 q 0,-0.35277 0.0965,-0.62562 0.0965,-0.27561 0.27285,-0.46303 0.17915,-0.19016 0.4272,-0.28663 0.2508,-0.0992 0.55672,-0.0992 0.13229,0 0.25907,0.0165 0.12954,0.0165 0.25356,0.0524 v -1.16307 h 0.48232 v 3.89434 h -0.42995 l -0.0165,-0.52366 q -0.20119,0.29215 -0.43546,0.43271 -0.23426,0.14056 -0.50712,0.14056 -0.23702,0 -0.41892,-0.0992 -0.17914,-0.0992 -0.30041,-0.27837 -0.11851,-0.1819 -0.17915,-0.43546 -0.0606,-0.25356 -0.0606,-0.56224 z m 0.49058,-0.0303 q 0,0.5016 0.14607,0.74965 0.14883,0.24529 0.41893,0.24529 0.1819,0 0.38309,-0.16261 0.20395,-0.16261 0.42719,-0.48231 v -1.28433 q -0.11851,-0.0551 -0.26182,-0.0827 -0.14332,-0.0303 -0.28388,-0.0303 -0.39136,0 -0.61185,0.25356 -0.21773,0.25356 -0.21773,0.79375 z m 4.53099,1.35599 -0.011,-0.37207 q -0.22599,0.22324 -0.46026,0.32246 -0.23151,0.0992 -0.48783,0.0992 -0.23702,0 -0.40514,-0.0606 -0.16812,-0.0606 -0.27836,-0.16536 -0.10749,-0.10749 -0.15985,-0.25081 -0.0496,-0.14331 -0.0496,-0.31143 0,-0.41617 0.30868,-0.65044 0.31143,-0.23702 0.91777,-0.23702 h 0.57326 v -0.24253 q 0,-0.24529 -0.15709,-0.39136 -0.1571,-0.14883 -0.47956,-0.14883 -0.23427,0 -0.46302,0.0524 -0.226,0.0524 -0.46853,0.14883 v -0.4327 q 0.0909,-0.0331 0.20119,-0.0634 0.113,-0.0331 0.23702,-0.0579 0.12403,-0.0248 0.25907,-0.0386 0.13505,-0.0165 0.27285,-0.0165 0.25081,0 0.452,0.0551 0.20119,0.0551 0.339,0.16812 0.14056,0.113 0.21497,0.28388 0.0744,0.17087 0.0744,0.40238 v 1.90721 z m -0.0524,-1.25953 h -0.60909 q -0.17914,0 -0.30868,0.0358 -0.12954,0.0358 -0.21222,0.10197 -0.0827,0.0661 -0.12402,0.15986 -0.0386,0.091 -0.0386,0.2067 0,0.0799 0.0248,0.15434 0.0248,0.0717 0.0799,0.12954 0.0551,0.0551 0.14332,0.0882 0.0882,0.0331 0.21497,0.0331 0.16537,0 0.37759,-0.0992 0.21497,-0.10198 0.45199,-0.31971 z m 3.6077,1.22094 q -0.1626,0.0413 -0.33624,0.0579 -0.17363,0.0193 -0.35277,0.0193 -0.5209,0 -0.77722,-0.23427 -0.25631,-0.23702 -0.25631,-0.72484 v -1.44419 h -0.77446 v -0.40238 h 0.77446 V 138.786 l 0.47955,-0.12402 v 0.8847 h 1.24299 v 0.40238 h -1.24299 v 1.4056 q 0,0.29766 0.1571,0.44649 0.15985,0.14607 0.46853,0.14607 0.1323,0 0.28939,-0.0193 0.1571,-0.022 0.32797,-0.0661 z m 3.28249,-1.36701 q 0,0.32246 -0.0909,0.59255 -0.0909,0.26734 -0.26183,0.46027 -0.17088,0.19017 -0.41617,0.29765 -0.24529,0.10474 -0.55672,0.10474 -0.29766,0 -0.53468,-0.091 -0.23427,-0.0937 -0.39963,-0.27285 -0.16261,-0.17914 -0.25081,-0.44372 -0.0854,-0.26459 -0.0854,-0.6091 0,-0.32246 0.0909,-0.58704 0.0909,-0.26734 0.26182,-0.45751 0.17088,-0.19292 0.41617,-0.29766 0.24529,-0.10748 0.55673,-0.10748 0.29765,0 0.53192,0.0937 0.23702,0.091 0.39963,0.2701 0.16537,0.17639 0.2508,0.44097 0.0882,0.26458 0.0882,0.60634 z m -0.49058,0.0221 q 0,-0.25632 -0.0579,-0.44649 -0.0551,-0.19292 -0.15985,-0.3197 -0.10473,-0.12954 -0.25632,-0.19293 -0.14883,-0.0661 -0.33348,-0.0661 -0.21498,0 -0.36932,0.0854 -0.15158,0.0827 -0.2508,0.22324 -0.0965,0.14056 -0.14332,0.32797 -0.0441,0.18466 -0.0441,0.38861 0,0.25631 0.0551,0.44924 0.0579,0.19292 0.16261,0.32246 0.10473,0.12678 0.25356,0.19292 0.14882,0.0634 0.33624,0.0634 0.21497,0 0.36656,-0.0827 0.15434,-0.0854 0.2508,-0.226 0.0992,-0.14056 0.14331,-0.32521 0.0469,-0.18742 0.0469,-0.39412 z m 3.84748,2.51354 h -3.10334 v -0.39688 h 3.10334 z m 0.1819,-3.89709 h 0.5457 l 0.678,1.83003 0.14607,0.44648 0.15158,-0.4575 0.67248,-1.81901 h 0.52641 l -1.08589,2.7671 h -0.55121 z m 5.14008,2.7671 -0.011,-0.37207 q -0.226,0.22324 -0.46026,0.32246 -0.23151,0.0992 -0.48783,0.0992 -0.23702,0 -0.40514,-0.0606 -0.16812,-0.0606 -0.27836,-0.16536 -0.10749,-0.10749 -0.15986,-0.25081 -0.0496,-0.14331 -0.0496,-0.31143 0,-0.41617 0.30868,-0.65044 0.31144,-0.23702 0.91778,-0.23702 h 0.57326 v -0.24253 q 0,-0.24529 -0.1571,-0.39136 -0.15709,-0.14883 -0.47955,-0.14883 -0.23427,0 -0.46302,0.0524 -0.226,0.0524 -0.46854,0.14883 v -0.4327 q 0.0909,-0.0331 0.2012,-0.0634 0.113,-0.0331 0.23702,-0.0579 0.12402,-0.0248 0.25907,-0.0386 0.13505,-0.0165 0.27285,-0.0165 0.2508,0 0.452,0.0551 0.20119,0.0551 0.339,0.16812 0.14056,0.113 0.21497,0.28388 0.0744,0.17087 0.0744,0.40238 v 1.90721 z m -0.0524,-1.25953 h -0.60909 q -0.17915,0 -0.30868,0.0358 -0.12954,0.0358 -0.21222,0.10197 -0.0827,0.0661 -0.12402,0.15986 -0.0386,0.091 -0.0386,0.2067 0,0.0799 0.0248,0.15434 0.0248,0.0717 0.0799,0.12954 0.0551,0.0551 0.14332,0.0882 0.0882,0.0331 0.21497,0.0331 0.16537,0 0.37758,-0.0992 0.21498,-0.10198 0.452,-0.31971 z m 2.32062,-2.24069 h -0.81856 v -0.39412 h 1.30362 v 3.49471 h 0.82407 v 0.39963 h -2.21864 v -0.39963 h 0.90951 z"
         id="text1-9"
         aria-label="dato_val" />
      <path
         style="-inkscape-font-specification:Consolas;stroke-width:0.5"
         d="m 114.52659,151.25678 q -0.16261,0.0413 -0.33624,0.0579 -0.17363,0.0193 -0.35278,0.0193 -0.52089,0 -0.77721,-0.23427 -0.25631,-0.23702 -0.25631,-0.72484 v -1.44419 h -0.77446 v -0.40238 h 0.77446 v -0.76068 l 0.47955,-0.12402 v 0.8847 h 1.24299 v 0.40238 h -1.24299 v 1.4056 q 0,0.29766 0.1571,0.44648 0.15985,0.14608 0.46853,0.14608 0.13229,0 0.28939,-0.0193 0.1571,-0.022 0.32797,-0.0661 z m 3.21083,-1.49104 q 0,0.10198 -0.003,0.17088 -0.003,0.0689 -0.008,0.12954 h -1.94304 q 0,0.42443 0.23703,0.65318 0.23702,0.226 0.6835,0.226 0.12127,0 0.24254,-0.008 0.12126,-0.011 0.23426,-0.0276 0.113,-0.0165 0.21498,-0.0358 0.10473,-0.0221 0.19292,-0.0469 v 0.39412 q -0.19568,0.0551 -0.44373,0.0882 -0.24529,0.0358 -0.50987,0.0358 -0.35553,0 -0.61185,-0.0965 -0.25631,-0.0965 -0.42168,-0.27836 -0.16261,-0.18466 -0.24253,-0.44924 -0.0772,-0.26734 -0.0772,-0.60358 0,-0.29215 0.0827,-0.55122 0.0854,-0.26182 0.24529,-0.45751 0.16261,-0.19843 0.39687,-0.31419 0.23427,-0.11575 0.53193,-0.11575 0.28939,0 0.51263,0.091 0.22324,0.0909 0.37482,0.25907 0.15434,0.16536 0.23151,0.40514 0.0799,0.23702 0.0799,0.53192 z m -0.49885,-0.0689 q 0.008,-0.18466 -0.0358,-0.33624 -0.0441,-0.15434 -0.1378,-0.26458 -0.091,-0.11025 -0.22876,-0.17088 -0.1378,-0.0634 -0.3197,-0.0634 -0.1571,0 -0.28663,0.0606 -0.12954,0.0606 -0.22325,0.17088 -0.0937,0.11024 -0.15158,0.26458 -0.0579,0.15434 -0.0717,0.339 z m 3.23839,1.59852 v -1.98713 q 0,-0.12953 -0.011,-0.21221 -0.008,-0.0827 -0.0303,-0.12954 -0.0193,-0.0496 -0.0524,-0.0689 -0.0303,-0.0193 -0.0772,-0.0193 -0.0551,0 -0.10197,0.0331 -0.0469,0.0331 -0.10198,0.10749 -0.0524,0.0744 -0.11851,0.19843 -0.0634,0.12127 -0.15158,0.30042 v 1.77766 h -0.43822 v -1.93476 q 0,-0.15158 -0.011,-0.24529 -0.008,-0.0937 -0.0303,-0.14607 -0.0193,-0.0524 -0.0524,-0.0717 -0.0331,-0.0193 -0.0799,-0.0193 -0.0496,0 -0.0937,0.0276 -0.0441,0.0276 -0.0992,0.0992 -0.0524,0.0717 -0.11851,0.19568 -0.0661,0.12402 -0.1571,0.31695 v 1.77766 h -0.44097 v -2.76709 h 0.36656 l 0.0221,0.52641 q 0.0717,-0.1571 0.1378,-0.26734 0.0689,-0.11025 0.14056,-0.17639 0.0717,-0.0689 0.15159,-0.0992 0.0827,-0.0331 0.1819,-0.0331 0.22324,0 0.339,0.14607 0.11575,0.14607 0.11575,0.45199 0.0662,-0.14331 0.12954,-0.25355 0.0634,-0.113 0.13504,-0.18742 0.0744,-0.0772 0.16261,-0.11575 0.0882,-0.0413 0.20395,-0.0413 0.5209,0 0.5209,0.80201 v 2.01469 z m 3.4947,-1.43315 q 0,0.36931 -0.10473,0.64492 -0.10198,0.2756 -0.28388,0.45751 -0.1819,0.1819 -0.42994,0.27285 -0.24805,0.0909 -0.53744,0.0909 -0.13229,0 -0.26458,-0.0138 -0.12954,-0.0138 -0.26459,-0.0469 v 1.15755 h -0.47955 v -3.89708 h 0.42719 l 0.0303,0.46302 q 0.2067,-0.28388 0.44097,-0.39688 0.23426,-0.11575 0.50712,-0.11575 0.23702,0 0.41616,0.0992 0.17915,0.0992 0.30041,0.28111 0.12127,0.17915 0.18191,0.43546 0.0606,0.25356 0.0606,0.56776 z m -0.49058,0.022 q 0,-0.21773 -0.0331,-0.39963 -0.0303,-0.1819 -0.0992,-0.31143 -0.0689,-0.12954 -0.17639,-0.2012 -0.10749,-0.0744 -0.25632,-0.0744 -0.0909,0 -0.18465,0.0303 -0.0937,0.0276 -0.19569,0.0965 -0.0992,0.0661 -0.21221,0.17914 -0.11025,0.11025 -0.23703,0.27561 v 1.34221 q 0.1323,0.0551 0.27837,0.0882 0.14607,0.0303 0.28663,0.0303 0.38861,0 0.60909,-0.26183 0.22049,-0.26458 0.22049,-0.79375 z m 3.89158,2.5411 h -3.10334 v -0.39687 h 3.10334 z m 2.43361,-3.50572 q 0.0772,0.0965 0.11851,0.226 0.0441,0.12678 0.0441,0.2756 0,0.21498 -0.0799,0.39412 -0.0772,0.17639 -0.22048,0.30317 -0.14332,0.12678 -0.34451,0.19844 -0.19844,0.0689 -0.43822,0.0689 -0.17363,0 -0.32522,-0.0358 -0.15158,-0.0386 -0.23977,-0.0937 -0.0524,0.0772 -0.0882,0.14608 -0.0358,0.0689 -0.0358,0.15434 0,0.10473 0.0992,0.17363 0.10198,0.0689 0.26734,0.0744 l 0.7276,0.0276 q 0.20671,0.006 0.38034,0.0524 0.17639,0.0468 0.30041,0.13505 0.12678,0.0882 0.19569,0.21773 0.0717,0.12953 0.0717,0.30041 0,0.18466 -0.0799,0.35002 -0.0799,0.16536 -0.24805,0.28939 -0.16536,0.12678 -0.42168,0.20119 -0.25631,0.0744 -0.60909,0.0744 -0.33624,0 -0.57326,-0.0551 -0.23427,-0.0524 -0.38586,-0.14882 -0.15158,-0.0937 -0.22048,-0.226 -0.0689,-0.12954 -0.0689,-0.28663 0,-0.2012 0.0937,-0.35278 0.0937,-0.15159 0.28939,-0.29215 -0.0717,-0.0331 -0.12402,-0.0827 -0.0524,-0.0496 -0.0854,-0.10748 -0.0331,-0.0606 -0.0496,-0.12678 -0.0165,-0.0662 -0.0165,-0.12954 0,-0.17914 0.0827,-0.32797 0.0854,-0.14883 0.20119,-0.28112 -0.0524,-0.0634 -0.0937,-0.12402 -0.0386,-0.0606 -0.0689,-0.12954 -0.0276,-0.0717 -0.0441,-0.15158 -0.0138,-0.0827 -0.0138,-0.18742 0,-0.21497 0.0772,-0.39136 0.0799,-0.17914 0.22049,-0.30592 0.14332,-0.12678 0.34175,-0.19569 0.2012,-0.0717 0.44373,-0.0717 0.10198,0 0.19568,0.0138 0.0937,0.0138 0.16537,0.0358 H 130.25 v 0.39136 z m -1.66467,2.77537 q 0,0.19568 0.20395,0.28387 0.20395,0.0909 0.56775,0.0909 0.22876,0 0.3831,-0.0413 0.15709,-0.0413 0.2508,-0.11024 0.0965,-0.0661 0.1378,-0.15434 0.0413,-0.0854 0.0413,-0.17639 0,-0.16812 -0.1378,-0.24805 -0.1378,-0.0799 -0.42168,-0.0937 l -0.72209,-0.0248 q -0.0909,0.0606 -0.15159,0.11851 -0.0579,0.0579 -0.091,0.11576 -0.0331,0.0606 -0.0468,0.11851 -0.0138,0.0606 -0.0138,0.12127 z m 0.14607,-2.26274 q 0,0.13229 0.0441,0.24253 0.0441,0.11025 0.12402,0.18742 0.0799,0.0772 0.18742,0.12126 0.11024,0.0413 0.24253,0.0413 0.14332,0 0.25356,-0.0469 0.113,-0.0496 0.18741,-0.13229 0.0772,-0.0827 0.11576,-0.19017 0.0413,-0.10749 0.0413,-0.22324 0,-0.13229 -0.0441,-0.24254 -0.0441,-0.11024 -0.12402,-0.18741 -0.0799,-0.0772 -0.19017,-0.11851 -0.10749,-0.0441 -0.23978,-0.0441 -0.14332,0 -0.25631,0.0496 -0.11025,0.0496 -0.18742,0.13229 -0.0744,0.0799 -0.11575,0.18742 -0.0386,0.10748 -0.0386,0.22324 z m 2.7423,-0.90399 h 0.43821 l 0.0138,0.50987 q 0.24529,-0.2949 0.48231,-0.42719 0.23978,-0.13229 0.48232,-0.13229 0.42994,0 0.65043,0.27836 0.22324,0.27836 0.20671,0.82682 h -0.48507 q 0.008,-0.3638 -0.10749,-0.52641 -0.113,-0.16536 -0.33348,-0.16536 -0.0965,0 -0.19569,0.0358 -0.0965,0.0331 -0.20119,0.11024 -0.10197,0.0744 -0.21773,0.19292 -0.11575,0.11852 -0.24805,0.28664 v 1.77766 h -0.48506 z m 4.768,2.76709 -0.011,-0.37207 q -0.226,0.22325 -0.46026,0.32247 -0.23151,0.0992 -0.48783,0.0992 -0.23702,0 -0.40514,-0.0606 -0.16812,-0.0606 -0.27837,-0.16536 -0.10748,-0.10749 -0.15985,-0.25081 -0.0496,-0.14331 -0.0496,-0.31143 0,-0.41617 0.30868,-0.65044 0.31144,-0.23702 0.91778,-0.23702 h 0.57326 v -0.24253 q 0,-0.24529 -0.1571,-0.39137 -0.15709,-0.14882 -0.47955,-0.14882 -0.23427,0 -0.46302,0.0524 -0.226,0.0524 -0.46854,0.14883 v -0.4327 q 0.0909,-0.0331 0.2012,-0.0634 0.11299,-0.0331 0.23702,-0.0579 0.12402,-0.0248 0.25907,-0.0386 0.13505,-0.0165 0.27285,-0.0165 0.2508,0 0.452,0.0551 0.20119,0.0551 0.33899,0.16812 0.14056,0.113 0.21498,0.28387 0.0744,0.17088 0.0744,0.40239 v 1.9072 z m -0.0524,-1.25952 h -0.60909 q -0.17915,0 -0.30868,0.0358 -0.12954,0.0358 -0.21222,0.10197 -0.0827,0.0661 -0.12403,0.15985 -0.0386,0.0909 -0.0386,0.20671 0,0.0799 0.0248,0.15434 0.0248,0.0717 0.0799,0.12954 0.0551,0.0551 0.14332,0.0882 0.0882,0.0331 0.21497,0.0331 0.16536,0 0.37758,-0.0992 0.21498,-0.10197 0.452,-0.3197 z m 1.23748,-0.0661 q 0,-0.35277 0.0965,-0.62563 0.0965,-0.2756 0.27285,-0.46302 0.17915,-0.19017 0.42719,-0.28663 0.2508,-0.0992 0.55673,-0.0992 0.13229,0 0.25907,0.0165 0.12954,0.0165 0.25356,0.0524 v -1.16306 h 0.48231 v 3.89433 h -0.42995 l -0.0165,-0.52365 q -0.2012,0.29214 -0.43546,0.4327 -0.23427,0.14056 -0.50712,0.14056 -0.23702,0 -0.41892,-0.0992 -0.17915,-0.0992 -0.30042,-0.27837 -0.11851,-0.1819 -0.17914,-0.43546 -0.0606,-0.25356 -0.0606,-0.56224 z m 0.49058,-0.0303 q 0,0.5016 0.14607,0.74965 0.14883,0.24529 0.41892,0.24529 0.1819,0 0.3831,-0.16261 0.20395,-0.16261 0.42719,-0.48231 v -1.28433 q -0.11851,-0.0551 -0.26183,-0.0827 -0.14331,-0.0303 -0.28387,-0.0303 -0.39137,0 -0.61185,0.25356 -0.21773,0.25356 -0.21773,0.79375 z m 4.62193,2.48597 h -1.35874 v -5.12078 h 1.35874 v 0.38585 h -0.90123 v 4.34908 h 0.90123 z m 3.54156,-1.12999 h -2.26274 v -0.44648 h 0.92604 v -2.62929 l -0.86265,0.46853 -0.17639,-0.4079 1.14653,-0.60358 h 0.42444 v 3.17224 h 0.80477 z m 3.11437,-2.00366 q 0,0.52641 -0.12678,0.90675 -0.12678,0.37758 -0.37483,0.62287 -0.24805,0.24253 -0.6146,0.35829 -0.36656,0.11575 -0.84612,0.11575 h -0.30041 v -0.41892 h 0.33348 q 0.35554,0 0.61461,-0.0717 0.25907,-0.0717 0.42995,-0.20946 0.17363,-0.14056 0.26458,-0.339 0.091,-0.20119 0.113,-0.4575 l 0.011,-0.113 q -0.17363,0.10197 -0.39963,0.16536 -0.226,0.0606 -0.49058,0.0606 -0.27285,0 -0.47956,-0.0799 -0.2067,-0.0799 -0.34451,-0.22324 -0.13504,-0.14332 -0.20395,-0.339 -0.0689,-0.19844 -0.0689,-0.42995 0,-0.2508 0.0909,-0.46853 0.0909,-0.21773 0.25356,-0.37758 0.16537,-0.16261 0.39412,-0.25632 0.22875,-0.0937 0.50436,-0.0937 0.26734,0 0.49334,0.0882 0.22875,0.0882 0.39412,0.28663 0.16536,0.19568 0.25907,0.50988 0.0937,0.31419 0.0937,0.76343 z m -1.26229,-1.25402 q -0.15434,0 -0.28663,0.0524 -0.12953,0.0496 -0.226,0.14883 -0.0937,0.0965 -0.14882,0.23978 -0.0551,0.14331 -0.0551,0.32797 0,0.16812 0.0386,0.30041 0.0413,0.13229 0.12402,0.226 0.0854,0.0909 0.21773,0.14056 0.13229,0.0496 0.31419,0.0496 0.10198,0 0.20947,-0.0193 0.11024,-0.0193 0.21221,-0.0524 0.10473,-0.0331 0.19844,-0.0772 0.0937,-0.0441 0.16812,-0.0937 0,-0.35553 -0.0524,-0.59255 -0.0524,-0.23978 -0.15159,-0.3831 -0.0992,-0.14607 -0.24253,-0.2067 -0.14056,-0.0606 -0.31971,-0.0606 z m 3.15846,0.44098 q 0.0854,0 0.16261,0.0358 0.0772,0.0331 0.13505,0.0909 0.0579,0.0579 0.0909,0.13504 0.0358,0.0772 0.0358,0.16261 0,0.0882 -0.0358,0.16537 -0.0331,0.0744 -0.0909,0.13229 -0.0579,0.0579 -0.13505,0.0909 -0.0772,0.0331 -0.16261,0.0331 -0.0882,0 -0.16536,-0.0331 -0.0744,-0.0331 -0.1323,-0.0909 -0.0579,-0.0579 -0.091,-0.13229 -0.0331,-0.0772 -0.0331,-0.16537 0,-0.0854 0.0331,-0.16261 0.0331,-0.0772 0.091,-0.13504 0.0579,-0.0579 0.1323,-0.0909 0.0772,-0.0358 0.16536,-0.0358 z m 0,2.0202 q 0.0854,0 0.16261,0.0358 0.0772,0.0331 0.13505,0.0909 0.0579,0.0579 0.0909,0.13505 0.0358,0.0772 0.0358,0.1626 0,0.0882 -0.0358,0.16537 -0.0331,0.0744 -0.0909,0.13229 -0.0579,0.0579 -0.13505,0.091 -0.0772,0.0331 -0.16261,0.0331 -0.0882,0 -0.16536,-0.0331 -0.0744,-0.0331 -0.1323,-0.091 -0.0579,-0.0579 -0.091,-0.13229 -0.0331,-0.0772 -0.0331,-0.16537 0,-0.0854 0.0331,-0.1626 0.0331,-0.0772 0.091,-0.13505 0.0579,-0.0579 0.1323,-0.0909 0.0772,-0.0358 0.16536,-0.0358 z m 4.41248,-1.00321 q 0,0.41341 -0.0827,0.75516 -0.0827,0.339 -0.2508,0.58429 -0.16812,0.24253 -0.41892,0.37758 -0.24805,0.13229 -0.58429,0.13229 -0.28939,0 -0.52641,-0.10748 -0.23702,-0.11025 -0.40514,-0.33624 -0.16812,-0.226 -0.25907,-0.57602 -0.0909,-0.35003 -0.0909,-0.82958 0,-0.41341 0.0827,-0.75517 0.0854,-0.34175 0.2508,-0.58428 0.16812,-0.24529 0.41892,-0.37759 0.25081,-0.13504 0.58429,-0.13504 0.28939,0 0.52641,0.11024 0.23702,0.10749 0.40515,0.33624 0.16812,0.226 0.25907,0.57602 0.0909,0.35002 0.0909,0.82958 z m -0.48507,0.0165 q 0,-0.0937 -0.008,-0.18465 -0.006,-0.0937 -0.0138,-0.1819 l -1.52411,1.13274 q 0.0413,0.14332 0.10473,0.26459 0.0634,0.12126 0.15158,0.20946 0.091,0.0854 0.20395,0.13505 0.11576,0.0469 0.26183,0.0469 0.18741,0 0.339,-0.091 0.15434,-0.0909 0.26183,-0.2701 0.10748,-0.17914 0.16536,-0.44373 0.0579,-0.26733 0.0579,-0.61736 z m -1.64814,-0.0331 q 0,0.0854 0,0.17088 0.003,0.0854 0.011,0.16536 l 1.52411,-1.12723 q -0.0413,-0.14056 -0.10473,-0.25632 -0.0634,-0.11575 -0.15159,-0.19843 -0.0882,-0.0854 -0.20119,-0.1323 -0.113,-0.0469 -0.25356,-0.0469 -0.18741,0 -0.34175,0.091 -0.15159,0.0909 -0.25907,0.27285 -0.10749,0.17915 -0.16537,0.44649 -0.0579,0.26458 -0.0579,0.6146 z m 4.52824,2.94624 h -1.35875 v -0.38585 h 0.89573 v -4.34908 h -0.89573 v -0.38585 h 1.35875 z"
         id="text1-8"
         aria-label="temp_grad[19:0]" />
      <path
         d="m 53.857422,112.71289 v 71.5 H 164.48242 v -71.5 z m 0.5,0.5 H 163.98242 v 70.5 H 54.357422 Z"
         id="rect1" />
      <g
         id="g3"
         transform="translate(5.5579642)">
        <path
           style="-inkscape-font-specification:'Arial Bold';stroke-width:0.5"
           d="m 77.786494,121.96883 v -5.55556 h 3.808553 v 0.93982 h -2.68683 v 1.31499 h 2.319238 v 0.93982 h -2.319238 v 2.36093 z m 4.725637,-5.55556 h 1.121723 v 3.00894 q 0,0.71624 0.04169,0.92846 0.072,0.34106 0.341065,0.54949 0.272851,0.20464 0.742762,0.20464 0.47749,0 0.720025,-0.19327 0.242535,-0.19706 0.2918,-0.48128 0.04926,-0.28422 0.04926,-0.94361 v -3.07337 h 1.121722 v 2.91799 q 0,1.00046 -0.09095,1.41352 -0.09095,0.41307 -0.337275,0.69729 -0.242535,0.28422 -0.651812,0.45475 -0.409277,0.16675 -1.068668,0.16675 -0.795817,0 -1.208884,-0.1819 -0.409277,-0.1857 -0.648022,-0.47749 -0.238745,-0.29559 -0.314538,-0.61771 -0.109898,-0.47749 -0.109898,-1.40973 z m 5.623773,5.55556 v -5.55556 h 1.091406 l 2.273763,3.71002 v -3.71002 h 1.042141 v 5.55556 h -1.125513 l -2.239656,-3.62287 v 3.62287 z m 9.148105,-2.0426 1.087617,0.34485 q -0.250114,0.90951 -0.833713,1.35289 -0.57981,0.4396 -1.474157,0.4396 -1.106564,0 -1.81901,-0.75413 -0.712445,-0.75793 -0.712445,-2.06913 0,-1.38699 0.716235,-2.15249 0.716235,-0.76929 1.883433,-0.76929 1.019404,0 1.656057,0.60254 0.378961,0.35623 0.568441,1.0232 l -1.110354,0.26527 q -0.09853,-0.43202 -0.413067,-0.68213 -0.310747,-0.25011 -0.757921,-0.25011 -0.617705,0 -1.004245,0.44338 -0.38275,0.44338 -0.38275,1.43626 0,1.05351 0.378961,1.50068 0.37896,0.44718 0.985297,0.44718 0.447173,0 0.769289,-0.28422 0.322117,-0.28422 0.462332,-0.89435 z m 1.413524,3.57739 v -0.68971 h 4.426257 v 0.68971 z m 6.203577,-1.53479 v -4.61574 h -1.64847 v -0.93982 h 4.41489 v 0.93982 h -1.64469 v 4.61574 z m 3.49402,0 v -5.55556 h 2.36092 q 0.89056,0 1.29226,0.15158 0.40549,0.14779 0.64802,0.53055 0.24254,0.38275 0.24254,0.87539 0,0.62529 -0.3676,1.03457 -0.36759,0.40548 -1.09898,0.51159 0.3638,0.21222 0.59876,0.46612 0.23874,0.25391 0.64044,0.90193 l 0.67834,1.08383 h -1.34152 l -0.81098,-1.20889 q -0.43201,-0.64802 -0.59118,-0.81476 -0.15916,-0.17053 -0.33727,-0.23117 -0.17811,-0.0644 -0.56465,-0.0644 h -0.22738 v 2.31924 z m 1.12172,-3.20601 h 0.82993 q 0.80718,0 1.00803,-0.0682 0.20085,-0.0682 0.31454,-0.23496 0.11369,-0.16674 0.11369,-0.41685 0,-0.28043 -0.15159,-0.45097 -0.14779,-0.17432 -0.42064,-0.21979 -0.13643,-0.019 -0.81856,-0.019 h -0.8754 z m 9.48917,3.20601 h -1.22025 l -0.48507,-1.26194 h -2.22071 l -0.45854,1.26194 h -1.18994 l 2.16387,-5.55556 h 1.18615 z m -2.06533,-2.19797 -0.7655,-2.06155 -0.75034,2.06155 z m 2.67167,2.19797 v -5.55556 h 1.0914 l 2.27377,3.71002 v -3.71002 h 1.04214 v 5.55556 h -1.12551 l -2.23966,-3.62287 v 3.62287 z m 5.30923,-1.80765 1.09141,-0.1061 q 0.0985,0.54949 0.39791,0.80718 0.30317,0.25769 0.81476,0.25769 0.54192,0 0.81477,-0.22737 0.27664,-0.23117 0.27664,-0.53813 0,-0.19705 -0.11748,-0.33348 -0.11369,-0.14022 -0.4017,-0.24254 -0.19706,-0.0682 -0.89813,-0.24253 -0.90193,-0.22359 -1.26573,-0.54949 -0.5116,-0.45854 -0.5116,-1.11794 0,-0.42443 0.23875,-0.79202 0.24253,-0.37138 0.6935,-0.56465 0.45475,-0.19327 1.09519,-0.19327 1.04593,0 1.57269,0.45854 0.53054,0.45854 0.55707,1.22404 l -1.12172,0.0493 q -0.072,-0.42823 -0.31075,-0.61392 -0.23496,-0.18948 -0.70866,-0.18948 -0.48886,0 -0.7655,0.20085 -0.17811,0.12884 -0.17811,0.34485 0,0.19706 0.16674,0.33728 0.21222,0.17811 1.03078,0.37138 0.81855,0.19327 1.20888,0.4017 0.39412,0.20463 0.61392,0.56465 0.22358,0.35622 0.22358,0.88298 0,0.47749 -0.26527,0.89434 -0.26527,0.41686 -0.75034,0.6215 -0.48507,0.20085 -1.20889,0.20085 -1.05351,0 -1.61816,-0.48507 -0.56465,-0.48886 -0.67455,-1.42111 z"
           id="text2"
           aria-label="FUNC_TRANS" />
        <path
           style="-inkscape-font-specification:'Arial Bold';stroke-width:0.5"
           d="m 95.427106,133.76433 v -4.61574 h -1.648478 v -0.93982 h 4.414889 v 0.93982 h -1.644689 v 4.61574 z m 5.237234,-1.28089 1.06109,0.17811 q -0.20464,0.5836 -0.64802,0.89056 -0.4396,0.30317 -1.102779,0.30317 -1.04972,0 -1.553738,-0.68592 -0.397908,-0.54949 -0.397908,-1.387 0,-1.00045 0.522965,-1.5651 0.522966,-0.56844 1.322572,-0.56844 0.898138,0 1.417308,0.59497 0.51918,0.59117 0.49644,1.81522 h -2.667879 q 0.01137,0.4737 0.257693,0.73897 0.246324,0.26148 0.613916,0.26148 0.25011,0 0.42065,-0.13642 0.17053,-0.13643 0.25769,-0.4396 z m 0.0606,-1.07625 q -0.0114,-0.46233 -0.23874,-0.70107 -0.22738,-0.24254 -0.553285,-0.24254 -0.348643,0 -0.57602,0.25391 -0.227376,0.2539 -0.223586,0.6897 z m 1.84554,-1.66742 h 0.98151 v 0.54949 q 0.52675,-0.64044 1.25436,-0.64044 0.38654,0 0.67076,0.15916 0.28422,0.15916 0.46612,0.48128 0.26527,-0.32212 0.57223,-0.48128 0.30696,-0.15916 0.6556,-0.15916 0.44338,0 0.75034,0.1819 0.30696,0.17811 0.45854,0.52675 0.1099,0.2577 0.1099,0.83372 v 2.57314 h -1.06488 v -2.30029 q 0,-0.59876 -0.1099,-0.77308 -0.14779,-0.22738 -0.45475,-0.22738 -0.22358,0 -0.42064,0.13643 -0.19706,0.13642 -0.28422,0.4017 -0.0872,0.26148 -0.0872,0.82992 v 1.9327 h -1.06487 v -2.20555 q 0,-0.58739 -0.0568,-0.75792 -0.0568,-0.17053 -0.17811,-0.25391 -0.11748,-0.0834 -0.32212,-0.0834 -0.24632,0 -0.44338,0.13264 -0.19706,0.13263 -0.28422,0.38275 -0.0834,0.25011 -0.0834,0.82992 v 1.95544 h -1.06488 z m 6.95013,0 h 0.99288 v 0.59118 q 0.19327,-0.30317 0.52297,-0.49265 0.32969,-0.18948 0.73139,-0.18948 0.70108,0 1.18994,0.54949 0.48885,0.54949 0.48885,1.531 0,1.00804 -0.49264,1.5689 -0.49265,0.55707 -1.19373,0.55707 -0.33348,0 -0.60634,-0.13264 -0.26906,-0.13263 -0.56844,-0.45475 v 2.02744 h -1.06488 z m 1.05351,1.94407 q 0,0.67833 0.26907,1.00424 0.26906,0.32212 0.6556,0.32212 0.37138,0 0.6177,-0.29559 0.24633,-0.29938 0.24633,-0.97772 0,-0.63286 -0.25391,-0.93982 -0.2539,-0.30696 -0.62907,-0.30696 -0.39033,0 -0.64802,0.30317 -0.2577,0.29938 -0.2577,0.89056 z"
           id="text3"
           aria-label="Temp" />
      </g>
    </g>
  </g>
</svg>
