<?xml version="1.0" encoding="UTF-8" standalone="no"?>
<!-- Created with Inkscape (http://www.inkscape.org/) -->

<svg
   width="115.43966mm"
   height="55.78027mm"
   viewBox="0 0 115.43966 55.78027"
   version="1.1"
   id="svg1"
   inkscape:version="1.4 (86a8ad7, 2024-10-11)"
   sodipodi:docname="Fig 6-34 TFG.svg"
   xmlns:inkscape="http://www.inkscape.org/namespaces/inkscape"
   xmlns:sodipodi="http://sodipodi.sourceforge.net/DTD/sodipodi-0.dtd"
   xmlns="http://www.w3.org/2000/svg"
   xmlns:svg="http://www.w3.org/2000/svg">
  <sodipodi:namedview
     id="namedview1"
     pagecolor="#ffffff"
     bordercolor="#000000"
     borderopacity="0.25"
     inkscape:showpageshadow="2"
     inkscape:pageopacity="0.0"
     inkscape:pagecheckerboard="0"
     inkscape:deskcolor="#d1d1d1"
     inkscape:document-units="mm"
     inkscape:zoom="1.078823"
     inkscape:cx="424.07329"
     inkscape:cy="30.125425"
     inkscape:window-width="2560"
     inkscape:window-height="1369"
     inkscape:window-x="-8"
     inkscape:window-y="-8"
     inkscape:window-maximized="1"
     inkscape:current-layer="layer1" />
  <defs
     id="defs1" />
  <g
     inkscape:label="Capa 1"
     inkscape:groupmode="layer"
     id="layer1"
     transform="translate(-48.337891,-70.705739)">
    <g
       id="g4">
      <path
         d="M 142.17224,70.705739 H 70.243414 v 55.780271 h 71.928826 z m -0.44492,0.45498 V 126.03066 H 70.698504 V 71.160879 Z"
         id="rect1-1"
         style="color:#000000;fill:#000000;stroke-width:5.29664;-inkscape-stroke:none" />
      <path
         style="-inkscape-font-specification:'Arial Bold';stroke-width:9.02299e-09"
         d="m 86.835674,79.566229 -1.79175,-5.0128 h 1.09763 l 1.26854,3.70998 1.22755,-3.70998 h 1.07369 l -1.79514,5.0128 z m 7.39263,0 h -1.10101 l -0.4375,-1.13867 h -2.00378 l -0.41366,1.13867 h -1.07369 l 1.95245,-5.0128 h 1.07029 z m -1.86357,-1.98322 -0.69068,-1.86013 -0.67702,1.86013 z m 2.42777,1.98322 v -4.97175 h 1.01214 v 4.12715 h 2.51664 v 0.8446 z m 4.0451,-2.47565 q 0,-0.7659 0.22934,-1.28566 0.17109,-0.38294 0.46505,-0.68729 0.29767,-0.30456 0.649686,-0.45127 0.46822,-0.1981 1.08051,-0.1981 1.1079,0 1.77125,0.6873 0.66674,0.68729 0.66674,1.9114 0,1.21388 -0.65991,1.90117 -0.65996,0.6839 -1.76441,0.6839 -1.11812,0 -1.778026,-0.68046 -0.65997,-0.6839 -0.65997,-1.88067 z m 1.04291,-0.0318 q 0,0.85143 0.393006,1.29249 0.39301,0.4375 0.99847,0.4375 0.60519,0 0.99158,-0.43433 0.38984,-0.4375 0.38984,-1.30959 0,-0.86171 -0.37977,-1.28571 -0.37606,-0.42373 -1.00186,-0.42373 -0.62575,0 -1.00875,0.43062 -0.382936,0.42744 -0.382936,1.29254 z m 4.612736,2.50981 v -5.01279 h 2.13026 q 0.80355,0 1.166,0.13665 0.366,0.13348 0.5847,0.47882 0.21875,0.34534 0.21875,0.78988 0,0.5642 -0.33157,0.93349 -0.33157,0.36599 -0.99164,0.46133 0.32839,0.19174 0.54026,0.42056 0.21557,0.22934 0.57786,0.81377 l 0.61208,0.97797 h -1.21044 l -0.73179,-1.09079 q -0.38983,-0.58469 -0.53337,-0.73517 -0.14354,-0.15413 -0.30455,-0.20869 -0.16049,-0.0583 -0.50954,-0.0583 h -0.20498 v 2.09265 z m 1.01208,-2.89281 h 0.74889 q 0.72829,0 0.90954,-0.0614 0.18115,-0.0614 0.2839,-0.21187 0.10276,-0.15042 0.10276,-0.37606 0,-0.25318 -0.13665,-0.40678 -0.13348,-0.15731 -0.37977,-0.1981 -0.12342,-0.0159 -0.73862,-0.0159 h -0.78989 z m 3.46724,4.27762 v -0.6223 h 3.99382 v 0.6223 z m 8.98951,-1.38481 h -1.10101 l -0.4375,-1.13867 h -2.00372 l -0.41367,1.13867 h -1.07363 l 1.95245,-5.01279 h 1.07024 z m -1.86357,-1.98322 -0.69068,-1.86013 -0.67702,1.86013 z m 2.40383,-3.02957 h 2.00377 q 0.59497,0 0.8856,0.053 0.29397,0.0477 0.52331,0.20498 0.23252,0.15731 0.38613,0.42056 0.1536,0.26006 0.1536,0.58475 0,0.35222 -0.19121,0.64624 -0.18803,0.29396 -0.51272,0.44121 0.45816,0.13348 0.7044,0.45498 0.2463,0.32151 0.2463,0.75567 0,0.34217 -0.16049,0.6668 -0.15731,0.3215 -0.43432,0.51642 -0.27331,0.19121 -0.67702,0.2357 -0.25318,0.0265 -1.22072,0.0318 h -1.70626 z m 1.01214,0.83432 v 1.15917 h 0.66335 q 0.59158,0 0.73517,-0.0159 0.26007,-0.0318 0.40678,-0.17796 0.15043,-0.15043 0.15043,-0.39301 0,-0.23253 -0.12977,-0.37607 -0.12659,-0.14724 -0.37977,-0.17796 -0.15042,-0.0159 -0.8651,-0.0159 z m 0,1.9935 v 1.34037 h 0.93692 q 0.54709,0 0.69412,-0.0318 0.22564,-0.0424 0.366,-0.19809 0.14354,-0.16049 0.14354,-0.42744 0,-0.22564 -0.10964,-0.38295 -0.10964,-0.15731 -0.3178,-0.22935 -0.20498,-0.0715 -0.89587,-0.0715 z m 3.78524,0.55392 0.98475,-0.0959 q 0.089,0.49576 0.35912,0.72834 0.2733,0.23252 0.73512,0.23252 0.48888,0 0.73517,-0.20498 0.24947,-0.20869 0.24947,-0.4857 0,-0.17797 -0.10593,-0.30085 -0.10276,-0.12659 -0.36229,-0.21875 -0.17797,-0.0614 -0.81039,-0.21876 -0.81383,-0.2018 -1.14206,-0.49576 -0.46187,-0.41367 -0.46187,-1.00869 0,-0.38295 0.21558,-0.71468 0.21875,-0.33528 0.62574,-0.50954 0.41049,-0.17426 0.9882,-0.17426 0.94375,0 1.41907,0.41367 0.47882,0.41367 0.50266,1.10446 l -1.01209,0.0424 q -0.0651,-0.38612 -0.28019,-0.55398 -0.21187,-0.17108 -0.63941,-0.17108 -0.44121,0 -0.69074,0.18115 -0.16048,0.11652 -0.16048,0.31144 0,0.17797 0.15042,0.30403 0.19174,0.16049 0.93009,0.33528 0.73856,0.17426 1.09079,0.36229 0.35541,0.18485 0.55392,0.50953 0.20181,0.32151 0.20181,0.79672 0,0.43062 -0.23941,0.80695 -0.23941,0.37606 -0.67702,0.56081 -0.4375,0.18114 -1.09079,0.18114 -0.95059,0 -1.46007,-0.4375 -0.50954,-0.44121 -0.60864,-1.28227 z"
         id="text1-8"
         aria-label="VALOR_ABS" />
      <path
         style="color:#000000;font-style:normal;font-variant:normal;font-weight:normal;font-stretch:normal;font-size:medium;line-height:normal;font-family:sans-serif;-inkscape-font-specification:'Arial Bold';font-variant-ligatures:normal;font-variant-position:normal;font-variant-caps:normal;font-variant-numeric:normal;font-variant-alternates:normal;font-variant-east-asian:normal;font-feature-settings:normal;font-variation-settings:normal;text-indent:0;text-align:start;text-decoration-line:none;text-decoration-style:solid;text-decoration-color:#000000;letter-spacing:normal;word-spacing:normal;text-transform:none;writing-mode:lr-tb;direction:ltr;text-orientation:mixed;dominant-baseline:auto;baseline-shift:baseline;text-anchor:start;white-space:normal;shape-padding:0;shape-margin:0;inline-size:0;clip-rule:nonzero;display:inline;overflow:visible;visibility:visible;isolation:auto;mix-blend-mode:normal;color-interpolation:sRGB;color-interpolation-filters:linearRGB;solid-color:#000000;solid-opacity:1;vector-effect:none;fill:#000000;fill-opacity:1;fill-rule:nonzero;stroke:none;stroke-linecap:butt;stroke-linejoin:miter;stroke-miterlimit:4;stroke-dasharray:none;stroke-dashoffset:0;stroke-opacity:1;-inkscape-stroke:none;color-rendering:auto;image-rendering:auto;shape-rendering:auto;text-rendering:auto;enable-background:accumulate;stop-color:#000000;stop-opacity:1"
         d="m 98.823934,88.196529 v -4.16475 h -1.4874 v -0.84805 h 3.983546 v 0.84805 h -1.484006 v 4.16475 z m 4.725556,-1.15573 0.95742,0.16049 q -0.18485,0.52648 -0.58469,0.80355 -0.39672,0.27331 -0.99508,0.27331 -0.94715,0 -1.40192,-0.61892 -0.35911,-0.49576 -0.35911,-1.25149 0,-0.9027 0.47193,-1.41219 0.47193,-0.51271 1.19339,-0.51271 0.81038,0 1.27882,0.53687 0.46822,0.53342 0.4481,1.63782 h -2.40722 q 0.0106,0.42744 0.23252,0.6668 0.22246,0.2357 0.55392,0.2357 0.22564,0 0.37977,-0.12288 0.1536,-0.12289 0.23252,-0.39672 z m 0.0546,-0.97109 q -0.0106,-0.41737 -0.21557,-0.63258 -0.20498,-0.21875 -0.49948,-0.21875 -0.31462,0 -0.5196,0.22935 -0.20498,0.22934 -0.2018,0.62235 z m 1.66521,-1.50451 h 0.8856 v 0.49577 q 0.47511,-0.57787 1.13184,-0.57787 0.34852,0 0.60519,0.14354 0.25636,0.14354 0.42056,0.43433 0.2394,-0.29079 0.51642,-0.43433 0.27701,-0.14354 0.59153,-0.14354 0.39989,0 0.67707,0.1642 0.27701,0.16049 0.41367,0.47511 0.099,0.23252 0.099,0.75228 v 2.32173 h -0.96081 v -2.07554 q 0,-0.54026 -0.099,-0.69757 -0.13348,-0.20498 -0.41049,-0.20498 -0.20181,0 -0.37977,0.12288 -0.17797,0.12288 -0.25636,0.36229 -0.0789,0.2357 -0.0789,0.74884 v 1.74387 h -0.96081 v -1.99006 q 0,-0.52998 -0.053,-0.6839 -0.053,-0.15413 -0.16049,-0.22934 -0.10593,-0.0752 -0.29078,-0.0752 -0.22246,0 -0.3999,0.11971 -0.17797,0.1197 -0.25636,0.34534 -0.0752,0.22564 -0.0752,0.74884 v 1.76436 h -0.96086 z m 6.27112,0 h 0.89587 v 0.53337 q 0.17426,-0.2733 0.47193,-0.44439 0.29768,-0.17108 0.65991,-0.17108 0.63258,0 1.07369,0.49577 0.44121,0.49576 0.44121,1.38142 0,0.90954 -0.44439,1.41563 -0.44439,0.50265 -1.07713,0.50265 -0.30085,0 -0.54709,-0.1197 -0.24258,-0.11971 -0.51271,-0.41049 v 1.82935 h -0.96081 z m 0.95059,1.75409 q 0,0.61208 0.24258,0.90615 0.24259,0.29079 0.59159,0.29079 0.33527,0 0.55731,-0.26643 0.22246,-0.27012 0.22246,-0.8822 0,-0.57104 -0.22935,-0.848 -0.22934,-0.27701 -0.56758,-0.27701 -0.35223,0 -0.5847,0.27331 -0.23252,0.27012 -0.23252,0.80355 z"
         id="text2-7"
         aria-label="Temp" />
      <path
         d="m 73.194704,100.66525 q 0,-0.3374 0.0922,-0.59799 0.0922,-0.263251 0.26059,-0.442801 0.17109,-0.18168 0.40838,-0.27384 0.23993,-0.0948 0.53215,-0.0948 0.12659,0 0.24788,0.0159 0.12394,0.0159 0.24259,0.0477 v -1.11177 h 0.46081 v 3.722491 h -0.41102 l -0.0159,-0.50054 q -0.19227,0.27914 -0.41632,0.41367 -0.22405,0.13454 -0.48464,0.13454 -0.2267,0 -0.40043,-0.0948 -0.17108,-0.0948 -0.28708,-0.2659 -0.11334,-0.17373 -0.17108,-0.41631 -0.0577,-0.24259 -0.0577,-0.53745 z m 0.46875,-0.0265 q 0,0.47935 0.13983,0.71659 0.14248,0.23464 0.40043,0.23464 0.17373,0 0.366,-0.15519 0.19491,-0.1552 0.40837,-0.46081 v -1.227661 q -0.11335,-0.053 -0.25,-0.0789 -0.13719,-0.0265 -0.27119,-0.0265 -0.37394,0 -0.58486,0.24259 -0.20816,0.242581 -0.20816,0.758691 z m 4.33107,1.29615 -0.0106,-0.35541 q -0.2161,0.21346 -0.44015,0.30827 -0.2214,0.0948 -0.4661,0.0948 -0.2267,0 -0.38719,-0.0583 -0.16049,-0.0577 -0.26589,-0.15784 -0.10275,-0.10275 -0.15307,-0.23994 -0.0477,-0.13718 -0.0477,-0.29767 0,-0.39778 0.29502,-0.62177 0.29767,-0.2267 0.87728,-0.2267 h 0.54794 v -0.23199 q 0,-0.234641 -0.14989,-0.373941 -0.15043,-0.14248 -0.45869,-0.14248 -0.22405,0 -0.4428,0.0477 -0.2161,0.0477 -0.44757,0.14248 v -0.41367 q 0.0869,-0.0318 0.19227,-0.0604 0.10805,-0.0318 0.2267,-0.0551 0.11864,-0.0212 0.24735,-0.0371 0.12924,-0.0159 0.26059,-0.0159 0.23994,0 0.43221,0.053 0.19227,0.053 0.32415,0.16049 0.13454,0.10805 0.20551,0.27119 0.071,0.16314 0.071,0.384541 v 1.82299 z m -0.053,-1.20393 h -0.58221 q -0.17108,0 -0.29502,0.0318 -0.12394,0.0318 -0.20286,0.0975 -0.0789,0.063 -0.11865,0.15307 -0.0371,0.0869 -0.0371,0.19756 0,0.0763 0.0212,0.14778 0.0265,0.0683 0.0763,0.12394 0.053,0.053 0.13719,0.0842 0.0842,0.0318 0.20551,0.0318 0.15784,0 0.3607,-0.0948 0.20551,-0.0975 0.43221,-0.30562 z m 3.44848,1.16706 q -0.15572,0.0371 -0.3215,0.0551 -0.16579,0.0159 -0.3374,0.0159 -0.49788,0 -0.7429,-0.22405 -0.24524,-0.2267 -0.24524,-0.69286 v -1.380461 h -0.74031 v -0.38454 h 0.74031 v -0.72712 l 0.45816,-0.11864 v 0.84566 h 1.18814 v 0.38453 h -1.18814 v 1.343601 q 0,0.28443 0.1499,0.42691 0.15307,0.13983 0.44809,0.13983 0.12659,0 0.27649,-0.0159 0.14989,-0.0212 0.31356,-0.063 z m 3.13763,-1.30668 q 0,0.30826 -0.0869,0.56642 -0.0869,0.2553 -0.25,0.44015 -0.16313,0.18168 -0.39777,0.28443 -0.23465,0.10011 -0.53216,0.10011 -0.28443,0 -0.51112,-0.0869 -0.22405,-0.0895 -0.38189,-0.26059 -0.15519,-0.17108 -0.23994,-0.42426 -0.0816,-0.25265 -0.0816,-0.58221 0,-0.30826 0.0869,-0.56113 0.0869,-0.255821 0.25,-0.437501 0.16313,-0.18432 0.39778,-0.28443 0.23464,-0.10275 0.53215,-0.10275 0.28443,0 0.50848,0.0895 0.22669,0.0869 0.38189,0.25795 0.15784,0.16843 0.23993,0.421611 0.0842,0.25265 0.0842,0.57956 z m -0.46875,0.0212 q 0,-0.24524 -0.0556,-0.42691 -0.053,-0.18433 -0.15254,-0.305621 -0.10011,-0.12394 -0.24524,-0.18432 -0.14248,-0.063 -0.31885,-0.063 -0.20551,0 -0.35276,0.0816 -0.14513,0.0789 -0.23994,0.21346 -0.0922,0.134531 -0.13718,0.313561 -0.0424,0.17638 -0.0424,0.3713 0,0.2447 0.053,0.42955 0.0551,0.18433 0.15519,0.30827 0.10011,0.12129 0.24259,0.18432 0.14248,0.0604 0.32151,0.0604 0.20551,0 0.3501,-0.0789 0.14778,-0.0816 0.23994,-0.2161 0.0948,-0.13454 0.13719,-0.31091 0.0424,-0.17903 0.0424,-0.37659 z m 3.67772,2.40261 h -2.96638 v -0.37924 h 2.96638 z m 0.17373,-3.725131 h 0.52172 l 0.6481,1.749271 0.13983,0.42691 0.14513,-0.43751 0.6428,-1.738731 h 0.50318 l -1.03798,2.644991 h -0.52702 z m 4.91327,2.644981 -0.0106,-0.3554 q -0.2161,0.21345 -0.44015,0.30826 -0.2214,0.0948 -0.46611,0.0948 -0.22669,0 -0.38718,-0.0583 -0.16049,-0.0577 -0.26589,-0.15784 -0.10276,-0.10276 -0.15308,-0.23994 -0.0477,-0.13718 -0.0477,-0.29767 0,-0.39778 0.29502,-0.62177 0.29767,-0.2267 0.87728,-0.2267 h 0.54794 v -0.23199 q 0,-0.234641 -0.1499,-0.373951 -0.15042,-0.14248 -0.45816,-0.14248 -0.22404,0 -0.4428,0.0477 -0.2161,0.0477 -0.44809,0.14248 v -0.41366 q 0.0869,-0.0318 0.19227,-0.0604 0.10805,-0.0318 0.22669,-0.0551 0.11865,-0.0212 0.24736,-0.0371 0.12923,-0.0159 0.26059,-0.0159 0.23994,0 0.43221,0.053 0.19227,0.053 0.32415,0.16049 0.13454,0.10805 0.20551,0.27119 0.071,0.16313 0.071,0.384531 v 1.823 z m -0.053,-1.20393 h -0.58221 q -0.17108,0 -0.29502,0.0318 -0.12395,0.0318 -0.20287,0.0975 -0.0789,0.063 -0.11864,0.15308 -0.0371,0.0869 -0.0371,0.19756 0,0.0763 0.0212,0.14778 0.0265,0.0683 0.0763,0.12394 0.053,0.053 0.13718,0.0842 0.0842,0.0318 0.20551,0.0318 0.15784,0 0.36071,-0.0948 0.20551,-0.0975 0.4322,-0.30561 z m 2.21818,-2.141801 h -0.78189 v -0.37659 h 1.24609 v 3.340491 h 0.78771 v 0.38188 h -2.12072 v -0.38188 h 0.86934 z m 4.6103,4.425881 h -2.96638 v -0.37924 h 2.96638 z m 1.322516,-3.345731 h -0.78242 v -0.37924 h 1.24609 v 2.262991 h 0.78771 v 0.38188 h -2.12077 v -0.38188 h 0.86939 z m 0.16049,-1.48852 q 0.0763,0 0.14248,0.0265 0.0657,0.0265 0.11335,0.0763 0.0477,0.0477 0.0763,0.116 0.0265,0.063 0.0265,0.13983 0,0.0736 -0.0265,0.13983 -0.0265,0.0657 -0.0763,0.116 -0.0477,0.0477 -0.11335,0.0789 -0.0657,0.0265 -0.14248,0.0265 -0.0763,0 -0.14248,-0.0265 -0.0657,-0.0265 -0.116,-0.0789 -0.0477,-0.0477 -0.0763,-0.116 -0.0265,-0.0657 -0.0265,-0.13983 0,-0.0763 0.0265,-0.13983 0.0265,-0.0657 0.0763,-0.116 0.0477,-0.0477 0.116,-0.0763 0.0657,-0.0265 0.14248,-0.0265 z"
         id="text3-18"
         style="color:#000000;font-style:normal;font-variant:normal;font-weight:normal;font-stretch:normal;font-size:medium;line-height:normal;font-family:sans-serif;-inkscape-font-specification:Consolas;font-variant-ligatures:normal;font-variant-position:normal;font-variant-caps:normal;font-variant-numeric:normal;font-variant-alternates:normal;font-variant-east-asian:normal;font-feature-settings:normal;font-variation-settings:normal;text-indent:0;text-align:start;text-decoration-line:none;text-decoration-style:solid;text-decoration-color:#000000;letter-spacing:normal;word-spacing:normal;text-transform:none;writing-mode:lr-tb;direction:ltr;text-orientation:mixed;dominant-baseline:auto;baseline-shift:baseline;text-anchor:start;white-space:normal;shape-padding:0;shape-margin:0;inline-size:0;clip-rule:nonzero;display:inline;overflow:visible;visibility:visible;isolation:auto;mix-blend-mode:normal;color-interpolation:sRGB;color-interpolation-filters:linearRGB;solid-color:#000000;solid-opacity:1;vector-effect:none;fill:#000000;fill-opacity:1;fill-rule:nonzero;stroke:none;stroke-linecap:butt;stroke-linejoin:miter;stroke-miterlimit:4;stroke-dasharray:none;stroke-dashoffset:0;stroke-opacity:1;-inkscape-stroke:none;color-rendering:auto;image-rendering:auto;shape-rendering:auto;text-rendering:auto;enable-background:accumulate;stop-color:#000000;stop-opacity:1"
         aria-label="dato_val_i" />
      <path
         d="m 75.236924,110.1125 q -0.15519,0.0371 -0.3215,0.0551 -0.16579,0.0159 -0.3374,0.0159 -0.49788,0 -0.7429,-0.22404 -0.24524,-0.2267 -0.24524,-0.69291 v -1.38041 h -0.74026 v -0.38454 h 0.74026 v -0.72712 l 0.45869,-0.11865 v 0.84567 h 1.18814 v 0.38453 h -1.18814 v 1.34355 q 0,0.28443 0.14989,0.42691 0.15308,0.13983 0.4481,0.13983 0.12659,0 0.27649,-0.0159 0.14989,-0.0212 0.31356,-0.063 z m 3.0692,-1.42528 q 0,0.0975 -0.003,0.16314 -0.003,0.0657 -0.0106,0.12394 h -1.85727 q 0,0.40573 0.22669,0.62437 0.2267,0.2161 0.65335,0.2161 0.11599,0 0.23199,-0.005 0.11599,-0.0106 0.22405,-0.0265 0.10805,-0.0159 0.20551,-0.0318 0.1001,-0.0212 0.18432,-0.0424 v 0.37659 q -0.18697,0.053 -0.42426,0.0842 -0.23464,0.0318 -0.48729,0.0318 -0.34005,0 -0.58486,-0.0922 -0.24523,-0.0922 -0.40307,-0.26589 -0.15519,-0.17638 -0.232,-0.42956 -0.0736,-0.25583 -0.0736,-0.57697 0,-0.27913 0.0789,-0.52701 0.0816,-0.25 0.23464,-0.4375 0.15572,-0.18962 0.37924,-0.30032 0.22405,-0.1107 0.50848,-0.1107 0.27648,0 0.48994,0.0869 0.21345,0.0869 0.35805,0.24788 0.14778,0.15837 0.2214,0.38719 0.0763,0.2267 0.0763,0.50848 z m -0.4767,-0.0657 q 0.005,-0.17638 -0.0371,-0.32151 -0.0424,-0.14778 -0.13188,-0.25318 -0.0869,-0.1054 -0.21875,-0.16314 -0.13189,-0.0604 -0.30562,-0.0604 -0.1499,0 -0.27384,0.0577 -0.12394,0.0583 -0.21345,0.16313 -0.0895,0.10541 -0.14513,0.25318 -0.0551,0.14778 -0.0683,0.32416 z m 3.09546,1.52797 v -1.89943 q 0,-0.12394 -0.0106,-0.20286 -0.005,-0.0789 -0.0318,-0.12394 -0.0159,-0.0477 -0.0477,-0.0657 -0.0318,-0.0159 -0.0736,-0.0159 -0.053,0 -0.0975,0.0318 -0.0424,0.0318 -0.0975,0.10276 -0.053,0.071 -0.11335,0.18962 -0.0604,0.11599 -0.14513,0.28707 v 1.69922 h -0.41896 v -1.84938 q 0,-0.14512 -0.0106,-0.23464 -0.005,-0.0895 -0.0318,-0.13983 -0.0159,-0.0477 -0.0477,-0.0683 -0.0318,-0.0159 -0.0763,-0.0159 -0.0477,0 -0.0895,0.0265 -0.0424,0.0265 -0.0948,0.0948 -0.053,0.0683 -0.11335,0.18697 -0.063,0.11864 -0.14989,0.30297 v 1.69921 h -0.42055 v -2.64498 h 0.3501 l 0.0212,0.50318 q 0.0683,-0.15042 0.13189,-0.2553 0.0657,-0.1054 0.13453,-0.16843 0.0683,-0.0657 0.14513,-0.0948 0.0789,-0.0318 0.17373,-0.0318 0.21345,0 0.32415,0.13983 0.1107,0.13983 0.1107,0.43221 0.063,-0.13719 0.12395,-0.24259 0.0604,-0.10805 0.12923,-0.17903 0.071,-0.0736 0.15519,-0.1107 0.0842,-0.0371 0.19492,-0.0371 0.49789,0 0.49789,0.76658 v 1.92581 z m 3.34049,-1.36992 q 0,0.35328 -0.10011,0.61647 -0.0974,0.26325 -0.27118,0.43751 -0.17373,0.17373 -0.41102,0.26112 -0.23729,0.0869 -0.51378,0.0869 -0.12659,0 -0.25318,-0.0106 -0.12394,-0.0106 -0.25265,-0.0424 v 1.10647 h -0.45869 v -3.72513 h 0.40837 l 0.0318,0.4428 q 0.19757,-0.27119 0.42162,-0.37924 0.22404,-0.1107 0.48464,-0.1107 0.2267,0 0.39778,0.0948 0.17108,0.0948 0.28708,0.26854 0.11599,0.17108 0.17373,0.41632 0.0577,0.24258 0.0577,0.54269 z m -0.46875,0.0212 q 0,-0.20815 -0.0318,-0.38188 -0.0318,-0.17373 -0.0948,-0.29767 -0.0657,-0.12395 -0.16844,-0.19227 -0.10275,-0.071 -0.24523,-0.071 -0.0869,0 -0.17638,0.0265 -0.0895,0.0265 -0.18697,0.0922 -0.0948,0.063 -0.20286,0.17108 -0.1054,0.1054 -0.2267,0.26324 v 1.28295 q 0.12659,0.053 0.26589,0.0842 0.13984,0.0265 0.27384,0.0265 0.37129,0 0.58221,-0.25 0.2108,-0.25318 0.2108,-0.75874 z m 3.71988,2.42899 h -2.96644 v -0.37924 h 2.96612 z m 1.32247,-3.34578 h -0.78242 v -0.37924 h 1.24609 v 2.26299 h 0.78771 v 0.38189 h -2.12072 v -0.38189 h 0.86934 z m 0.16049,-1.48846 q 0.0763,0 0.14248,0.0265 0.0657,0.0265 0.11334,0.0763 0.053,0.0477 0.0763,0.116 0.0318,0.063 0.0318,0.13983 0,0.0736 -0.0318,0.13983 -0.0265,0.0657 -0.0763,0.116 -0.0477,0.0477 -0.11334,0.0789 -0.0657,0.0265 -0.14248,0.0265 -0.0763,0 -0.14248,-0.0265 -0.0657,-0.0265 -0.116,-0.0789 -0.0477,-0.0477 -0.0763,-0.116 -0.0265,-0.0657 -0.0265,-0.13983 0,-0.0763 0.0265,-0.13983 0.0265,-0.0657 0.0763,-0.116 0.053,-0.0477 0.116,-0.0763 0.0657,-0.0265 0.14248,-0.0265 z m 1.90472,1.10911 h 0.40837 l 0.0212,0.42691 q 0.116,-0.13718 0.22405,-0.22669 0.10805,-0.0922 0.2108,-0.14778 0.10541,-0.0556 0.21346,-0.0763 0.10805,-0.0212 0.22405,-0.0212 0.40837,0 0.61647,0.24206 0.21081,0.23994 0.21081,0.72447 v 1.7256 h -0.45816 v -1.68868 q 0,-0.31091 -0.116,-0.45816 -0.11599,-0.14989 -0.34534,-0.14989 -0.0842,0 -0.16578,0.0265 -0.0789,0.0212 -0.16579,0.0869 -0.0869,0.0604 -0.18962,0.16579 -0.1001,0.1054 -0.22669,0.26324 v 1.75457 h -0.45816 z"
         id="text4-2"
         style="color:#000000;font-style:normal;font-variant:normal;font-weight:normal;font-stretch:normal;font-size:medium;line-height:normal;font-family:sans-serif;-inkscape-font-specification:Consolas;font-variant-ligatures:normal;font-variant-position:normal;font-variant-caps:normal;font-variant-numeric:normal;font-variant-alternates:normal;font-variant-east-asian:normal;font-feature-settings:normal;font-variation-settings:normal;text-indent:0;text-align:start;text-decoration-line:none;text-decoration-style:solid;text-decoration-color:#000000;letter-spacing:normal;word-spacing:normal;text-transform:none;writing-mode:lr-tb;direction:ltr;text-orientation:mixed;dominant-baseline:auto;baseline-shift:baseline;text-anchor:start;white-space:normal;shape-padding:0;shape-margin:0;inline-size:0;clip-rule:nonzero;display:inline;overflow:visible;visibility:visible;isolation:auto;mix-blend-mode:normal;color-interpolation:sRGB;color-interpolation-filters:linearRGB;solid-color:#000000;solid-opacity:1;vector-effect:none;fill:#000000;fill-opacity:1;fill-rule:nonzero;stroke:none;stroke-linecap:butt;stroke-linejoin:miter;stroke-miterlimit:4;stroke-dasharray:none;stroke-dashoffset:0;stroke-opacity:1;-inkscape-stroke:none;color-rendering:auto;image-rendering:auto;shape-rendering:auto;text-rendering:auto;enable-background:accumulate;stop-color:#000000;stop-opacity:1"
         aria-label="temp_in" />
      <path
         d="m 110.1838,108.86636 q 0,-0.3374 0.0922,-0.59805 0.0922,-0.26324 0.26059,-0.4428 0.17108,-0.18167 0.40837,-0.27383 0.23994,-0.0948 0.53215,-0.0948 0.12659,0 0.24789,0.0159 0.12394,0.0159 0.24258,0.0477 v -1.11172 h 0.46081 v 3.72249 h -0.41102 l -0.0159,-0.50054 q -0.19227,0.27914 -0.41631,0.41367 -0.22405,0.13454 -0.48465,0.13454 -0.22669,0 -0.40042,-0.0948 -0.17108,-0.0948 -0.28708,-0.2659 -0.11335,-0.17373 -0.17108,-0.41631 -0.0577,-0.24206 -0.0577,-0.5374 z m 0.46876,-0.0265 q 0,0.47935 0.13983,0.71659 0.14248,0.23464 0.40042,0.23464 0.17373,0 0.366,-0.15519 0.19492,-0.15573 0.40837,-0.46134 v -1.22765 q -0.11334,-0.053 -0.25053,-0.0789 -0.13718,-0.0265 -0.27119,-0.0265 -0.37394,0 -0.58485,0.24259 -0.20816,0.24258 -0.20816,0.75874 z m 4.33106,1.29615 -0.0106,-0.35541 q -0.2161,0.21346 -0.44015,0.30827 -0.2214,0.0948 -0.46611,0.0948 -0.22669,0 -0.38718,-0.0577 -0.16049,-0.0577 -0.26589,-0.15784 -0.10276,-0.10275 -0.15255,-0.23994 -0.0477,-0.13718 -0.0477,-0.29767 0,-0.39778 0.29503,-0.62172 0.29767,-0.22669 0.87728,-0.22669 h 0.54799 v -0.232 q 0,-0.23464 -0.15042,-0.37394 -0.1499,-0.14248 -0.45816,-0.14248 -0.22405,0 -0.4428,0.0477 -0.21611,0.0477 -0.4481,0.14248 v -0.41367 q 0.0869,-0.0318 0.19227,-0.0604 0.10805,-0.0318 0.22669,-0.0551 0.11865,-0.0212 0.24789,-0.0371 0.12924,-0.0159 0.26059,-0.0159 0.23994,0 0.43221,0.053 0.19227,0.053 0.32415,0.16048 0.13454,0.10806 0.20551,0.27119 0.071,0.16314 0.071,0.38454 v 1.82305 z m -0.0477,-1.20393 h -0.58221 q -0.17108,0 -0.29502,0.0318 -0.12394,0.0318 -0.20286,0.0975 -0.0789,0.063 -0.11864,0.15307 -0.0371,0.0869 -0.0371,0.19756 0,0.0763 0.0212,0.14778 0.0212,0.0683 0.0763,0.12394 0.053,0.053 0.13718,0.0842 0.0842,0.0318 0.20551,0.0318 0.15784,0 0.3607,-0.0948 0.20551,-0.0975 0.43221,-0.30562 z m 3.44849,1.16706 q -0.15519,0.0371 -0.32151,0.0551 -0.16578,0.0159 -0.3374,0.0159 -0.49788,0 -0.74296,-0.22405 -0.24523,-0.2267 -0.24523,-0.69291 v -1.38041 H 115.997 v -0.38454 h 0.74031 v -0.72712 l 0.45816,-0.11864 v 0.84566 h 1.18814 v 0.38453 h -1.18814 v 1.34355 q 0,0.28443 0.15042,0.42691 0.15308,0.13983 0.4481,0.13983 0.12659,0 0.27648,-0.0159 0.15043,-0.0212 0.31357,-0.063 z m 3.13768,-1.30673 q 0,0.30826 -0.0869,0.56642 -0.0869,0.2553 -0.25053,0.44015 -0.16314,0.18167 -0.39778,0.28443 -0.23464,0.10011 -0.53221,0.10011 -0.28443,0 -0.51112,-0.0869 -0.22405,-0.0895 -0.38189,-0.26059 -0.15519,-0.17109 -0.23994,-0.42426 -0.0816,-0.25318 -0.0816,-0.58221 0,-0.30827 0.0869,-0.56113 0.0869,-0.2553 0.25053,-0.4375 0.16314,-0.18432 0.39778,-0.28443 0.23464,-0.10276 0.53215,-0.10276 0.28443,0 0.50848,0.0895 0.2267,0.0869 0.38189,0.25794 0.15784,0.16844 0.23994,0.42162 0.0842,0.25318 0.0842,0.57956 z m -0.46876,0.0212 q 0,-0.24523 -0.0551,-0.42691 -0.053,-0.18432 -0.15308,-0.30561 -0.1001,-0.12394 -0.24523,-0.18433 -0.14248,-0.063 -0.31886,-0.063 -0.20551,0 -0.35275,0.0816 -0.14513,0.0789 -0.23994,0.21346 -0.0922,0.13453 -0.13719,0.31356 -0.0424,0.17638 -0.0424,0.37129 0,0.24524 0.053,0.42956 0.0551,0.18432 0.15519,0.30826 0.10011,0.1213 0.24259,0.18433 0.14248,0.0604 0.3215,0.0604 0.20551,0 0.35011,-0.0789 0.14778,-0.0816 0.23994,-0.2161 0.0948,-0.13454 0.13718,-0.31092 0.0424,-0.17902 0.0424,-0.37659 z m 3.67773,2.40267 h -2.96644 v -0.37924 h 2.96644 z m 0.17373,-3.72513 h 0.52172 l 0.64804,1.74927 0.13983,0.42691 0.14513,-0.43751 0.6428,-1.73873 h 0.50318 l -1.03798,2.64499 h -0.52702 z m 4.91321,2.64498 -0.0106,-0.3554 q -0.2161,0.21345 -0.44015,0.30826 -0.2214,0.0948 -0.4661,0.0948 -0.2267,0 -0.38719,-0.0577 -0.16049,-0.0577 -0.26589,-0.15784 -0.10275,-0.10276 -0.15254,-0.23994 -0.0477,-0.13718 -0.0477,-0.29767 0,-0.39778 0.29502,-0.62172 0.29767,-0.2267 0.87728,-0.2267 h 0.54794 v -0.23199 q 0,-0.23464 -0.15042,-0.37394 -0.15043,-0.14248 -0.45816,-0.14248 -0.22405,0 -0.4428,0.0477 -0.21611,0.0477 -0.4481,0.14248 v -0.41367 q 0.0869,-0.0318 0.19227,-0.0604 0.10805,-0.0318 0.2267,-0.0551 0.11864,-0.0212 0.24788,-0.0371 0.12924,-0.0159 0.26059,-0.0159 0.23994,0 0.43221,0.053 0.19227,0.053 0.32415,0.16049 0.13454,0.10805 0.20551,0.27119 0.071,0.16313 0.071,0.38453 v 1.82306 z m -0.0477,-1.20393 h -0.58221 q -0.17108,0 -0.29502,0.0318 -0.12395,0.0318 -0.20287,0.0975 -0.0789,0.063 -0.11864,0.15308 -0.0371,0.0869 -0.0371,0.19756 0,0.0763 0.0212,0.14778 0.0212,0.0683 0.0763,0.12394 0.053,0.053 0.13718,0.0842 0.0842,0.0318 0.20551,0.0318 0.15784,0 0.3607,-0.0948 0.20551,-0.0975 0.43221,-0.30561 z m 2.21823,-2.14185 h -0.78242 v -0.37659 h 1.24609 v 3.34048 h 0.78771 v 0.38189 h -2.12077 v -0.38189 h 0.86939 z m 4.6103,4.42593 h -2.96638 v -0.37924 h 2.96638 z m 2.72401,-2.42375 q 0,0.30827 -0.0869,0.56642 -0.0869,0.2553 -0.25053,0.44016 -0.16314,0.18167 -0.39778,0.28443 -0.23464,0.1001 -0.53215,0.1001 -0.28443,0 -0.51113,-0.0869 -0.22405,-0.0895 -0.38189,-0.2606 -0.15519,-0.17108 -0.23994,-0.42426 -0.0816,-0.25318 -0.0816,-0.58221 0,-0.30826 0.0869,-0.56112 0.0869,-0.2553 0.25,-0.4375 0.16314,-0.18433 0.39778,-0.28443 0.23464,-0.10276 0.53215,-0.10276 0.28443,0 0.50848,0.0895 0.2267,0.0869 0.38189,0.25795 0.15784,0.16843 0.23994,0.42161 0.0842,0.25318 0.0842,0.57956 z m -0.46875,0.0212 q 0,-0.24524 -0.0556,-0.42691 -0.053,-0.18432 -0.15255,-0.30562 -0.1001,-0.12394 -0.24523,-0.18432 -0.14248,-0.063 -0.31886,-0.063 -0.20551,0 -0.35329,0.0816 -0.14512,0.0789 -0.23993,0.21345 -0.0922,0.13454 -0.13719,0.31356 -0.0424,0.17638 -0.0424,0.3713 0,0.24523 0.053,0.42956 0.0551,0.18432 0.15519,0.30826 0.1001,0.12129 0.24258,0.18432 0.14195,0.0604 0.32151,0.0604 0.20551,0 0.35011,-0.0789 0.14777,-0.0816 0.23994,-0.21611 0.0948,-0.13453 0.13718,-0.31091 0.0424,-0.17903 0.0424,-0.37659 z"
         id="text7-3"
         style="color:#000000;font-style:normal;font-variant:normal;font-weight:normal;font-stretch:normal;font-size:medium;line-height:normal;font-family:sans-serif;-inkscape-font-specification:Consolas;font-variant-ligatures:normal;font-variant-position:normal;font-variant-caps:normal;font-variant-numeric:normal;font-variant-alternates:normal;font-variant-east-asian:normal;font-feature-settings:normal;font-variation-settings:normal;text-indent:0;text-align:start;text-decoration-line:none;text-decoration-style:solid;text-decoration-color:#000000;letter-spacing:normal;word-spacing:normal;text-transform:none;writing-mode:lr-tb;direction:ltr;text-orientation:mixed;dominant-baseline:auto;baseline-shift:baseline;text-anchor:start;white-space:normal;shape-padding:0;shape-margin:0;inline-size:0;clip-rule:nonzero;display:inline;overflow:visible;visibility:visible;isolation:auto;mix-blend-mode:normal;color-interpolation:sRGB;color-interpolation-filters:linearRGB;solid-color:#000000;solid-opacity:1;vector-effect:none;fill:#000000;fill-opacity:1;fill-rule:nonzero;stroke:none;stroke-linecap:butt;stroke-linejoin:miter;stroke-miterlimit:4;stroke-dasharray:none;stroke-dashoffset:0;stroke-opacity:1;-inkscape-stroke:none;color-rendering:auto;image-rendering:auto;shape-rendering:auto;text-rendering:auto;enable-background:accumulate;stop-color:#000000;stop-opacity:1"
         aria-label="dato_val_o" />
      <path
         d="m 112.57063,101.76382 q -0.15519,0.0371 -0.32151,0.0551 -0.16578,0.0159 -0.33739,0.0159 -0.49789,0 -0.74291,-0.22405 -0.24523,-0.2267 -0.24523,-0.69285 v -1.380471 h -0.74026 v -0.38453 h 0.74026 v -0.72713 l 0.45868,-0.11864 v 0.84566 h 1.18815 v 0.38454 h -1.18815 v 1.343541 q 0,0.28443 0.15043,0.42691 0.15254,0.13983 0.44757,0.13983 0.12659,0 0.27648,-0.0159 0.15043,-0.0212 0.31356,-0.063 z m 3.06914,-1.42522 q 0,0.0975 -0.003,0.16314 -0.003,0.0657 -0.005,0.12394 h -1.85732 q 0,0.40572 0.2267,0.62437 0.2267,0.2161 0.65334,0.2161 0.116,0 0.23199,-0.005 0.116,-0.0106 0.22405,-0.0265 0.10805,-0.0159 0.20551,-0.0318 0.10011,-0.0212 0.18432,-0.0424 v 0.37659 q -0.18697,0.053 -0.42426,0.0842 -0.23464,0.0318 -0.48729,0.0318 -0.34004,0 -0.5848,-0.0922 -0.24523,-0.0922 -0.40307,-0.2659 -0.15573,-0.17637 -0.232,-0.42955 -0.0736,-0.2553 -0.0736,-0.57697 0,-0.27913 0.0789,-0.527011 0.0816,-0.25 0.23464,-0.43751 0.15519,-0.18962 0.37924,-0.30032 0.22405,-0.11069 0.50848,-0.11069 0.27648,0 0.48994,0.0869 0.21345,0.0869 0.35805,0.24788 0.14778,0.15784 0.2214,0.38719 0.0763,0.226691 0.0763,0.508481 z m -0.4767,-0.0657 q 0.005,-0.17637 -0.0318,-0.321501 -0.0424,-0.14778 -0.13188,-0.25265 -0.0869,-0.1054 -0.21876,-0.16314 -0.13188,-0.0604 -0.30561,-0.0604 -0.15043,0 -0.27384,0.0583 -0.12394,0.0577 -0.21345,0.16314 -0.0895,0.1054 -0.14513,0.25318 -0.0551,0.147781 -0.0683,0.324151 z m 3.09552,1.52798 v -1.899431 q 0,-0.12394 -0.0106,-0.20286 -0.005,-0.0789 -0.0265,-0.12394 -0.0159,-0.0477 -0.0477,-0.0657 -0.0265,-0.0159 -0.0736,-0.0159 -0.053,0 -0.0975,0.0318 -0.0424,0.0318 -0.0975,0.10275 -0.0477,0.071 -0.11335,0.18962 -0.0604,0.116 -0.14512,0.287081 v 1.69922 h -0.41897 v -1.849381 q 0,-0.14513 -0.0106,-0.23464 -0.005,-0.0895 -0.0265,-0.13983 -0.0159,-0.0477 -0.0477,-0.0683 -0.0318,-0.0159 -0.0763,-0.0159 -0.0477,0 -0.0895,0.0265 -0.0424,0.0265 -0.0948,0.0948 -0.0477,0.0683 -0.11335,0.18697 -0.063,0.11864 -0.15042,0.302971 v 1.69921 h -0.42161 v -2.644981 h 0.35063 l 0.0212,0.50318 q 0.0683,-0.1499 0.13189,-0.2553 0.0657,-0.1054 0.13453,-0.16843 0.0683,-0.0657 0.14513,-0.0948 0.0789,-0.0318 0.17373,-0.0318 0.21345,0 0.32415,0.13983 0.1107,0.13983 0.1107,0.4322 0.063,-0.13718 0.12394,-0.24258 0.0604,-0.10805 0.12924,-0.17903 0.071,-0.0736 0.15519,-0.1107 0.0842,-0.0371 0.19492,-0.0371 0.49788,0 0.49788,0.76663 v 1.925761 z m 3.34049,-1.36992 q 0,0.35275 -0.10011,0.61647 -0.0975,0.26325 -0.27119,0.43751 -0.17373,0.17373 -0.41102,0.26059 -0.23729,0.0869 -0.51377,0.0869 -0.12659,0 -0.25318,-0.0106 -0.12394,-0.0106 -0.25265,-0.0424 v 1.10647 h -0.45869 v -3.725131 h 0.40837 l 0.0265,0.4428 q 0.19757,-0.27119 0.42162,-0.37924 0.22404,-0.1107 0.48464,-0.1107 0.22669,0 0.39778,0.0948 0.17108,0.0948 0.28707,0.26854 0.116,0.17108 0.17373,0.41631 0.0577,0.242591 0.0577,0.542701 z m -0.46876,0.0212 q 0,-0.20815 -0.0318,-0.38188 -0.0265,-0.173731 -0.0948,-0.297681 -0.0657,-0.12394 -0.16843,-0.19226 -0.10276,-0.071 -0.24524,-0.071 -0.0869,0 -0.17637,0.0265 -0.0895,0.0265 -0.18697,0.0922 -0.0948,0.063 -0.20287,0.17108 -0.1054,0.1054 -0.22669,0.263241 v 1.28295 q 0.12659,0.053 0.26589,0.0842 0.13983,0.0265 0.27384,0.0265 0.37129,0 0.5822,-0.25053 0.21081,-0.25265 0.21081,-0.75874 z m 3.71989,2.42899 h -2.96639 v -0.37924 h 2.96639 z m 2.72401,-2.42369 q 0,0.30826 -0.0869,0.56637 -0.0869,0.2553 -0.25053,0.44015 -0.16313,0.18168 -0.39778,0.28443 -0.23464,0.10011 -0.53215,0.10011 -0.28443,0 -0.51113,-0.0869 -0.22404,-0.0895 -0.38188,-0.26059 -0.1552,-0.17108 -0.23994,-0.42426 -0.0816,-0.25318 -0.0816,-0.58221 0,-0.30827 0.0869,-0.561131 0.0869,-0.2553 0.25053,-0.4375 0.16313,-0.18432 0.39777,-0.28443 0.23465,-0.10275 0.53216,-0.10275 0.28443,0 0.50848,0.0895 0.22669,0.0869 0.38188,0.25795 0.15784,0.16843 0.23994,0.42161 0.0842,0.253181 0.0842,0.579611 z m -0.46875,0.0212 q 0,-0.24524 -0.0556,-0.42691 -0.053,-0.184331 -0.15254,-0.305621 -0.10011,-0.12394 -0.24524,-0.18432 -0.14248,-0.063 -0.31886,-0.063 -0.20551,0 -0.35275,0.0816 -0.14513,0.0789 -0.23994,0.21345 -0.0922,0.13454 -0.13718,0.313561 -0.0424,0.17638 -0.0424,0.3713 0,0.24523 0.053,0.42955 0.0551,0.18433 0.15519,0.30827 0.10011,0.12129 0.24259,0.18432 0.14248,0.0604 0.3215,0.0604 0.20551,0 0.35064,-0.0789 0.14778,-0.0816 0.23994,-0.2161 0.0948,-0.13453 0.13718,-0.31091 0.0424,-0.17903 0.0424,-0.37659 z m 3.25881,1.32246 h -0.41102 l -0.0159,-0.42691 q -0.11865,0.13719 -0.2267,0.22935 -0.1054,0.0895 -0.2108,0.1446 -0.10541,0.0551 -0.21346,0.0763 -0.1054,0.0212 -0.22405,0.0212 -0.40837,0 -0.61642,-0.23993 -0.20816,-0.23994 -0.20816,-0.72448 v -1.728191 h 0.45869 v 1.691331 q 0,0.60858 0.45816,0.60858 0.0842,0 0.16314,-0.0212 0.0816,-0.0265 0.16843,-0.0869 0.0895,-0.063 0.18962,-0.16843 0.10275,-0.10541 0.22934,-0.2659 v -1.754561 h 0.45816 z m 2.97168,-0.0371 q -0.15572,0.0371 -0.32151,0.0551 -0.16578,0.0159 -0.33739,0.0159 -0.49789,0 -0.74291,-0.22405 -0.24523,-0.22669 -0.24523,-0.69285 v -1.380471 h -0.74026 v -0.38453 h 0.74026 v -0.72712 l 0.45815,-0.11865 v 0.84566 h 1.18815 v 0.38454 h -1.18815 v 1.343551 q 0,0.28442 0.15043,0.4269 0.15307,0.13984 0.4481,0.13984 0.12659,0 0.27648,-0.0159 0.15042,-0.0212 0.31356,-0.063 z"
         id="text8-3"
         style="color:#000000;font-style:normal;font-variant:normal;font-weight:normal;font-stretch:normal;font-size:medium;line-height:normal;font-family:sans-serif;-inkscape-font-specification:Consolas;font-variant-ligatures:normal;font-variant-position:normal;font-variant-caps:normal;font-variant-numeric:normal;font-variant-alternates:normal;font-variant-east-asian:normal;font-feature-settings:normal;font-variation-settings:normal;text-indent:0;text-align:start;text-decoration-line:none;text-decoration-style:solid;text-decoration-color:#000000;letter-spacing:normal;word-spacing:normal;text-transform:none;writing-mode:lr-tb;direction:ltr;text-orientation:mixed;dominant-baseline:auto;baseline-shift:baseline;text-anchor:start;white-space:normal;shape-padding:0;shape-margin:0;inline-size:0;clip-rule:nonzero;display:inline;overflow:visible;visibility:visible;isolation:auto;mix-blend-mode:normal;color-interpolation:sRGB;color-interpolation-filters:linearRGB;solid-color:#000000;solid-opacity:1;vector-effect:none;fill:#000000;fill-opacity:1;fill-rule:nonzero;stroke:none;stroke-linecap:butt;stroke-linejoin:miter;stroke-miterlimit:4;stroke-dasharray:none;stroke-dashoffset:0;stroke-opacity:1;-inkscape-stroke:none;color-rendering:auto;image-rendering:auto;shape-rendering:auto;text-rendering:auto;enable-background:accumulate;stop-color:#000000;stop-opacity:1"
         aria-label="temp_out" />
      <path
         d="m 112.2202,117.63913 q 0,0.13984 -0.0477,0.25001 -0.0477,0.1107 -0.12923,0.19756 -0.0816,0.0842 -0.18962,0.14513 -0.10806,0.0604 -0.232,0.1001 -0.12129,0.0371 -0.25053,0.0577 -0.12924,0.0159 -0.25265,0.0159 -0.26854,0 -0.49523,-0.0212 -0.22405,-0.0212 -0.44016,-0.0763 v -0.42161 q 0.232,0.0657 0.46081,0.1001 0.22935,0.0318 0.45604,0.0318 0.32946,0 0.4873,-0.0895 0.15783,-0.0895 0.15783,-0.2553 0,-0.071 -0.0265,-0.12659 -0.0212,-0.0577 -0.0895,-0.10805 -0.0657,-0.053 -0.20551,-0.10805 -0.13718,-0.0551 -0.37659,-0.12659 -0.17903,-0.053 -0.3321,-0.11865 -0.15043,-0.0683 -0.2606,-0.16048 -0.1107,-0.0922 -0.17373,-0.21611 -0.063,-0.12394 -0.063,-0.29237 0,-0.1107 0.0477,-0.24259 0.053,-0.13188 0.17638,-0.24523 0.12394,-0.11335 0.33475,-0.18697 0.21081,-0.0763 0.52701,-0.0763 0.1552,0 0.34535,0.0159 0.18962,0.0159 0.39513,0.0577 v 0.40837 q -0.21611,-0.053 -0.41102,-0.0763 -0.19227,-0.0265 -0.33475,-0.0265 -0.17108,0 -0.28973,0.0265 -0.11599,0.0265 -0.18962,0.0736 -0.071,0.0424 -0.10275,0.10805 -0.0318,0.0604 -0.0318,0.13189 0,0.071 0.0265,0.12924 0.0265,0.0577 0.10276,0.11334 0.0763,0.053 0.2108,0.10806 0.13454,0.053 0.35011,0.11599 0.23464,0.0683 0.39513,0.14513 0.16049,0.0736 0.26059,0.16579 0.10011,0.0922 0.14248,0.20815 0.0424,0.116 0.0424,0.26325 z m 1.773,-1.54381 h -0.78247 v -0.37924 h 1.24614 v 2.26299 h 0.78766 v 0.38189 h -2.12072 v -0.38189 h 0.86939 z m 0.16049,-1.48846 q 0.0763,0 0.14195,0.0265 0.0657,0.0265 0.11335,0.0763 0.0477,0.0477 0.0763,0.116 0.0265,0.063 0.0265,0.13983 0,0.0736 -0.0265,0.13983 -0.0265,0.0657 -0.0763,0.116 -0.0477,0.0477 -0.11335,0.0789 -0.0657,0.0265 -0.14195,0.0265 -0.0763,0 -0.14248,-0.0265 -0.0657,-0.0265 -0.116,-0.0789 -0.0477,-0.0477 -0.0763,-0.116 -0.0265,-0.0657 -0.0265,-0.13983 0,-0.0763 0.0265,-0.13983 0.0265,-0.0657 0.0763,-0.116 0.0477,-0.0477 0.116,-0.0763 0.0657,-0.0265 0.14248,-0.0265 z m 3.8094,1.48322 q 0.0736,0.0922 0.11335,0.2161 0.0424,0.12129 0.0424,0.26324 0,0.20551 -0.0763,0.37659 -0.0736,0.16844 -0.21081,0.28973 -0.13718,0.12129 -0.32945,0.18962 -0.18962,0.0657 -0.41896,0.0657 -0.16579,0 -0.31092,-0.0318 -0.14459,-0.0371 -0.22934,-0.0895 -0.0477,0.0736 -0.0842,0.13983 -0.0318,0.0657 -0.0318,0.14777 0,0.10011 0.0948,0.16579 0.0975,0.0657 0.2553,0.071 l 0.6955,0.0265 q 0.19757,0.005 0.36335,0.0477 0.16844,0.0424 0.28708,0.12924 0.12129,0.0842 0.18697,0.20815 0.0683,0.12394 0.0683,0.28708 0,0.17638 -0.0763,0.33475 -0.0763,0.15784 -0.23729,0.27648 -0.15784,0.1213 -0.40308,0.19227 -0.24523,0.071 -0.5822,0.071 -0.32151,0 -0.54794,-0.053 -0.22405,-0.0477 -0.36865,-0.14248 -0.1446,-0.0895 -0.2108,-0.2161 -0.0657,-0.12394 -0.0657,-0.27384 0,-0.19227 0.0895,-0.33739 0.0895,-0.14513 0.27649,-0.27914 -0.0683,-0.0318 -0.11865,-0.0789 -0.0477,-0.0477 -0.0816,-0.10275 -0.0318,-0.0577 -0.0477,-0.1213 -0.0159,-0.063 -0.0159,-0.12394 0,-0.17108 0.0789,-0.31356 0.0816,-0.14248 0.19227,-0.26854 -0.0477,-0.0604 -0.0895,-0.11864 -0.0371,-0.0577 -0.0657,-0.12394 -0.0265,-0.0683 -0.0424,-0.14513 -0.0106,-0.0789 -0.0106,-0.17903 0,-0.20551 0.0736,-0.37394 0.0763,-0.17108 0.2108,-0.29238 0.13719,-0.12129 0.3268,-0.18697 0.19227,-0.0683 0.42427,-0.0683 0.0974,0 0.18697,0.0106 0.0895,0.0106 0.15784,0.0318 h 0.95895 v 0.37394 z m -1.59122,2.65287 q 0,0.18698 0.19492,0.27119 0.19491,0.0869 0.54269,0.0869 0.21875,0 0.366,-0.0371 0.14989,-0.0371 0.23994,-0.1054 0.0922,-0.063 0.13188,-0.14778 0.0371,-0.0816 0.0371,-0.16843 0,-0.16049 -0.13189,-0.23729 -0.13188,-0.0763 -0.40307,-0.0895 l -0.69026,-0.0212 q -0.0869,0.0577 -0.14513,0.11335 -0.0551,0.0551 -0.0869,0.1107 -0.0318,0.0577 -0.0424,0.11334 -0.0106,0.0577 -0.0106,0.116 z m 0.13983,-2.16288 q 0,0.12659 0.0424,0.23199 0.0424,0.10541 0.11864,0.17903 0.0763,0.0736 0.17903,0.116 0.1054,0.0371 0.23199,0.0371 0.13718,0 0.24259,-0.0424 0.10805,-0.0477 0.17902,-0.12659 0.0736,-0.0789 0.1107,-0.18168 0.0371,-0.10275 0.0371,-0.21345 0,-0.12659 -0.0424,-0.23199 -0.0424,-0.10541 -0.11865,-0.17903 -0.0763,-0.0736 -0.18167,-0.11335 -0.10276,-0.0424 -0.22935,-0.0424 -0.13718,0 -0.24523,0.0477 -0.10541,0.0477 -0.17903,0.12659 -0.071,0.0763 -0.1107,0.17903 -0.0371,0.10275 -0.0371,0.21345 z m 2.51331,-0.86409 h 0.40837 l 0.0159,0.42691 q 0.116,-0.13719 0.22405,-0.2267 0.10805,-0.0922 0.21081,-0.14778 0.1054,-0.0551 0.21345,-0.0763 0.10805,-0.0212 0.22405,-0.0212 0.40837,0 0.61642,0.24259 0.21081,0.23994 0.21081,0.72448 v 1.72559 h -0.45816 v -1.68868 q 0,-0.31091 -0.116,-0.45816 -0.11599,-0.15042 -0.34534,-0.15042 -0.0842,0 -0.16578,0.0265 -0.0789,0.0212 -0.16579,0.0869 -0.0869,0.0604 -0.18962,0.16578 -0.1001,0.1054 -0.22669,0.26324 v 1.75457 h -0.45816 z m 5.26889,1.30138 q 0,0.30827 -0.0869,0.56642 -0.0869,0.2553 -0.25053,0.44015 -0.16314,0.18168 -0.39778,0.28443 -0.23464,0.10011 -0.53216,0.10011 -0.28443,0 -0.51112,-0.0869 -0.22405,-0.0895 -0.38189,-0.2606 -0.15572,-0.17108 -0.23994,-0.42426 -0.0816,-0.25318 -0.0816,-0.58221 0,-0.30826 0.0869,-0.56118 0.0869,-0.25529 0.25,-0.4375 0.16314,-0.18432 0.39778,-0.28443 0.23464,-0.10275 0.53215,-0.10275 0.28443,0 0.50848,0.0895 0.2267,0.0869 0.38189,0.25795 0.15784,0.16843 0.23994,0.42161 0.0842,0.25265 0.0842,0.57956 z m -0.46875,0.0212 q 0,-0.24471 -0.0556,-0.42691 -0.053,-0.18433 -0.15254,-0.30562 -0.10011,-0.12394 -0.24523,-0.18432 -0.14248,-0.063 -0.31886,-0.063 -0.20551,0 -0.35329,0.0816 -0.14513,0.0789 -0.23994,0.21345 -0.0922,0.13454 -0.13718,0.31356 -0.0424,0.17638 -0.0424,0.3713 0,0.24523 0.053,0.42956 0.0551,0.18432 0.1552,0.30826 0.1001,0.12129 0.24205,0.18432 0.14248,0.0604 0.32151,0.0604 0.20551,0 0.35011,-0.0789 0.14777,-0.0816 0.23993,-0.2161 0.0948,-0.13453 0.13719,-0.31091 0.0424,-0.17903 0.0424,-0.37659 z m 3.67772,2.40266 h -2.96644 v -0.37924 h 2.96644 z m 2.72401,-2.42374 q 0,0.30826 -0.0869,0.56642 -0.0869,0.2553 -0.25053,0.44015 -0.16314,0.18168 -0.39778,0.28443 -0.23464,0.10011 -0.53215,0.10011 -0.28443,0 -0.51113,-0.0869 -0.22405,-0.0895 -0.38189,-0.26059 -0.15519,-0.17108 -0.23994,-0.42426 -0.0816,-0.25318 -0.0816,-0.58221 0,-0.30827 0.0869,-0.56118 0.0869,-0.2553 0.25053,-0.4375 0.16314,-0.18433 0.39778,-0.28443 0.23464,-0.10276 0.53221,-0.10276 0.28443,0 0.50847,0.0895 0.2267,0.0869 0.38189,0.25794 0.15784,0.16844 0.23994,0.42162 0.0842,0.25264 0.0842,0.57955 z m -0.46875,0.0212 q 0,-0.2447 -0.0551,-0.42691 -0.053,-0.18432 -0.15254,-0.30561 -0.10011,-0.12394 -0.24523,-0.18433 -0.14195,-0.063 -0.31886,-0.063 -0.20551,0 -0.35276,0.0816 -0.1446,0.0789 -0.23994,0.21346 -0.0922,0.13453 -0.13718,0.31356 -0.0424,0.17638 -0.0424,0.37129 0,0.24524 0.053,0.42956 0.0551,0.18432 0.1552,0.30827 0.1001,0.12129 0.24258,0.18432 0.14248,0.0604 0.32151,0.0604 0.20551,0 0.35064,-0.0789 0.14777,-0.0816 0.23993,-0.2161 0.0948,-0.13454 0.13719,-0.31092 0.0424,-0.17902 0.0424,-0.37659 z"
         id="text8-3-3"
         style="color:#000000;font-style:normal;font-variant:normal;font-weight:normal;font-stretch:normal;font-size:medium;line-height:normal;font-family:sans-serif;-inkscape-font-specification:Consolas;font-variant-ligatures:normal;font-variant-position:normal;font-variant-caps:normal;font-variant-numeric:normal;font-variant-alternates:normal;font-variant-east-asian:normal;font-feature-settings:normal;font-variation-settings:normal;text-indent:0;text-align:start;text-decoration-line:none;text-decoration-style:solid;text-decoration-color:#000000;letter-spacing:normal;word-spacing:normal;text-transform:none;writing-mode:lr-tb;direction:ltr;text-orientation:mixed;dominant-baseline:auto;baseline-shift:baseline;text-anchor:start;white-space:normal;shape-padding:0;shape-margin:0;inline-size:0;clip-rule:nonzero;display:inline;overflow:visible;visibility:visible;isolation:auto;mix-blend-mode:normal;color-interpolation:sRGB;color-interpolation-filters:linearRGB;solid-color:#000000;solid-opacity:1;vector-effect:none;fill:#000000;fill-opacity:1;fill-rule:nonzero;stroke:none;stroke-linecap:butt;stroke-linejoin:miter;stroke-miterlimit:4;stroke-dasharray:none;stroke-dashoffset:0;stroke-opacity:1;-inkscape-stroke:none;color-rendering:auto;image-rendering:auto;shape-rendering:auto;text-rendering:auto;enable-background:accumulate;stop-color:#000000;stop-opacity:1"
         aria-label="signo_o" />
      <g
         id="path235-6"
         transform="matrix(0,5.2966429,-5.2966429,0,910.18546,-558.65339)">
        <path
           style="color:#000000;font-style:normal;font-variant:normal;font-weight:normal;font-stretch:normal;font-size:medium;line-height:normal;font-family:sans-serif;font-variant-ligatures:normal;font-variant-position:normal;font-variant-caps:normal;font-variant-numeric:normal;font-variant-alternates:normal;font-variant-east-asian:normal;font-feature-settings:normal;font-variation-settings:normal;text-indent:0;text-align:start;text-decoration-line:none;text-decoration-style:solid;text-decoration-color:#000000;letter-spacing:normal;word-spacing:normal;text-transform:none;writing-mode:lr-tb;direction:ltr;text-orientation:mixed;dominant-baseline:auto;baseline-shift:baseline;text-anchor:start;white-space:normal;shape-padding:0;shape-margin:0;inline-size:0;clip-rule:nonzero;display:inline;overflow:visible;visibility:visible;isolation:auto;mix-blend-mode:normal;color-interpolation:sRGB;color-interpolation-filters:linearRGB;solid-color:#000000;solid-opacity:1;vector-effect:none;fill:#070000;fill-opacity:1;fill-rule:nonzero;stroke:none;stroke-linecap:butt;stroke-linejoin:miter;stroke-miterlimit:4;stroke-dasharray:none;stroke-dashoffset:0;stroke-opacity:1;-inkscape-stroke:none;color-rendering:auto;image-rendering:auto;shape-rendering:auto;text-rendering:auto;enable-background:accumulate;stop-color:#000000;stop-opacity:1"
           d="m 124.21625,159.17098 h 0.50132 l -0.25066,-0.48762 z"
           id="path254" />
        <path
           d="m 124.4668,158.58984 -0.32032,0.62305 h 0.64063 z m 0,0.18555 0.18164,0.35352 h -0.36328 z"
           id="path255"
           style="color:#000000;font-style:normal;font-variant:normal;font-weight:normal;font-stretch:normal;font-size:medium;line-height:normal;font-family:sans-serif;font-variant-ligatures:normal;font-variant-position:normal;font-variant-caps:normal;font-variant-numeric:normal;font-variant-alternates:normal;font-variant-east-asian:normal;font-feature-settings:normal;font-variation-settings:normal;text-indent:0;text-align:start;text-decoration-line:none;text-decoration-style:solid;text-decoration-color:#000000;letter-spacing:normal;word-spacing:normal;text-transform:none;writing-mode:lr-tb;direction:ltr;text-orientation:mixed;dominant-baseline:auto;baseline-shift:baseline;text-anchor:start;white-space:normal;shape-padding:0;shape-margin:0;inline-size:0;clip-rule:nonzero;display:inline;overflow:visible;visibility:visible;isolation:auto;mix-blend-mode:normal;color-interpolation:sRGB;color-interpolation-filters:linearRGB;solid-color:#000000;solid-opacity:1;vector-effect:none;fill:#000000;fill-opacity:1;fill-rule:nonzero;stroke:none;stroke-linecap:butt;stroke-linejoin:miter;stroke-miterlimit:4;stroke-dasharray:none;stroke-dashoffset:0;stroke-opacity:1;-inkscape-stroke:none;color-rendering:auto;image-rendering:auto;shape-rendering:auto;text-rendering:auto;enable-background:accumulate;stop-color:#000000;stop-opacity:1" />
      </g>
      <g
         id="path235-9"
         transform="matrix(0,5.2966429,-5.2966429,0,910.18546,-558.65339)">
        <path
           style="color:#000000;font-style:normal;font-variant:normal;font-weight:normal;font-stretch:normal;font-size:medium;line-height:normal;font-family:sans-serif;font-variant-ligatures:normal;font-variant-position:normal;font-variant-caps:normal;font-variant-numeric:normal;font-variant-alternates:normal;font-variant-east-asian:normal;font-feature-settings:normal;font-variation-settings:normal;text-indent:0;text-align:start;text-decoration-line:none;text-decoration-style:solid;text-decoration-color:#000000;letter-spacing:normal;word-spacing:normal;text-transform:none;writing-mode:lr-tb;direction:ltr;text-orientation:mixed;dominant-baseline:auto;baseline-shift:baseline;text-anchor:start;white-space:normal;shape-padding:0;shape-margin:0;inline-size:0;clip-rule:nonzero;display:inline;overflow:visible;visibility:visible;isolation:auto;mix-blend-mode:normal;color-interpolation:sRGB;color-interpolation-filters:linearRGB;solid-color:#000000;solid-opacity:1;vector-effect:none;fill:#070000;fill-opacity:1;fill-rule:nonzero;stroke:none;stroke-linecap:butt;stroke-linejoin:miter;stroke-miterlimit:4;stroke-dasharray:none;stroke-dashoffset:0;stroke-opacity:1;-inkscape-stroke:none;color-rendering:auto;image-rendering:auto;shape-rendering:auto;text-rendering:auto;enable-background:accumulate;stop-color:#000000;stop-opacity:1"
           d="m 125.77422,159.17098 h 0.50132 l -0.25066,-0.48762 z"
           id="path256" />
        <path
           d="m 126.02539,158.58984 -0.32031,0.62305 h 0.64062 z m 0,0.1875 0.18164,0.35157 h -0.36328 z"
           id="path257"
           style="color:#000000;font-style:normal;font-variant:normal;font-weight:normal;font-stretch:normal;font-size:medium;line-height:normal;font-family:sans-serif;font-variant-ligatures:normal;font-variant-position:normal;font-variant-caps:normal;font-variant-numeric:normal;font-variant-alternates:normal;font-variant-east-asian:normal;font-feature-settings:normal;font-variation-settings:normal;text-indent:0;text-align:start;text-decoration-line:none;text-decoration-style:solid;text-decoration-color:#000000;letter-spacing:normal;word-spacing:normal;text-transform:none;writing-mode:lr-tb;direction:ltr;text-orientation:mixed;dominant-baseline:auto;baseline-shift:baseline;text-anchor:start;white-space:normal;shape-padding:0;shape-margin:0;inline-size:0;clip-rule:nonzero;display:inline;overflow:visible;visibility:visible;isolation:auto;mix-blend-mode:normal;color-interpolation:sRGB;color-interpolation-filters:linearRGB;solid-color:#000000;solid-opacity:1;vector-effect:none;fill:#000000;fill-opacity:1;fill-rule:nonzero;stroke:none;stroke-linecap:butt;stroke-linejoin:miter;stroke-miterlimit:4;stroke-dasharray:none;stroke-dashoffset:0;stroke-opacity:1;-inkscape-stroke:none;color-rendering:auto;image-rendering:auto;shape-rendering:auto;text-rendering:auto;enable-background:accumulate;stop-color:#000000;stop-opacity:1" />
      </g>
      <path
         d="m 48.337891,100.35352 v 0.5 h 18.638671 v -0.5 z"
         id="path1" />
      <g
         id="g1"
         transform="translate(9.1030294,1.0040985)">
        <g
           id="path235-6-4"
           transform="matrix(0,5.2966429,-5.2966429,0,994.66827,-559.66374)">
          <path
             style="color:#000000;font-style:normal;font-variant:normal;font-weight:normal;font-stretch:normal;font-size:medium;line-height:normal;font-family:sans-serif;font-variant-ligatures:normal;font-variant-position:normal;font-variant-caps:normal;font-variant-numeric:normal;font-variant-alternates:normal;font-variant-east-asian:normal;font-feature-settings:normal;font-variation-settings:normal;text-indent:0;text-align:start;text-decoration-line:none;text-decoration-style:solid;text-decoration-color:#000000;letter-spacing:normal;word-spacing:normal;text-transform:none;writing-mode:lr-tb;direction:ltr;text-orientation:mixed;dominant-baseline:auto;baseline-shift:baseline;text-anchor:start;white-space:normal;shape-padding:0;shape-margin:0;inline-size:0;clip-rule:nonzero;display:inline;overflow:visible;visibility:visible;isolation:auto;mix-blend-mode:normal;color-interpolation:sRGB;color-interpolation-filters:linearRGB;solid-color:#000000;solid-opacity:1;vector-effect:none;fill:#070000;fill-opacity:1;fill-rule:nonzero;stroke:none;stroke-linecap:butt;stroke-linejoin:miter;stroke-miterlimit:4;stroke-dasharray:none;stroke-dashoffset:0;stroke-opacity:1;-inkscape-stroke:none;color-rendering:auto;image-rendering:auto;shape-rendering:auto;text-rendering:auto;enable-background:accumulate;stop-color:#000000;stop-opacity:1"
             d="m 124.21625,159.17098 h 0.50132 l -0.25066,-0.48762 z"
             id="path254-2" />
          <path
             d="m 124.4668,158.58984 -0.32032,0.62305 h 0.64063 z m 0,0.18555 0.18164,0.35352 h -0.36328 z"
             id="path255-8"
             style="color:#000000;font-style:normal;font-variant:normal;font-weight:normal;font-stretch:normal;font-size:medium;line-height:normal;font-family:sans-serif;font-variant-ligatures:normal;font-variant-position:normal;font-variant-caps:normal;font-variant-numeric:normal;font-variant-alternates:normal;font-variant-east-asian:normal;font-feature-settings:normal;font-variation-settings:normal;text-indent:0;text-align:start;text-decoration-line:none;text-decoration-style:solid;text-decoration-color:#000000;letter-spacing:normal;word-spacing:normal;text-transform:none;writing-mode:lr-tb;direction:ltr;text-orientation:mixed;dominant-baseline:auto;baseline-shift:baseline;text-anchor:start;white-space:normal;shape-padding:0;shape-margin:0;inline-size:0;clip-rule:nonzero;display:inline;overflow:visible;visibility:visible;isolation:auto;mix-blend-mode:normal;color-interpolation:sRGB;color-interpolation-filters:linearRGB;solid-color:#000000;solid-opacity:1;vector-effect:none;fill:#000000;fill-opacity:1;fill-rule:nonzero;stroke:none;stroke-linecap:butt;stroke-linejoin:miter;stroke-miterlimit:4;stroke-dasharray:none;stroke-dashoffset:0;stroke-opacity:1;-inkscape-stroke:none;color-rendering:auto;image-rendering:auto;shape-rendering:auto;text-rendering:auto;enable-background:accumulate;stop-color:#000000;stop-opacity:1" />
        </g>
        <path
           d="m 132.82031,99.341797 v 0.5 h 18.64063 v -0.5 z"
           id="path1-8" />
      </g>
      <g
         id="g2"
         transform="translate(7.2509394,0.48884398)">
        <g
           id="path235-6-1"
           transform="matrix(0,5.2966429,-5.2966429,0,996.52035,-550.93249)">
          <path
             style="color:#000000;font-style:normal;font-variant:normal;font-weight:normal;font-stretch:normal;font-size:medium;line-height:normal;font-family:sans-serif;font-variant-ligatures:normal;font-variant-position:normal;font-variant-caps:normal;font-variant-numeric:normal;font-variant-alternates:normal;font-variant-east-asian:normal;font-feature-settings:normal;font-variation-settings:normal;text-indent:0;text-align:start;text-decoration-line:none;text-decoration-style:solid;text-decoration-color:#000000;letter-spacing:normal;word-spacing:normal;text-transform:none;writing-mode:lr-tb;direction:ltr;text-orientation:mixed;dominant-baseline:auto;baseline-shift:baseline;text-anchor:start;white-space:normal;shape-padding:0;shape-margin:0;inline-size:0;clip-rule:nonzero;display:inline;overflow:visible;visibility:visible;isolation:auto;mix-blend-mode:normal;color-interpolation:sRGB;color-interpolation-filters:linearRGB;solid-color:#000000;solid-opacity:1;vector-effect:none;fill:#070000;fill-opacity:1;fill-rule:nonzero;stroke:none;stroke-linecap:butt;stroke-linejoin:miter;stroke-miterlimit:4;stroke-dasharray:none;stroke-dashoffset:0;stroke-opacity:1;-inkscape-stroke:none;color-rendering:auto;image-rendering:auto;shape-rendering:auto;text-rendering:auto;enable-background:accumulate;stop-color:#000000;stop-opacity:1"
             d="m 124.21625,159.17098 h 0.50132 l -0.25066,-0.48762 z"
             id="path254-25" />
          <path
             d="m 124.4668,158.58984 -0.32032,0.62305 h 0.64063 z m 0,0.18555 0.18164,0.35352 h -0.36328 z"
             id="path255-7"
             style="color:#000000;font-style:normal;font-variant:normal;font-weight:normal;font-stretch:normal;font-size:medium;line-height:normal;font-family:sans-serif;font-variant-ligatures:normal;font-variant-position:normal;font-variant-caps:normal;font-variant-numeric:normal;font-variant-alternates:normal;font-variant-east-asian:normal;font-feature-settings:normal;font-variation-settings:normal;text-indent:0;text-align:start;text-decoration-line:none;text-decoration-style:solid;text-decoration-color:#000000;letter-spacing:normal;word-spacing:normal;text-transform:none;writing-mode:lr-tb;direction:ltr;text-orientation:mixed;dominant-baseline:auto;baseline-shift:baseline;text-anchor:start;white-space:normal;shape-padding:0;shape-margin:0;inline-size:0;clip-rule:nonzero;display:inline;overflow:visible;visibility:visible;isolation:auto;mix-blend-mode:normal;color-interpolation:sRGB;color-interpolation-filters:linearRGB;solid-color:#000000;solid-opacity:1;vector-effect:none;fill:#000000;fill-opacity:1;fill-rule:nonzero;stroke:none;stroke-linecap:butt;stroke-linejoin:miter;stroke-miterlimit:4;stroke-dasharray:none;stroke-dashoffset:0;stroke-opacity:1;-inkscape-stroke:none;color-rendering:auto;image-rendering:auto;shape-rendering:auto;text-rendering:auto;enable-background:accumulate;stop-color:#000000;stop-opacity:1" />
        </g>
        <path
           d="m 134.67383,108.07422 v 0.5 h 18.63867 v -0.5 z"
           id="path1-4" />
      </g>
      <g
         id="g3"
         transform="translate(6.1926094,-2.134506)">
        <g
           id="path235-6-42"
           transform="matrix(0,5.2966429,-5.2966429,0,997.57868,-540.08457)">
          <path
             style="color:#000000;font-style:normal;font-variant:normal;font-weight:normal;font-stretch:normal;font-size:medium;line-height:normal;font-family:sans-serif;font-variant-ligatures:normal;font-variant-position:normal;font-variant-caps:normal;font-variant-numeric:normal;font-variant-alternates:normal;font-variant-east-asian:normal;font-feature-settings:normal;font-variation-settings:normal;text-indent:0;text-align:start;text-decoration-line:none;text-decoration-style:solid;text-decoration-color:#000000;letter-spacing:normal;word-spacing:normal;text-transform:none;writing-mode:lr-tb;direction:ltr;text-orientation:mixed;dominant-baseline:auto;baseline-shift:baseline;text-anchor:start;white-space:normal;shape-padding:0;shape-margin:0;inline-size:0;clip-rule:nonzero;display:inline;overflow:visible;visibility:visible;isolation:auto;mix-blend-mode:normal;color-interpolation:sRGB;color-interpolation-filters:linearRGB;solid-color:#000000;solid-opacity:1;vector-effect:none;fill:#070000;fill-opacity:1;fill-rule:nonzero;stroke:none;stroke-linecap:butt;stroke-linejoin:miter;stroke-miterlimit:4;stroke-dasharray:none;stroke-dashoffset:0;stroke-opacity:1;-inkscape-stroke:none;color-rendering:auto;image-rendering:auto;shape-rendering:auto;text-rendering:auto;enable-background:accumulate;stop-color:#000000;stop-opacity:1"
             d="m 124.21625,159.17098 h 0.50132 l -0.25066,-0.48762 z"
             id="path254-9" />
          <path
             d="m 124.4668,158.58984 -0.32032,0.62305 h 0.64063 z m 0,0.18555 0.18164,0.35352 h -0.36328 z"
             id="path255-3"
             style="color:#000000;font-style:normal;font-variant:normal;font-weight:normal;font-stretch:normal;font-size:medium;line-height:normal;font-family:sans-serif;font-variant-ligatures:normal;font-variant-position:normal;font-variant-caps:normal;font-variant-numeric:normal;font-variant-alternates:normal;font-variant-east-asian:normal;font-feature-settings:normal;font-variation-settings:normal;text-indent:0;text-align:start;text-decoration-line:none;text-decoration-style:solid;text-decoration-color:#000000;letter-spacing:normal;word-spacing:normal;text-transform:none;writing-mode:lr-tb;direction:ltr;text-orientation:mixed;dominant-baseline:auto;baseline-shift:baseline;text-anchor:start;white-space:normal;shape-padding:0;shape-margin:0;inline-size:0;clip-rule:nonzero;display:inline;overflow:visible;visibility:visible;isolation:auto;mix-blend-mode:normal;color-interpolation:sRGB;color-interpolation-filters:linearRGB;solid-color:#000000;solid-opacity:1;vector-effect:none;fill:#000000;fill-opacity:1;fill-rule:nonzero;stroke:none;stroke-linecap:butt;stroke-linejoin:miter;stroke-miterlimit:4;stroke-dasharray:none;stroke-dashoffset:0;stroke-opacity:1;-inkscape-stroke:none;color-rendering:auto;image-rendering:auto;shape-rendering:auto;text-rendering:auto;enable-background:accumulate;stop-color:#000000;stop-opacity:1" />
        </g>
        <path
           d="m 135.73047,118.92188 v 0.5 h 18.64062 v -0.5 z"
           id="path1-0" />
      </g>
      <path
         d="m 48.337891,108.60742 v 0.5 h 18.638671 v -0.5 z"
         id="path1-5" />
    </g>
  </g>
</svg>
