<?xml version="1.0" encoding="UTF-8" standalone="no"?>
<!-- Created with Inkscape (http://www.inkscape.org/) -->

<svg
   width="144.3817mm"
   height="71.5mm"
   viewBox="0 0 144.3817 71.5"
   version="1.1"
   id="svg1"
   inkscape:version="1.4 (86a8ad7, 2024-10-11)"
   sodipodi:docname="Fig 6_31 TFG.svg"
   xmlns:inkscape="http://www.inkscape.org/namespaces/inkscape"
   xmlns:sodipodi="http://sodipodi.sourceforge.net/DTD/sodipodi-0.dtd"
   xmlns="http://www.w3.org/2000/svg"
   xmlns:svg="http://www.w3.org/2000/svg">
  <sodipodi:namedview
     id="namedview1"
     pagecolor="#ffffff"
     bordercolor="#000000"
     borderopacity="0.25"
     inkscape:showpageshadow="2"
     inkscape:pageopacity="0.0"
     inkscape:pagecheckerboard="0"
     inkscape:deskcolor="#d1d1d1"
     inkscape:document-units="mm"
     inkscape:zoom="0.5394115"
     inkscape:cx="-275.30003"
     inkscape:cy="401.36334"
     inkscape:window-width="2560"
     inkscape:window-height="1369"
     inkscape:window-x="-8"
     inkscape:window-y="-8"
     inkscape:window-maximized="1"
     inkscape:current-layer="g5" />
  <defs
     id="defs1" />
  <g
     inkscape:label="Capa 1"
     inkscape:groupmode="layer"
     id="layer1"
     transform="translate(-36.777344,-112.71289)">
    <g
       id="g5">
      <g
         id="g1">
        <g
           id="path235-09"
           transform="matrix(0,5.7689958,-5.7689958,0,1212.3145,-632.5077)">
          <path
             style="fill:#070000"
             d="m 133.79293,201.38804 h 0.50132 l -0.25066,-0.48762 z"
             id="path300" />
          <path
             d="m 134.04297,200.80664 -0.32031,0.62305 h 0.64062 z m 0,0.1875 0.18164,0.35156 h -0.36133 z"
             id="path301" />
        </g>
        <path
           d="m 36.777344,140.53516 v 0.5 h 14.220703 v -0.5 z"
           id="path1" />
        <g
           id="path235-09-4"
           transform="matrix(0,5.7689958,-5.7689958,0,1212.3145,-623.65991)">
          <path
             style="fill:#070000"
             d="m 133.79293,201.38804 h 0.50132 l -0.25066,-0.48762 z"
             id="path300-1" />
          <path
             d="m 134.04297,200.80664 -0.32031,0.62305 h 0.64062 z m 0,0.1875 0.18164,0.35156 h -0.36133 z"
             id="path301-1" />
        </g>
        <path
           d="m 36.777344,149.38281 v 0.5 h 14.220703 v -0.5 z"
           id="path1-5" />
        <g
           id="path235-09-0"
           transform="matrix(0,5.7689958,-5.7689958,0,1212.3145,-614.81213)">
          <path
             style="fill:#070000"
             d="m 133.79293,201.38804 h 0.50132 l -0.25066,-0.48762 z"
             id="path300-6" />
          <path
             d="m 134.04297,200.80664 -0.32031,0.62305 h 0.64062 z m 0,0.1875 0.18164,0.35156 h -0.36133 z"
             id="path301-4" />
        </g>
        <path
           d="m 36.777344,158.23047 v 0.5 h 14.220703 v -0.5 z"
           id="path1-53" />
        <g
           id="path235-09-1"
           transform="matrix(0,5.7689958,-5.7689958,0,1339.6117,-632.3535)">
          <path
             style="fill:#070000"
             d="m 133.79293,201.38804 h 0.50132 l -0.25066,-0.48762 z"
             id="path300-5" />
          <path
             d="m 134.04297,200.80664 -0.32031,0.62305 h 0.64062 z m 0,0.1875 0.18164,0.35156 h -0.36133 z"
             id="path301-0" />
        </g>
        <path
           d="m 164.07422,140.68945 v 0.5 h 14.2207 v -0.5 z"
           id="path1-3" />
        <g
           id="path235-09-2"
           transform="matrix(0,5.7689958,-5.7689958,0,1339.6117,-623.42837)">
          <path
             style="fill:#070000"
             d="m 133.79293,201.38804 h 0.50132 l -0.25066,-0.48762 z"
             id="path300-9" />
          <path
             d="m 134.04297,200.80664 -0.32031,0.62305 h 0.64062 z m 0,0.1875 0.18164,0.35156 h -0.36133 z"
             id="path301-3" />
        </g>
        <path
           d="m 164.07422,149.61523 v 0.5 h 14.2207 v -0.5 z"
           id="path1-4" />
        <path
           style="-inkscape-font-specification:Consolas;stroke-width:0.5"
           d="m 56.200253,159.04231 q 0,-0.35278 0.09646,-0.62563 0.09646,-0.27561 0.272851,-0.46302 0.179145,-0.19017 0.427192,-0.28663 0.250803,-0.0992 0.556727,-0.0992 0.132291,0 0.259071,0.0165 0.129535,0.0165 0.253559,0.0524 v -1.16306 h 0.482313 v 3.89433 h -0.429948 l -0.01654,-0.52365 q -0.201194,0.29214 -0.43546,0.4327 -0.234266,0.14056 -0.507118,0.14056 -0.237022,0 -0.418923,-0.0992 -0.179145,-0.0992 -0.300412,-0.27836 -0.118511,-0.1819 -0.179145,-0.43546 -0.06063,-0.25356 -0.06063,-0.56224 z m 0.490582,-0.0303 q 0,0.50161 0.146072,0.74965 0.148828,0.2453 0.418923,0.2453 0.181901,0 0.383094,-0.16261 0.20395,-0.16261 0.427192,-0.48232 v -1.28433 q -0.118511,-0.0551 -0.261827,-0.0827 -0.143316,-0.0303 -0.283876,-0.0303 -0.391363,0 -0.611848,0.25356 -0.21773,0.25356 -0.21773,0.79375 z m 2.866317,-1.41111 h 0.438216 l 0.01378,0.50988 q 0.245291,-0.2949 0.482313,-0.4272 0.239779,-0.13229 0.482313,-0.13229 0.429948,0 0.650434,0.27837 0.223242,0.27836 0.206705,0.82682 h -0.485069 q 0.0083,-0.3638 -0.107487,-0.52641 -0.112999,-0.16537 -0.333485,-0.16537 -0.09646,0 -0.195681,0.0358 -0.09646,0.0331 -0.201193,0.11025 -0.101975,0.0744 -0.21773,0.19292 -0.115755,0.11851 -0.248047,0.28663 v 1.77767 h -0.485069 z m 2.849781,1.44143 q 0,-0.35278 0.09646,-0.62563 0.09646,-0.27561 0.272852,-0.46302 0.179145,-0.19017 0.427191,-0.28663 0.250803,-0.0992 0.556727,-0.0992 0.132292,0 0.259071,0.0165 0.129536,0.0165 0.253559,0.0524 v -1.16306 h 0.482313 v 3.89433 H 64.32516 l -0.01654,-0.52365 q -0.201193,0.29214 -0.43546,0.4327 -0.234266,0.14056 -0.507117,0.14056 -0.237023,0 -0.418924,-0.0992 -0.179145,-0.0992 -0.300412,-0.27836 -0.118511,-0.1819 -0.179145,-0.43546 -0.06063,-0.25356 -0.06063,-0.56224 z m 0.490581,-0.0303 q 0,0.50161 0.146072,0.74965 0.148828,0.2453 0.418923,0.2453 0.181901,0 0.383095,-0.16261 0.203949,-0.16261 0.427191,-0.48232 v -1.28433 q -0.118511,-0.0551 -0.261827,-0.0827 -0.143316,-0.0303 -0.283876,-0.0303 -0.391362,0 -0.611848,0.25356 -0.21773,0.25356 -0.21773,0.79375 z m 5.214492,-1.41111 -0.942577,2.47496 q -0.146072,0.37758 -0.303168,0.65043 -0.154341,0.27285 -0.338998,0.44648 -0.184657,0.17639 -0.405143,0.25908 -0.220486,0.0827 -0.493337,0.0827 -0.07166,0 -0.129535,-0.003 -0.05788,-0.003 -0.12678,-0.008 v -0.43546 q 0.06063,0.008 0.132292,0.0138 0.07166,0.008 0.151584,0.008 0.132291,0 0.24529,-0.0386 0.115756,-0.0386 0.21773,-0.12678 0.101975,-0.0854 0.195682,-0.22324 0.09371,-0.13781 0.181901,-0.33349 l -1.105186,-2.7671 h 0.545702 l 0.700043,1.83004 0.14056,0.42994 0.159852,-0.44097 0.647678,-1.81901 z"
           id="text1-7"
           aria-label="drdy" />
        <path
           style="-inkscape-font-specification:Consolas;stroke-width:0.5"
           d="m 133.33955,140.98806 q 0,-0.35277 0.0965,-0.62562 0.0965,-0.27561 0.27285,-0.46303 0.17915,-0.19016 0.4272,-0.28663 0.2508,-0.0992 0.55672,-0.0992 0.13229,0 0.25907,0.0165 0.12954,0.0165 0.25356,0.0524 v -1.16307 h 0.48232 v 3.89434 h -0.42995 l -0.0165,-0.52366 q -0.20119,0.29215 -0.43546,0.43271 -0.23426,0.14056 -0.50712,0.14056 -0.23702,0 -0.41892,-0.0992 -0.17914,-0.0992 -0.30041,-0.27837 -0.11851,-0.1819 -0.17915,-0.43546 -0.0606,-0.25356 -0.0606,-0.56224 z m 0.49058,-0.0303 q 0,0.5016 0.14607,0.74965 0.14883,0.24529 0.41893,0.24529 0.1819,0 0.38309,-0.16261 0.20395,-0.16261 0.42719,-0.48231 v -1.28433 q -0.11851,-0.0551 -0.26182,-0.0827 -0.14332,-0.0303 -0.28388,-0.0303 -0.39136,0 -0.61185,0.25356 -0.21773,0.25356 -0.21773,0.79375 z m 4.53099,1.35599 -0.011,-0.37207 q -0.22599,0.22324 -0.46026,0.32246 -0.23151,0.0992 -0.48783,0.0992 -0.23702,0 -0.40514,-0.0606 -0.16812,-0.0606 -0.27836,-0.16536 -0.10749,-0.10749 -0.15985,-0.25081 -0.0496,-0.14331 -0.0496,-0.31143 0,-0.41617 0.30868,-0.65044 0.31143,-0.23702 0.91777,-0.23702 h 0.57326 v -0.24253 q 0,-0.24529 -0.15709,-0.39136 -0.1571,-0.14883 -0.47956,-0.14883 -0.23427,0 -0.46302,0.0524 -0.226,0.0524 -0.46853,0.14883 v -0.4327 q 0.0909,-0.0331 0.20119,-0.0634 0.113,-0.0331 0.23702,-0.0579 0.12403,-0.0248 0.25907,-0.0386 0.13505,-0.0165 0.27285,-0.0165 0.25081,0 0.452,0.0551 0.20119,0.0551 0.339,0.16812 0.14056,0.113 0.21497,0.28388 0.0744,0.17087 0.0744,0.40238 v 1.90721 z m -0.0524,-1.25953 h -0.60909 q -0.17914,0 -0.30868,0.0358 -0.12954,0.0358 -0.21222,0.10197 -0.0827,0.0661 -0.12402,0.15986 -0.0386,0.091 -0.0386,0.2067 0,0.0799 0.0248,0.15434 0.0248,0.0717 0.0799,0.12954 0.0551,0.0551 0.14332,0.0882 0.0882,0.0331 0.21497,0.0331 0.16537,0 0.37759,-0.0992 0.21497,-0.10198 0.45199,-0.31971 z m 3.6077,1.22094 q -0.1626,0.0413 -0.33624,0.0579 -0.17363,0.0193 -0.35277,0.0193 -0.5209,0 -0.77722,-0.23427 -0.25631,-0.23702 -0.25631,-0.72484 v -1.44419 h -0.77446 v -0.40238 h 0.77446 V 138.786 l 0.47955,-0.12402 v 0.8847 h 1.24299 v 0.40238 h -1.24299 v 1.4056 q 0,0.29766 0.1571,0.44649 0.15985,0.14607 0.46853,0.14607 0.1323,0 0.28939,-0.0193 0.1571,-0.022 0.32797,-0.0661 z m 3.28249,-1.36701 q 0,0.32246 -0.0909,0.59255 -0.0909,0.26734 -0.26183,0.46027 -0.17088,0.19017 -0.41617,0.29765 -0.24529,0.10474 -0.55672,0.10474 -0.29766,0 -0.53468,-0.091 -0.23427,-0.0937 -0.39963,-0.27285 -0.16261,-0.17914 -0.25081,-0.44372 -0.0854,-0.26459 -0.0854,-0.6091 0,-0.32246 0.0909,-0.58704 0.0909,-0.26734 0.26182,-0.45751 0.17088,-0.19292 0.41617,-0.29766 0.24529,-0.10748 0.55673,-0.10748 0.29765,0 0.53192,0.0937 0.23702,0.091 0.39963,0.2701 0.16537,0.17639 0.2508,0.44097 0.0882,0.26458 0.0882,0.60634 z m -0.49058,0.0221 q 0,-0.25632 -0.0579,-0.44649 -0.0551,-0.19292 -0.15985,-0.3197 -0.10473,-0.12954 -0.25632,-0.19293 -0.14883,-0.0661 -0.33348,-0.0661 -0.21498,0 -0.36932,0.0854 -0.15158,0.0827 -0.2508,0.22324 -0.0965,0.14056 -0.14332,0.32797 -0.0441,0.18466 -0.0441,0.38861 0,0.25631 0.0551,0.44924 0.0579,0.19292 0.16261,0.32246 0.10473,0.12678 0.25356,0.19292 0.14882,0.0634 0.33624,0.0634 0.21497,0 0.36656,-0.0827 0.15434,-0.0854 0.2508,-0.226 0.0992,-0.14056 0.14331,-0.32521 0.0469,-0.18742 0.0469,-0.39412 z m 3.84748,2.51354 h -3.10334 v -0.39688 h 3.10334 z m 0.1819,-3.89709 h 0.5457 l 0.678,1.83003 0.14607,0.44648 0.15158,-0.4575 0.67248,-1.81901 h 0.52641 l -1.08589,2.7671 h -0.55121 z m 5.14008,2.7671 -0.011,-0.37207 q -0.226,0.22324 -0.46026,0.32246 -0.23151,0.0992 -0.48783,0.0992 -0.23702,0 -0.40514,-0.0606 -0.16812,-0.0606 -0.27836,-0.16536 -0.10749,-0.10749 -0.15986,-0.25081 -0.0496,-0.14331 -0.0496,-0.31143 0,-0.41617 0.30868,-0.65044 0.31144,-0.23702 0.91778,-0.23702 h 0.57326 v -0.24253 q 0,-0.24529 -0.1571,-0.39136 -0.15709,-0.14883 -0.47955,-0.14883 -0.23427,0 -0.46302,0.0524 -0.226,0.0524 -0.46854,0.14883 v -0.4327 q 0.0909,-0.0331 0.2012,-0.0634 0.113,-0.0331 0.23702,-0.0579 0.12402,-0.0248 0.25907,-0.0386 0.13505,-0.0165 0.27285,-0.0165 0.2508,0 0.452,0.0551 0.20119,0.0551 0.339,0.16812 0.14056,0.113 0.21497,0.28388 0.0744,0.17087 0.0744,0.40238 v 1.90721 z m -0.0524,-1.25953 h -0.60909 q -0.17915,0 -0.30868,0.0358 -0.12954,0.0358 -0.21222,0.10197 -0.0827,0.0661 -0.12402,0.15986 -0.0386,0.091 -0.0386,0.2067 0,0.0799 0.0248,0.15434 0.0248,0.0717 0.0799,0.12954 0.0551,0.0551 0.14332,0.0882 0.0882,0.0331 0.21497,0.0331 0.16537,0 0.37758,-0.0992 0.21498,-0.10198 0.452,-0.31971 z m 2.32062,-2.24069 h -0.81856 v -0.39412 h 1.30362 v 3.49471 h 0.82407 v 0.39963 h -2.21864 v -0.39963 h 0.90951 z"
           id="text1-9"
           aria-label="dato_val" />
        <path
           d="m 53.655694,112.71289 v 71.5 H 164.28069 v -71.5 z m 0.5,0.5 H 163.78069 v 70.5 H 54.155694 Z"
           id="rect1" />
        <g
           id="g3"
           transform="translate(5.5579648)">
          <g
             id="g4">
            <path
               style="-inkscape-font-specification:'Arial Bold';stroke-width:0.5"
               d="m 77.584077,121.96883 v -5.55556 h 3.808553 v 0.93982 H 78.7058 v 1.31499 h 2.319238 v 0.93982 H 78.7058 v 2.36093 z m 4.725637,-5.55556 h 1.121723 v 3.00894 q 0,0.71624 0.04169,0.92846 0.072,0.34106 0.341065,0.54949 0.272851,0.20464 0.742762,0.20464 0.47749,0 0.720025,-0.19327 0.242535,-0.19706 0.2918,-0.48128 0.04926,-0.28422 0.04926,-0.94361 v -3.07337 h 1.121722 v 2.91799 q 0,1.00046 -0.09095,1.41352 -0.09095,0.41307 -0.337275,0.69729 -0.242535,0.28422 -0.651812,0.45475 -0.409277,0.16675 -1.068668,0.16675 -0.795817,0 -1.208884,-0.1819 -0.409277,-0.1857 -0.648022,-0.47749 -0.238745,-0.29559 -0.314538,-0.61771 -0.109898,-0.47749 -0.109898,-1.40973 z m 5.623773,5.55556 v -5.55556 h 1.091406 l 2.273763,3.71002 v -3.71002 h 1.042141 v 5.55556 h -1.125513 l -2.239656,-3.62287 v 3.62287 z m 9.148105,-2.0426 1.087617,0.34485 q -0.250114,0.90951 -0.833713,1.35289 -0.57981,0.4396 -1.474157,0.4396 -1.106564,0 -1.81901,-0.75413 -0.712445,-0.75793 -0.712445,-2.06913 0,-1.38699 0.716235,-2.15249 0.716235,-0.76929 1.883433,-0.76929 1.019404,0 1.656057,0.60254 0.378961,0.35623 0.568441,1.0232 l -1.110354,0.26527 q -0.09853,-0.43202 -0.413067,-0.68213 -0.310747,-0.25011 -0.757921,-0.25011 -0.617705,0 -1.004245,0.44338 -0.38275,0.44338 -0.38275,1.43626 0,1.05351 0.378961,1.50068 0.37896,0.44718 0.985297,0.44718 0.447173,0 0.769289,-0.28422 0.322117,-0.28422 0.462332,-0.89435 z m 1.413524,3.57739 v -0.68971 h 4.426254 v 0.68971 z m 6.203574,-1.53479 v -4.61574 h -1.64847 v -0.93982 h 4.41489 v 0.93982 h -1.64469 v 4.61574 z m 3.49402,0 v -5.55556 h 2.36092 q 0.89056,0 1.29226,0.15158 0.40549,0.14779 0.64802,0.53055 0.24254,0.38275 0.24254,0.87539 0,0.62529 -0.3676,1.03457 -0.36759,0.40548 -1.09898,0.51159 0.3638,0.21222 0.59876,0.46612 0.23874,0.25391 0.64044,0.90193 l 0.67834,1.08383 h -1.34152 l -0.81098,-1.20889 q -0.43201,-0.64802 -0.59118,-0.81476 -0.15916,-0.17053 -0.33727,-0.23117 -0.17811,-0.0644 -0.56465,-0.0644 h -0.22738 v 2.31924 z m 1.12172,-3.20601 h 0.82993 q 0.80718,0 1.00803,-0.0682 0.20085,-0.0682 0.31454,-0.23496 0.11369,-0.16674 0.11369,-0.41685 0,-0.28043 -0.15159,-0.45097 -0.14779,-0.17432 -0.42064,-0.21979 -0.13643,-0.019 -0.81856,-0.019 h -0.8754 z m 9.48917,3.20601 h -1.22025 l -0.48507,-1.26194 h -2.22071 l -0.45854,1.26194 h -1.18994 l 2.16387,-5.55556 h 1.18615 z m -2.06533,-2.19797 -0.7655,-2.06155 -0.75034,2.06155 z m 2.67167,2.19797 v -5.55556 h 1.0914 l 2.27377,3.71002 v -3.71002 h 1.04214 v 5.55556 h -1.12551 l -2.23966,-3.62287 v 3.62287 z m 5.30923,-1.80765 1.09141,-0.1061 q 0.0985,0.54949 0.39791,0.80718 0.30317,0.25769 0.81476,0.25769 0.54192,0 0.81477,-0.22737 0.27664,-0.23117 0.27664,-0.53813 0,-0.19705 -0.11748,-0.33348 -0.11369,-0.14022 -0.4017,-0.24254 -0.19706,-0.0682 -0.89813,-0.24253 -0.90193,-0.22359 -1.26573,-0.54949 -0.5116,-0.45854 -0.5116,-1.11794 0,-0.42443 0.23875,-0.79202 0.24253,-0.37138 0.6935,-0.56465 0.45475,-0.19327 1.09519,-0.19327 1.04593,0 1.57269,0.45854 0.53054,0.45854 0.55707,1.22404 l -1.12172,0.0493 q -0.072,-0.42823 -0.31075,-0.61392 -0.23496,-0.18948 -0.70866,-0.18948 -0.48886,0 -0.7655,0.20085 -0.17811,0.12884 -0.17811,0.34485 0,0.19706 0.16674,0.33728 0.21222,0.17811 1.03078,0.37138 0.81855,0.19327 1.20888,0.4017 0.39412,0.20463 0.61392,0.56465 0.22358,0.35622 0.22358,0.88298 0,0.47749 -0.26527,0.89434 -0.26527,0.41686 -0.75034,0.6215 -0.48507,0.20085 -1.20889,0.20085 -1.05351,0 -1.61816,-0.48507 -0.56465,-0.48886 -0.67455,-1.42111 z"
               id="text2"
               aria-label="FUNC_TRANS" />
            <path
               style="-inkscape-font-specification:'Consolas Bold';stroke-width:0.5"
               d="M 97.405422,132.65802 H 96.0577 l -1.649512,-5.40329 h 1.153418 l 0.91364,3.25355 0.293522,1.0666 0.305925,-1.12861 0.905371,-3.19154 h 1.083139 z m 6.015138,-2.1332 q 0,0.49609 -0.14056,0.9095 -0.14056,0.40928 -0.40514,0.7028 -0.26459,0.29352 -0.64906,0.45475 -0.38447,0.16123 -0.87643,0.16123 -0.46716,0 -0.83509,-0.13642 -0.36794,-0.13643 -0.624254,-0.40514 -0.256315,-0.27286 -0.392741,-0.678 -0.136426,-0.40928 -0.136426,-0.95085 0,-0.50022 0.14056,-0.9095 0.144694,-0.40928 0.409278,-0.69867 0.268713,-0.28939 0.653193,-0.44648 0.38447,-0.16123 0.86816,-0.16123 0.47129,0 0.83923,0.14056 0.36793,0.13642 0.62425,0.40927 0.25631,0.27286 0.38861,0.678 0.13642,0.40101 0.13642,0.93018 z m -1.05006,0.0248 q 0,-0.65319 -0.24805,-0.97978 -0.24391,-0.33073 -0.72347,-0.33073 -0.26458,0 -0.45062,0.10335 -0.18604,0.10335 -0.30592,0.28525 -0.11989,0.17777 -0.17777,0.41755 -0.0537,0.23978 -0.0537,0.51263 0,0.65732 0.26459,0.99219 0.26458,0.33073 0.72347,0.33073 0.25218,0 0.43821,-0.0992 0.18604,-0.10336 0.3018,-0.28112 0.11575,-0.1819 0.17363,-0.42582 0.0579,-0.24391 0.0579,-0.52503 z m 3.27835,-2.94762 h -1.18649 v -0.78549 h 2.22002 v 5.05603 h 1.2113 v 0.78548 h -3.57602 v -0.78548 h 1.33119 z m 6.76341,5.01468 q -0.27285,0.062 -0.54983,0.0992 -0.27699,0.0372 -0.52504,0.0372 -0.41341,0 -0.7152,-0.0868 -0.29765,-0.0868 -0.49609,-0.26459 -0.19431,-0.17776 -0.28939,-0.45061 -0.0909,-0.27699 -0.0909,-0.65733 v -2.05052 h -1.12861 v -0.78548 h 1.12861 v -1.07487 l 1.03353,-0.26872 v 1.34359 h 1.63297 v 0.78548 h -1.63297 v 1.97611 q 0,0.35967 0.16536,0.5457 0.16537,0.1819 0.55397,0.1819 0.24805,0 0.4837,-0.0413 0.23564,-0.0413 0.42994,-0.0951 z"
               id="text4"
               aria-label="Volt" />
          </g>
        </g>
        <path
           style="-inkscape-font-specification:Consolas;stroke-width:0.5"
           d="m 56.200253,139.54667 h 0.545703 l 0.677994,1.83003 0.146072,0.44649 0.151584,-0.45751 0.672483,-1.81901 h 0.52641 l -1.085894,2.7671 h -0.551214 z m 5.77122,1.3615 q 0,0.32246 -0.09095,0.59255 -0.09095,0.26734 -0.261828,0.46027 -0.170876,0.19017 -0.416167,0.29765 -0.24529,0.10474 -0.556727,0.10474 -0.297656,0 -0.534678,-0.0909 -0.234266,-0.0937 -0.399631,-0.27286 -0.162608,-0.17914 -0.250803,-0.44372 -0.08544,-0.26459 -0.08544,-0.6091 0,-0.32246 0.09095,-0.58704 0.09095,-0.26734 0.261828,-0.45751 0.170876,-0.19292 0.416167,-0.29765 0.24529,-0.10749 0.556727,-0.10749 0.297656,0 0.531922,0.0937 0.237022,0.091 0.399631,0.27009 0.165364,0.17639 0.250803,0.44097 0.08819,0.26459 0.08819,0.60634 z m -0.490581,0.022 q 0,-0.25632 -0.05788,-0.44649 -0.05512,-0.19292 -0.159852,-0.3197 -0.104731,-0.12954 -0.256315,-0.19293 -0.148828,-0.0661 -0.333485,-0.0661 -0.214974,0 -0.369314,0.0854 -0.151584,0.0827 -0.250803,0.22324 -0.09646,0.14056 -0.143316,0.32797 -0.0441,0.18466 -0.0441,0.38861 0,0.25631 0.05512,0.44924 0.05788,0.19292 0.162608,0.32246 0.104731,0.12678 0.253559,0.19292 0.148828,0.0634 0.336241,0.0634 0.214974,0 0.366558,-0.0827 0.15434,-0.0854 0.250803,-0.226 0.09922,-0.14056 0.143316,-0.32521 0.04685,-0.18742 0.04685,-0.39412 z m 2.127689,-2.11667 h -0.818554 v -0.39412 h 1.303623 v 3.49471 h 0.824066 v 0.39963 h -2.218639 v -0.39963 h 0.909504 z m 4.390426,3.46163 q -0.162608,0.0413 -0.336241,0.0579 -0.173633,0.0193 -0.352778,0.0193 -0.520898,0 -0.777212,-0.23426 -0.256315,-0.23703 -0.256315,-0.72485 v -1.44419 h -0.774457 v -0.40238 h 0.774457 v -0.76068 l 0.479557,-0.12402 v 0.8847 h 1.242989 v 0.40238 h -1.242989 v 1.4056 q 0,0.29766 0.157096,0.44649 0.159852,0.14607 0.468532,0.14607 0.132292,0 0.289388,-0.0193 0.157096,-0.0221 0.327973,-0.0661 z m 3.536044,1.16858 h -3.10334 v -0.39688 h 3.10334 z m 2.632051,-1.88516 q 0,0.14607 -0.04961,0.26183 -0.04961,0.11575 -0.135048,0.2067 -0.08544,0.0882 -0.198437,0.15159 -0.112999,0.0634 -0.242535,0.10473 -0.126779,0.0413 -0.261827,0.0606 -0.135047,0.0193 -0.264583,0.0193 -0.281119,0 -0.518142,-0.0248 -0.234266,-0.0248 -0.460264,-0.0799 v -0.44097 q 0.242534,0.0689 0.482313,0.10473 0.239778,0.0358 0.476801,0.0358 0.344509,0 0.509873,-0.0937 0.165365,-0.0937 0.165365,-0.26734 0,-0.0744 -0.02756,-0.13229 -0.0248,-0.0606 -0.09371,-0.113 -0.0689,-0.0551 -0.214974,-0.113 -0.143316,-0.0579 -0.394119,-0.13229 -0.187413,-0.0551 -0.347265,-0.12403 -0.157096,-0.0717 -0.272851,-0.16812 -0.115756,-0.0965 -0.181901,-0.226 -0.06615,-0.12953 -0.06615,-0.30592 0,-0.11576 0.05237,-0.25356 0.05512,-0.1378 0.184657,-0.25631 0.129536,-0.11852 0.350022,-0.19569 0.220486,-0.0799 0.551215,-0.0799 0.162608,0 0.361045,0.0193 0.198438,0.0165 0.413411,0.0606 v 0.4272 q -0.225998,-0.0551 -0.429947,-0.0799 -0.201194,-0.0276 -0.350022,-0.0276 -0.179144,0 -0.303168,0.0276 -0.121267,0.0276 -0.198437,0.0772 -0.07441,0.0469 -0.107487,0.113 -0.03307,0.0634 -0.03307,0.1378 0,0.0744 0.02756,0.13505 0.03032,0.0606 0.107487,0.11851 0.07993,0.0551 0.220486,0.113 0.140559,0.0551 0.366558,0.12127 0.24529,0.0717 0.413411,0.15158 0.16812,0.0772 0.272851,0.17363 0.104731,0.0965 0.148828,0.21773 0.04685,0.12127 0.04685,0.27561 z m 3.24941,-0.77445 q 0,0.10197 -0.0028,0.17087 -0.0028,0.0689 -0.0083,0.12954 h -1.943032 q 0,0.42443 0.237022,0.65319 0.237023,0.226 0.683507,0.226 0.121267,0 0.242534,-0.008 0.121267,-0.011 0.234266,-0.0276 0.113,-0.0165 0.214974,-0.0358 0.104731,-0.0221 0.192925,-0.0469 v 0.39412 q -0.195681,0.0551 -0.443727,0.0882 -0.245291,0.0358 -0.509874,0.0358 -0.355534,0 -0.611849,-0.0965 -0.256315,-0.0965 -0.421679,-0.27836 -0.162608,-0.18466 -0.242535,-0.44924 -0.07717,-0.26734 -0.07717,-0.60358 0,-0.29214 0.08268,-0.55122 0.08544,-0.26182 0.24529,-0.4575 0.162609,-0.19844 0.396875,-0.3142 0.234266,-0.11575 0.531922,-0.11575 0.289388,0 0.51263,0.0909 0.223242,0.0909 0.374826,0.25907 0.15434,0.16536 0.23151,0.40514 0.07993,0.23703 0.07993,0.53193 z m -0.498849,-0.0689 q 0.0083,-0.18465 -0.03583,-0.33624 -0.0441,-0.15434 -0.137804,-0.26458 -0.09095,-0.11024 -0.228754,-0.17088 -0.137804,-0.0634 -0.319704,-0.0634 -0.157097,0 -0.286632,0.0606 -0.129536,0.0606 -0.223242,0.17087 -0.09371,0.11025 -0.151584,0.26459 -0.05788,0.15434 -0.07166,0.33899 z m 2.207616,-1.90169 h -0.818554 v -0.39412 h 1.303623 v 3.49471 h 0.824066 v 0.39963 h -2.218639 v -0.39963 h 0.909504 z"
           id="text5"
           aria-label="volt_sel" />
        <path
           style="-inkscape-font-specification:Consolas;stroke-width:0.5"
           d="m 118.24447,148.52825 h 0.5457 l 0.678,1.83003 0.14607,0.44649 0.15158,-0.45751 0.67248,-1.81901 h 0.52641 l -1.08589,2.7671 h -0.55121 z m 5.77122,1.3615 q 0,0.32246 -0.091,0.59256 -0.091,0.26734 -0.26183,0.46026 -0.17087,0.19017 -0.41617,0.29766 -0.24529,0.10473 -0.55672,0.10473 -0.29766,0 -0.53468,-0.0909 -0.23427,-0.0937 -0.39963,-0.27285 -0.16261,-0.17915 -0.2508,-0.44373 -0.0854,-0.26458 -0.0854,-0.60909 0,-0.32246 0.0909,-0.58705 0.091,-0.26734 0.26182,-0.45751 0.17088,-0.19292 0.41617,-0.29765 0.24529,-0.10749 0.55673,-0.10749 0.29765,0 0.53192,0.0937 0.23702,0.0909 0.39963,0.27009 0.16537,0.17639 0.2508,0.44097 0.0882,0.26459 0.0882,0.60634 z m -0.49058,0.0221 q 0,-0.25632 -0.0579,-0.44648 -0.0551,-0.19293 -0.15985,-0.31971 -0.10473,-0.12953 -0.25632,-0.19292 -0.14882,-0.0661 -0.33348,-0.0661 -0.21498,0 -0.36932,0.0854 -0.15158,0.0827 -0.2508,0.22324 -0.0965,0.14056 -0.14331,0.32797 -0.0441,0.18466 -0.0441,0.38861 0,0.25631 0.0551,0.44924 0.0579,0.19293 0.16261,0.32246 0.10473,0.12678 0.25356,0.19293 0.14883,0.0634 0.33624,0.0634 0.21497,0 0.36656,-0.0827 0.15434,-0.0854 0.2508,-0.22599 0.0992,-0.14056 0.14331,-0.32522 0.0469,-0.18741 0.0469,-0.39412 z m 2.12769,-2.11667 h -0.81856 v -0.39411 h 1.30363 v 3.4947 h 0.82406 v 0.39963 h -2.21864 v -0.39963 h 0.90951 z m 4.39042,3.46163 q -0.16261,0.0413 -0.33624,0.0579 -0.17363,0.0193 -0.35278,0.0193 -0.52089,0 -0.77721,-0.23426 -0.25631,-0.23702 -0.25631,-0.72485 v -1.44418 h -0.77446 v -0.40239 h 0.77446 v -0.76068 l 0.47955,-0.12402 v 0.8847 h 1.24299 v 0.40239 h -1.24299 v 1.4056 q 0,0.29765 0.1571,0.44648 0.15985,0.14607 0.46853,0.14607 0.13229,0 0.28939,-0.0193 0.1571,-0.0221 0.32797,-0.0662 z m 3.53605,1.16858 h -3.10334 v -0.39688 h 3.10334 z m 2.41432,-1.12999 v -1.98713 q 0,-0.12954 -0.011,-0.21222 -0.008,-0.0827 -0.0303,-0.12953 -0.0193,-0.0496 -0.0524,-0.0689 -0.0303,-0.0193 -0.0772,-0.0193 -0.0551,0 -0.10197,0.0331 -0.0469,0.0331 -0.10198,0.10749 -0.0524,0.0744 -0.11851,0.19844 -0.0634,0.12127 -0.15158,0.30041 v 1.77767 h -0.43822 v -1.93477 q 0,-0.15158 -0.011,-0.24529 -0.008,-0.0937 -0.0303,-0.14607 -0.0193,-0.0524 -0.0524,-0.0717 -0.0331,-0.0193 -0.0799,-0.0193 -0.0496,0 -0.0937,0.0276 -0.0441,0.0276 -0.0992,0.0992 -0.0524,0.0717 -0.11851,0.19568 -0.0661,0.12403 -0.15709,0.31695 v 1.77767 h -0.44098 v -2.7671 h 0.36656 l 0.0221,0.52641 q 0.0717,-0.1571 0.1378,-0.26734 0.0689,-0.11024 0.14056,-0.17639 0.0717,-0.0689 0.15159,-0.0992 0.0827,-0.0331 0.1819,-0.0331 0.22324,0 0.339,0.14607 0.11575,0.14608 0.11575,0.452 0.0661,-0.14332 0.12954,-0.25356 0.0634,-0.113 0.13504,-0.18741 0.0744,-0.0772 0.16261,-0.11576 0.0882,-0.0413 0.20395,-0.0413 0.5209,0 0.5209,0.80202 v 2.01469 z m 0.87092,-2.7671 h 0.5457 l 0.67799,1.83003 0.14608,0.44649 0.15158,-0.45751 0.67248,-1.81901 h 0.52641 l -1.08589,2.7671 h -0.55122 z m 5.23103,3.89709 h -1.35875 v -5.12079 h 1.35875 v 0.38585 h -0.90124 v 4.34909 h 0.90124 z m 3.54155,-1.12999 h -2.26273 v -0.44648 h 0.92604 v -2.6293 l -0.86266,0.46853 -0.17638,-0.4079 1.14652,-0.60358 h 0.42444 v 3.17225 h 0.80477 z m 3.11437,-2.00367 q 0,0.52641 -0.12678,0.90675 -0.12678,0.37758 -0.37483,0.62287 -0.24805,0.24254 -0.6146,0.35829 -0.36656,0.11576 -0.84612,0.11576 h -0.30041 v -0.41892 h 0.33348 q 0.35554,0 0.61461,-0.0717 0.25907,-0.0717 0.42995,-0.20946 0.17363,-0.14056 0.26458,-0.339 0.0909,-0.20119 0.113,-0.45751 l 0.011,-0.113 q -0.17363,0.10198 -0.39963,0.16537 -0.226,0.0606 -0.49058,0.0606 -0.27285,0 -0.47956,-0.0799 -0.2067,-0.0799 -0.34451,-0.22324 -0.13504,-0.14331 -0.20394,-0.339 -0.0689,-0.19843 -0.0689,-0.42994 0,-0.25081 0.091,-0.46854 0.0909,-0.21773 0.25356,-0.37758 0.16537,-0.16261 0.39412,-0.25631 0.22876,-0.0937 0.50436,-0.0937 0.26734,0 0.49334,0.0882 0.22875,0.0882 0.39412,0.28663 0.16536,0.19568 0.25907,0.50987 0.0937,0.31419 0.0937,0.76343 z m -1.26229,-1.25401 q -0.15434,0 -0.28663,0.0524 -0.12953,0.0496 -0.226,0.14883 -0.0937,0.0965 -0.14882,0.23978 -0.0551,0.14332 -0.0551,0.32797 0,0.16812 0.0386,0.30042 0.0413,0.13229 0.12402,0.22599 0.0854,0.0909 0.21773,0.14056 0.1323,0.0496 0.3142,0.0496 0.10197,0 0.20946,-0.0193 0.11024,-0.0193 0.21222,-0.0524 0.10473,-0.0331 0.19843,-0.0772 0.0937,-0.0441 0.16812,-0.0937 0,-0.35553 -0.0524,-0.59256 -0.0524,-0.23978 -0.15159,-0.38309 -0.0992,-0.14607 -0.24253,-0.20671 -0.14056,-0.0606 -0.31971,-0.0606 z m 3.15847,0.44097 q 0.0854,0 0.1626,0.0358 0.0772,0.0331 0.13505,0.091 0.0579,0.0579 0.0909,0.13505 0.0358,0.0772 0.0358,0.16261 0,0.0882 -0.0358,0.16536 -0.0331,0.0744 -0.0909,0.13229 -0.0579,0.0579 -0.13505,0.091 -0.0772,0.0331 -0.1626,0.0331 -0.0882,0 -0.16537,-0.0331 -0.0744,-0.0331 -0.13229,-0.091 -0.0579,-0.0579 -0.0909,-0.13229 -0.0331,-0.0772 -0.0331,-0.16536 0,-0.0854 0.0331,-0.16261 0.0331,-0.0772 0.0909,-0.13505 0.0579,-0.0579 0.13229,-0.091 0.0772,-0.0358 0.16537,-0.0358 z m 0,2.0202 q 0.0854,0 0.1626,0.0358 0.0772,0.0331 0.13505,0.0909 0.0579,0.0579 0.0909,0.13505 0.0358,0.0772 0.0358,0.16261 0,0.0882 -0.0358,0.16536 -0.0331,0.0744 -0.0909,0.1323 -0.0579,0.0579 -0.13505,0.0909 -0.0772,0.0331 -0.1626,0.0331 -0.0882,0 -0.16537,-0.0331 -0.0744,-0.0331 -0.13229,-0.0909 -0.0579,-0.0579 -0.0909,-0.1323 -0.0331,-0.0772 -0.0331,-0.16536 0,-0.0854 0.0331,-0.16261 0.0331,-0.0772 0.0909,-0.13505 0.0579,-0.0579 0.13229,-0.0909 0.0772,-0.0358 0.16537,-0.0358 z m 4.41247,-1.00321 q 0,0.41341 -0.0827,0.75517 -0.0827,0.33899 -0.2508,0.58428 -0.16812,0.24254 -0.41893,0.37759 -0.24804,0.13229 -0.58428,0.13229 -0.28939,0 -0.52641,-0.10749 -0.23703,-0.11024 -0.40515,-0.33624 -0.16812,-0.226 -0.25907,-0.57602 -0.0909,-0.35002 -0.0909,-0.82958 0,-0.41341 0.0827,-0.75516 0.0854,-0.34175 0.25081,-0.58429 0.16812,-0.24529 0.41892,-0.37758 0.2508,-0.13505 0.58429,-0.13505 0.28938,0 0.52641,0.11024 0.23702,0.10749 0.40514,0.33624 0.16812,0.226 0.25907,0.57602 0.091,0.35003 0.091,0.82958 z m -0.48507,0.0165 q 0,-0.0937 -0.008,-0.18466 -0.006,-0.0937 -0.0138,-0.1819 l -1.52411,1.13275 q 0.0414,0.14331 0.10474,0.26458 0.0634,0.12127 0.15158,0.20946 0.0909,0.0854 0.20395,0.13505 0.11575,0.0469 0.26183,0.0469 0.18741,0 0.33899,-0.091 0.15434,-0.0909 0.26183,-0.27009 0.10749,-0.17915 0.16536,-0.44373 0.0579,-0.26734 0.0579,-0.61736 z m -1.64813,-0.0331 q 0,0.0854 0,0.17087 0.003,0.0854 0.011,0.16537 l 1.52411,-1.12724 q -0.0413,-0.14056 -0.10473,-0.25631 -0.0634,-0.11576 -0.15158,-0.19844 -0.0882,-0.0854 -0.20119,-0.13229 -0.113,-0.0468 -0.25356,-0.0468 -0.18742,0 -0.34176,0.0909 -0.15158,0.0909 -0.25907,0.27285 -0.10748,0.17914 -0.16536,0.44648 -0.0579,0.26458 -0.0579,0.61461 z m 4.52823,2.94624 h -1.35875 v -0.38585 h 0.89573 v -4.34909 h -0.89573 v -0.38585 h 1.35875 z"
           id="text5-2"
           aria-label="volt_mv[19:0]" />
        <path
           style="-inkscape-font-specification:Consolas;stroke-width:0.4"
           d="m 56.200253,148.52827 h 0.545703 l 0.677994,1.83003 0.146072,0.44648 0.151584,-0.45751 0.672483,-1.819 h 0.52641 l -1.085894,2.76709 h -0.551214 z m 5.77122,1.3615 q 0,0.32246 -0.09095,0.59255 -0.09095,0.26734 -0.261828,0.46027 -0.170876,0.19017 -0.416167,0.29765 -0.24529,0.10473 -0.556727,0.10473 -0.297656,0 -0.534678,-0.0909 -0.234266,-0.0937 -0.399631,-0.27285 -0.162608,-0.17914 -0.250803,-0.44373 -0.08544,-0.26458 -0.08544,-0.60909 0,-0.32246 0.09095,-0.58704 0.09095,-0.26734 0.261828,-0.45751 0.170876,-0.19293 0.416167,-0.29766 0.24529,-0.10748 0.556727,-0.10748 0.297656,0 0.531922,0.0937 0.237022,0.0909 0.399631,0.2701 0.165364,0.17639 0.250803,0.44097 0.08819,0.26458 0.08819,0.60634 z m -0.490581,0.0221 q 0,-0.25632 -0.05788,-0.44649 -0.05512,-0.19292 -0.159852,-0.3197 -0.104731,-0.12954 -0.256315,-0.19293 -0.148828,-0.0661 -0.333485,-0.0661 -0.214974,0 -0.369314,0.0854 -0.151584,0.0827 -0.250803,0.22325 -0.09646,0.14056 -0.143316,0.32797 -0.0441,0.18466 -0.0441,0.38861 0,0.25631 0.05512,0.44924 0.05788,0.19292 0.162608,0.32246 0.104731,0.12678 0.253559,0.19292 0.148828,0.0634 0.336241,0.0634 0.214974,0 0.366558,-0.0827 0.15434,-0.0854 0.250803,-0.226 0.09922,-0.14056 0.143316,-0.32522 0.04685,-0.18741 0.04685,-0.39411 z m 2.127689,-2.11667 h -0.818554 v -0.39412 h 1.303623 v 3.4947 h 0.824066 v 0.39963 h -2.218639 v -0.39963 h 0.909504 z m 4.390426,3.46163 q -0.162608,0.0413 -0.336241,0.0579 -0.173633,0.0193 -0.352778,0.0193 -0.520898,0 -0.777212,-0.23427 -0.256315,-0.23702 -0.256315,-0.72484 v -1.44419 h -0.774457 v -0.40238 h 0.774457 v -0.76068 l 0.479557,-0.12402 v 0.8847 h 1.242989 v 0.40238 h -1.242989 v 1.4056 q 0,0.29766 0.157096,0.44648 0.159852,0.14608 0.468532,0.14608 0.132292,0 0.289388,-0.0193 0.157096,-0.022 0.327973,-0.0661 z m 3.536044,1.16857 h -3.10334 v -0.39687 h 3.10334 z m 2.21864,-1.12999 -0.01102,-0.37207 q -0.225998,0.22325 -0.460265,0.32247 -0.23151,0.0992 -0.487825,0.0992 -0.237022,0 -0.405143,-0.0606 -0.16812,-0.0606 -0.278363,-0.16536 -0.107487,-0.10749 -0.159852,-0.25081 -0.04961,-0.14331 -0.04961,-0.31143 0,-0.41617 0.308681,-0.65044 0.311436,-0.23702 0.917772,-0.23702 h 0.573264 v -0.24253 q 0,-0.24529 -0.157096,-0.39137 -0.157097,-0.14882 -0.479557,-0.14882 -0.234267,0 -0.463021,0.0524 -0.225998,0.0524 -0.468533,0.14883 v -0.4327 q 0.09095,-0.0331 0.201194,-0.0634 0.112999,-0.0331 0.237022,-0.0579 0.124024,-0.0248 0.259071,-0.0386 0.135048,-0.0165 0.272852,-0.0165 0.250802,0 0.451996,0.0551 0.201193,0.0551 0.338997,0.16812 0.14056,0.113 0.214974,0.28387 0.07441,0.17088 0.07441,0.40239 v 1.9072 z m -0.05237,-1.25952 h -0.609093 q -0.179145,0 -0.30868,0.0358 -0.129535,0.0358 -0.212218,0.10197 -0.08268,0.0661 -0.124023,0.15985 -0.03858,0.0909 -0.03858,0.20671 0,0.0799 0.02481,0.15434 0.0248,0.0717 0.07993,0.12954 0.05512,0.0551 0.143316,0.0882 0.08819,0.0331 0.214973,0.0331 0.165365,0 0.377583,-0.0992 0.214973,-0.10197 0.451996,-0.3197 z m 1.237476,-0.0661 q 0,-0.35277 0.09646,-0.62563 0.09646,-0.2756 0.272852,-0.46302 0.179144,-0.19017 0.427191,-0.28663 0.250803,-0.0992 0.556727,-0.0992 0.132292,0 0.259071,0.0165 0.129536,0.0165 0.253559,0.0524 v -1.16306 h 0.482313 v 3.89433 h -0.429948 l -0.01654,-0.52365 q -0.201193,0.29214 -0.43546,0.4327 -0.234266,0.14056 -0.507117,0.14056 -0.237023,0 -0.418924,-0.0992 -0.179145,-0.0992 -0.300412,-0.27837 -0.118511,-0.1819 -0.179145,-0.43546 -0.06063,-0.25356 -0.06063,-0.56224 z m 0.490581,-0.0303 q 0,0.5016 0.146072,0.74965 0.148828,0.24529 0.418923,0.24529 0.181901,0 0.383094,-0.16261 0.20395,-0.16261 0.427192,-0.48231 v -1.28433 q -0.118511,-0.0551 -0.261827,-0.0827 -0.143316,-0.0303 -0.283876,-0.0303 -0.391362,0 -0.611848,0.25356 -0.21773,0.25356 -0.21773,0.79375 z m 4.903057,1.25401 q -0.187413,0.0717 -0.385851,0.10473 -0.195681,0.0358 -0.405143,0.0358 -0.655945,0 -1.011479,-0.35553 -0.352778,-0.35554 -0.352778,-1.03904 0,-0.32798 0.101975,-0.59532 0.101975,-0.26734 0.286632,-0.4575 0.184657,-0.19017 0.440972,-0.29215 0.256315,-0.10473 0.564995,-0.10473 0.214974,0 0.402387,0.0303 0.187413,0.0303 0.35829,0.0992 v 0.4575 q -0.179145,-0.0937 -0.366558,-0.13504 -0.184657,-0.0441 -0.383095,-0.0441 -0.184657,0 -0.350021,0.0717 -0.162608,0.0689 -0.286632,0.20119 -0.124023,0.13229 -0.195681,0.32246 -0.07166,0.19017 -0.07166,0.42995 0,0.5016 0.242535,0.75241 0.24529,0.24804 0.677994,0.24804 0.195681,0 0.377582,-0.0441 0.184657,-0.0441 0.355534,-0.13229 z m 2.82222,1.23196 h -1.358744 v -5.12078 h 1.358744 v 0.38585 h -0.901236 v 4.34908 h 0.901236 z m 3.541556,-1.12999 h -2.262737 v -0.44648 h 0.926041 v -2.62929 l -0.862651,0.46853 -0.176389,-0.4079 1.146527,-0.60358 h 0.424435 v 3.17224 h 0.804774 z m 3.10334,0 h -2.262737 v -0.44648 h 0.926041 v -2.62929 l -0.862651,0.46853 -0.176389,-0.4079 1.146527,-0.60358 h 0.424436 v 3.17224 h 0.804773 z m 1.907204,-2.8167 q 0.08544,0 0.162609,0.0358 0.07717,0.0331 0.135047,0.0909 0.05788,0.0579 0.09095,0.13504 0.03583,0.0772 0.03583,0.16261 0,0.0882 -0.03583,0.16537 -0.03307,0.0744 -0.09095,0.13229 -0.05788,0.0579 -0.135047,0.0909 -0.07717,0.0331 -0.162609,0.0331 -0.08819,0 -0.165364,-0.0331 -0.07441,-0.0331 -0.132292,-0.0909 -0.05788,-0.0579 -0.09095,-0.13229 -0.03307,-0.0772 -0.03307,-0.16537 0,-0.0854 0.03307,-0.16261 0.03307,-0.0772 0.09095,-0.13504 0.05788,-0.0579 0.132292,-0.0909 0.07717,-0.0358 0.165364,-0.0358 z m 0,2.0202 q 0.08544,0 0.162609,0.0358 0.07717,0.0331 0.135047,0.0909 0.05788,0.0579 0.09095,0.13505 0.03583,0.0772 0.03583,0.1626 0,0.0882 -0.03583,0.16537 -0.03307,0.0744 -0.09095,0.13229 -0.05788,0.0579 -0.135047,0.091 -0.07717,0.0331 -0.162609,0.0331 -0.08819,0 -0.165364,-0.0331 -0.07441,-0.0331 -0.132292,-0.091 -0.05788,-0.0579 -0.09095,-0.13229 -0.03307,-0.0772 -0.03307,-0.16537 0,-0.0854 0.03307,-0.1626 0.03307,-0.0772 0.09095,-0.13505 0.05788,-0.0579 0.132292,-0.0909 0.07717,-0.0358 0.165364,-0.0358 z m 4.412472,-1.00321 q 0,0.41341 -0.08268,0.75516 -0.08268,0.339 -0.250803,0.58429 -0.168121,0.24253 -0.418923,0.37758 -0.248047,0.13229 -0.584288,0.13229 -0.289388,0 -0.52641,-0.10748 -0.237023,-0.11025 -0.405143,-0.33624 -0.168121,-0.226 -0.259071,-0.57602 -0.09095,-0.35003 -0.09095,-0.82958 0,-0.41341 0.08268,-0.75517 0.08544,-0.34175 0.250803,-0.58428 0.168121,-0.24529 0.418923,-0.37759 0.250803,-0.13504 0.584288,-0.13504 0.289388,0 0.52641,0.11024 0.237023,0.10749 0.405143,0.33624 0.168121,0.226 0.259071,0.57602 0.09095,0.35002 0.09095,0.82958 z m -0.485069,0.0165 q 0,-0.0937 -0.0083,-0.18465 -0.0055,-0.0937 -0.01378,-0.1819 l -1.524109,1.13274 q 0.04134,0.14332 0.104731,0.26459 0.06339,0.12126 0.151584,0.20946 0.09095,0.0854 0.203949,0.13505 0.115756,0.0469 0.261827,0.0469 0.187414,0 0.338998,-0.091 0.15434,-0.0909 0.261827,-0.2701 0.107487,-0.17914 0.165364,-0.44373 0.05788,-0.26733 0.05788,-0.61736 z m -1.648133,-0.0331 q 0,0.0854 0,0.17088 0.0028,0.0854 0.01103,0.16536 l 1.524109,-1.12723 q -0.04134,-0.14056 -0.104731,-0.25632 -0.06339,-0.11575 -0.151584,-0.19843 -0.08819,-0.0854 -0.201194,-0.1323 -0.112999,-0.0469 -0.253559,-0.0469 -0.187413,0 -0.341753,0.091 -0.151584,0.0909 -0.259071,0.27285 -0.107487,0.17915 -0.165364,0.44649 -0.05788,0.26458 -0.05788,0.6146 z m 4.528231,2.94624 h -1.358745 v -0.38585 h 0.895724 v -4.34908 h -0.895724 v -0.38585 h 1.358745 z"
           id="text1"
           aria-label="volt_adc[11:0]" />
      </g>
    </g>
  </g>
</svg>
